<?xml version="1.0" encoding="UTF-8"?><svg id="Layer_2" xmlns="http://www.w3.org/2000/svg" viewBox="0 0 500 200"><defs><style>.cls-1{stroke-width:0px;}.cls-1,.cls-2{fill:#f8f3ef;}.cls-2{stroke:#f8f3ef;stroke-miterlimit:10;stroke-width:.75px;}</style></defs><path class="cls-1" d="m94.38,64.4s2.37-1.39,4.44-3.68l3.35,3.35s-1.77,2.29-4.6,3.98l-3.19-3.65Z"/><path class="cls-1" d="m89.75,66.99s1.69-.27,3.84-1.74l-.82-1.8s3.1-1.61,5.83-4.87l1.69,1.31s1.09-1.03,2.26-2.53l-7.92-7.82s-1.39-1.25-6.81,2.42c-5.42,3.68-3.98,5.39-3.98,5.39l5.91,9.64Z"/><path class="cls-1" d="m110.37,70.92c.36-1.25,1.04-2.02,1.4-2.42.37-.41,1.35-1.48,2.97-1.93,1-.28,2.45-.38,2.64.09.05.11.03.3-1,1.46-.8.9-1.22,1.27-1.89,2.06-.93,1.1-1.06,1.5-1.07,1.89,0,.15.02.68.4,1.11.49.54,1.23.54,1.6.53.92,0,1.61-.41,2.11-.71.78-.47,1.22-.98,2.29-1.38.23-.09.48-.16.62-.04.3.24-.07,1.14-.22,1.51-.21.52-.56,1.35-1.44,2.22-.48.48-1.51,1.49-3.17,1.78-.48.08-2.42.42-3.93-.87-1.2-1.02-1.41-2.46-1.49-2.97-.03-.23-.16-1.17.18-2.33Z"/><path class="cls-1" d="m112.32,77.78c.25-.18.44-.02,2.29.41,1.67.39,1.97.36,2.49.74.56.4.48.63,1.19,1.22.46.38.78.53,1.68.99,1.72.88,2.58,1.33,2.85,1.68.57.75.6,1.61.64,2.34.03.6.08,1.77-.66,2.9-.85,1.29-2.18,1.69-2.82,1.88-.6.18-1.09.22-1.89.05-1.04-.22-1.79-.79-2.78-1.88-.79-.87-2.83-4.11-3.2-6.13-.57-3.09.02-4.04.23-4.19Z"/><path class="cls-1" d="m55.36,129.54c-.02-.1-.28-1.1-1.21-1.44-.78-.29-1.71,0-2.29.72,0,0-4.48.97-6.1,3.96,0,0-2.47,1.3-3.1,3.21-.63,1.9.71,4.09.71,4.09.54,1.12,1.19,1.69,1.69,2.01,1,.63,1.88.55,2.56,1.45.38.5.18.62.53,1.13.84,1.21,2.12.69,3,1.69.74.85-.03,1.39.86,3.01.52.95.93,1.68,1.69,1.99.2.08.61.21.83.58.18.3.14.59.14.78.02,1.25,1.93,2.89,3.28,2.84.21,0,.71-.07,1.23.19.15.07.24.15.44.3.75.59.99.82,1.2.97.42.31.88.36,1.82.46,1.1.12,1.77.19,2.63-.05,1.3-.38,2.1-1.23,2.38-1.57.25-.29,1.32-1.58,1.16-3.23-.07-.76-.54-1.48-1.48-2.91-.8-1.22-1.2-1.83-1.52-2.04-.2-.14-.65-.4-.67-.79-.01-.29.23-.41.18-.65-.09-.37-.7-.34-.79-.71-.07-.27.24-.41.18-.71-.07-.32-.46-.28-.62-.63-.18-.39.19-.67,0-1-.18-.31-.59-.24-.65-.51-.05-.19.16-.26.19-.55.06-.46-.42-.81-.32-.93.06-.07.21.06.46.04.34-.04.56-.34.69-.51.08-.1.42-.57.33-1.08-.14-.85-1.41-1.26-1.32-1.45.04-.08.26.03.62-.05.1-.02.71-.16.81-.58.09-.41-.47-.84-.53-.88-.96-.71-2.08,0-2.73-.65-.27-.27-.05-.57-.33-.81-.28-.23-.69-.16-1.29-.05-1.3.23-1.81.12-1.95.13-.16,0-1.32.06-2.15-.84s-1.28-1.48-1.1-2.48c.07-.4.15-.44.39-.98.09-.2.33-.77.17-1.44Z"/><path class="cls-1" d="m108.78,149.79c-.1.01-1.13.13-1.59,1.01-.39.73-.23,1.69.41,2.36,0,0,.36,4.57,3.12,6.58,0,0,.96,2.62,2.77,3.5,1.8.88,4.15-.15,4.15-.15,1.18-.38,1.84-.95,2.22-1.41.76-.91.79-1.79,1.77-2.34.55-.31.64-.09,1.19-.37,1.31-.68.97-2.01,2.08-2.74.94-.62,1.37.22,3.1-.45,1.01-.39,1.79-.69,2.2-1.41.11-.19.28-.57.69-.74.32-.13.6-.06.79-.04,1.24.15,3.12-1.53,3.25-2.87.02-.21.03-.71.36-1.2.09-.14.18-.22.36-.4.68-.67.95-.88,1.12-1.06.36-.38.47-.83.7-1.74.27-1.07.43-1.73.3-2.61-.2-1.34-.94-2.24-1.24-2.57-.26-.28-1.39-1.52-3.04-1.58-.77-.03-1.54.34-3.08,1.08-1.32.63-1.98.95-2.23,1.23-.16.18-.49.59-.88.56-.29-.03-.37-.29-.62-.26-.38.04-.43.65-.8.69-.28.03-.37-.3-.68-.27-.33.03-.34.42-.71.53-.41.12-.64-.28-1-.13-.33.13-.32.55-.59.58-.2.02-.24-.19-.52-.26-.45-.12-.86.31-.97.19-.06-.07.09-.2.1-.45,0-.34-.26-.6-.42-.75-.09-.09-.51-.49-1.02-.48-.86.03-1.44,1.22-1.61,1.12-.07-.05.06-.25.03-.62,0-.1-.06-.73-.47-.88-.39-.15-.9.36-.94.41-.83.85-.27,2.06-1.01,2.62-.3.23-.57-.03-.85.22-.27.25-.25.66-.22,1.27.06,1.32-.12,1.81-.13,1.95-.02.16-.12,1.32-1.12,2.02s-1.63,1.07-2.61.76c-.39-.13-.42-.2-.92-.51-.18-.11-.72-.43-1.41-.36Z"/><path class="cls-1" d="m86.07,88.86c4.09,1.98,3.71,2.83,3.71,2.83-.9.44-1.78.8-2.55,1.08.03,0,.05,0,.07.01.25.04.54.08.88.13.97.13,1.97.23,2.97.29l1.81.11.34,1.41c.08-.03,4.46-1.63,4.46-1.63l-.69,3.09,2.88-1.97.83,3.16,2.56-2.85.69,2.59.42-1.38,2.77,1.93s2.05,1.33,5.6,1.43l1.14.03.71.89s.14.17.3.39c.44-.14.69-.26.69-.26l-3.71-2.21,4.39-1.34-3.98-1.61,5.35-2.68s-4.93-4.24-6.27-7.6c-1.34-3.36-1.3-9.06-1.3-9.06l-1.07-1.26v-2.95c0-.95-1-1.03-1-1.03,2.94-1.94,5.29-5.74,5.29-5.74,0,0,3.31-5.31,1.07-6.84-2.23-1.52-9.1,1.1-9.1,1.1-1.3,2.56-2.5,3.56-2.5,3.56l1.1,1.13c-3.05,4.37-7.06,6.12-7.06,6.12l-.94-1.23c-3.44,2.43-4.67,1.89-4.67,1.89,0,0-5.55,6.12-3.33,9.33,2.19,3.17,12.65-3.35,12.92-3.51l-6.38,11.15c-6.2-.23-8.41,1.49-8.41,1.49Zm19.85-13.13c.72-.86,1.84-1.29,1.95-1.15.05.07-.16.23-.45.77-.27.52-.54,1.01-.34,1.38.15.29.52.38.61.41.5.12.84-.15.94-.02.1.13-.13.6-.51.87-.63.45-2.03.8-2.52.08-.52-.76-.18-1.74.32-2.33Z"/><path class="cls-1" d="m110.4,148.62c.19.08.37.17.56.29.17.11.3.19.4.26.04.02.06.04.09.06.86-.08,1.43-.52,1.82-1.06.07-.18.09-.34.1-.41,0-.06.02-.15.04-.27.04-.17.12-.57.08-1.48-.01-.25-.02-.53,0-.8-5.5-4.95-14.37-7.94-14.37-7.94l-.57-1.35c-1.04.4-2.36.76-3.92.83.39,2.63,1.75,4.46,1.75,4.46l3.93.97c-.17,2.53.8,3.07.8,3.07,1.13-1.43,2.77-1.27,2.77-1.27,2.59.69,5.37,3.43,6.52,4.66Z"/><path class="cls-1" d="m56.81,130.69c-.06.3-.14.6-.28.9-.08.19-.15.32-.2.43-.03.05-.05.09-.06.14,0,.02,0,.04-.02.08-.04.24-.06.35.73,1.22.31.34.77.37.96.37h.12s.12,0,.21,0c.06,0,.15.01.28.01.22,0,.49-.02.78-.06,1.83-2.93,8.93-11.12,8.93-11.12.89.1,1.7.07,2.34,0-.24-.94-.33-1.84-.42-2.67-.06-.61-.08-1.1-.07-1.67l-4.22-.36-2.27,3.93c-1.32-.16-2.63-.11-3.93.1.56,1.01.88,2.08,1,3.2l-3.89,5.5Z"/><path class="cls-1" d="m62.68,99.43c2.14-1.16,4.07-1.66,4.8-1.82.26-.06.5-.11.74-.16-.05-.36-.03-.73.08-1.1.48-1.69,2.11-1.95,2.8-2.07.04,0,.08-.01.12-.02.03-.81.26-1.86,1.24-2.6.51-.38,1.13-.58,1.78-.58.89,0,1.66.38,2.13.6.03.01,2.07,1.01,4.57,2.13-.34-.7-.75-1.63-1.16-2.81-1.07-3.11-.31-14.14-.56-18.96-.28-5.46-1.79-11.81-4.2-16.22-2.78-5.08-5.43-8.96-11.16-13.65-1.69-1.39-4.86-3.41-9.09-4.69-2.18-.66-6.64-1.95-11.49-.2-1.3.47-4.31,1.55-6.58,4.72-.46.64-.88,1.4-.65,1.83.26.49,1.39.33,2.09.27,3.58-.32,6.6.87,7.97,1.42,2.72,1.08,3.83,2.5,4.33,3.31.09.16.89,1.47.54,1.82-.32.32-2.04-.64-2.74-.91-1.88-.72-3.09-1.16-6.46-1.5-2.92-.3-5.41-.26-8.64.92-.79.29-2.35.88-3.99,2.23-3.09,2.56-4.01,5.82-4.33,7.03-.58,2.19-.88,5.44.07,5.81.44.17,2.43-1.49,7.03-3.99,3.45-1.87,7.81-1.76,10.68-1.69,1.97.05,6.04.34,10.75,2.23,2.8,1.12,6.09,2.82,8.92,5.81,1.79,1.89,2.97,5.21,2.84,5.54-.09.23-.73-.23-1.55-.81-1.7-1.18-3.54-2.16-5.2-3.38-2.93-2.15-6.94-3.29-11.16-3.97-3.86-.61-6.62-.55-10.39.18-.87.17-6.12,1.25-10.34,5.14,0,0-1.98,1.82-3.72,5.88-.15.35-.37.89-.14,1.15.36.41,1.53-.14,4.33-1.42,2.84-1.3,4.28-1.95,6.15-2.5.72-.22,3.1-.92,3.31-.47.12.25-.57.64-1.55,1.76-.72.81-1.81,2.07-2.16,3.78-.21,1.04-.2,2.51.34,2.7.4.14.92-.5,1.42-1.01,0,0,1.58-1.64,5-3.24,2.14-1,4.08-.97,6.01-.95,1.47.02,4.59.1,7.91,1.89,3.35,1.81,5.88,4.81,5.54,5.27-.16.21-.9-.16-2.09-.61-2.57-.96-4.54-1.22-7.57-1.62-2.32-.31-5.25-.7-8.79,0-1.56.31-7,1.39-10.61,5.88-1.99,2.48-3.26,5.8-2.64,6.28.26.2.8-.14,2.3-1.01,0,0,1.61-1.1,4.8-2.7,2.04-1.03,6.07-1.54,8.82-1.31,1.62.13,5.44.94,8.46,2.26,1.04.45,1.78,1.36,1.77,1.82,0,.45-.64,1.59-3.96,2.26-3.84.78-6.67,1.05-9.11.93-1.71-.09-3.87-.4-5.04-.55-1.55-.2-2.72-.38-3.11.2-.44.66.36,1.91.61,2.3,1.62,2.52,4.82,3.24,6.42,3.58,5.35,1.14,9.26,1.91,15.21,1.62,2.84-.14,5-.47,6.77-.86.5-.63,1.2-1.01,1.54-1.19Z"/><path class="cls-1" d="m81.8,102.27c-.38.17-.25,1.37-.13,1.99.28,1.43,1.06,2.39.73,2.46-.43.09-1.14-.03-2.04-.19-.74-.13-2.08-.42-3.1-.87-.76-.34-1.72-.89-1.92-.84-.26.07.17,1.34.36,1.81.6,1.44,1.4,2.02,2.11,2.57,1.54,1.21,3.51,1.81,3.43,2.38-.05.33-.65.49-1.1.6-2.63.67-4.79-.54-5.09-.02-.09.16-.08.44.4,1.14,1.26,1.85,2.37,2.88,4.11,3.69,1.4.65,2.65.73,2.7,1.34.01.16-.06.28-.19.47-1.01,1.48-1.98,2.24-1.86,2.48.06.12.38.12.71,0,.78-.28,1.17-.4,1.8-.56,1.89-.47,2.84-.56,5.84-.55,2.09,0,3.16.04,4.56-.21,1.82-.32,3.15-.91,3.87-1.23,1.5-.67,2.6-1.17,3.63-2.25.91-.96,1.27-1.87,1.86-3.39.73-1.88,2.25-5.8.66-7.32-.19-.18-.5-.3-1.11-.54-2.56-.99-4.87-1.17-5.22-1.2-1.9-.14-4.08-.63-4.65-1.17-1.14-1.09-1.05-1.33-1.2-1.41-.07-.04-.37.05-1.17.66-1.18.89-1.17.94-1.44,1.11-.95.61-1.97.62-2.46.63-.42,0-1.5.01-2.58-.6-.92-.52-1.22-1.13-1.51-1.01Z"/><path class="cls-1" d="m113.24,101.05c-4.43-.12-6.94-1.87-6.94-1.87-1.13,3.73-1.89,3.01-1.89,3.01-1.07-.45-1.79-3.15-1.79-3.15-2.1,2.34-3.03,2.19-3.03,2.19-.12-1.53-.64-3.53-.64-3.53l-2.03,1.38c-1.98,1.29-2.34.72-2.34.72-.24-1.03.29-3.36.29-3.36-3.12,1.14-3.69.74-3.69.74.45-1.43.31-2.03.31-2.03-1.34-.08-2.41-.21-3.15-.31-1.53-.21-2-.36-2.93-.24-1.02.13-1.68.21-2.31.72-.55.44-.99,1.14-1.62,1.07-.12-.01-.21-.05-.26-.07-3.33-1.42-6.41-2.93-6.41-2.93-.46-.23-1.04-.5-1.36-.26-.32.24-.27.9-.24,1.31.06.81.32.96.18,1.22-.16.29-.6.25-2.38.54-.49.08-.79.14-.84.32-.01.05-.05.24.61.77.88.7,1.42.74,1.43.93.01.34-1.67.62-4.68,1.29-.34.07-2.13.49-4.16,1.58-.48.26-.86.49-.81.66.11.42,3.05.36,5.48.32.3,0,1.03-.02,1.09.2.04.16-.27.37-.38.45-.5.35-1.28,1.04-2.51,2.51-1.67,1.77-2.95,2.98-3.94,3.85-.24.21-1.02,1.24-2.58,3.28-.12.16-.31.41-.23.61.07.18.41.54,4.12,0,1.88-.27,3.09-.56,4.73-.88,1.41-.28,2.77-.52,4.07-.72-.06,1.88-.13,3.41-.18,4.46-.12,2.57-.19,3.21-.07,4.41.15,1.52.29,2.78,1.11,4.12.32.52,1.01,1.64,2.33,2.26,1.08.51,2.14.47,4.03.14,1.69-.3,4-.82,6.7-1.81,2.72,5.18,6.36,9.66,6.36,9.66,4.3.84,7.33-1.46,7.33-1.46.05-6.03.56-6.08.56-6.08,13.11-5,19.96-10.4,19.96-10.4-1.92-8.97-7.27-15.62-7.27-15.62Zm-9.39,12.59c-.58,1.5-1.04,2.68-2.16,3.87-1.22,1.29-2.55,1.89-4.09,2.58-.71.32-2.18.97-4.22,1.34-1.13.2-2.04.24-3.43.24h-1.65c-2.78,0-3.57.1-5.23.51-.59.15-.93.25-1.66.51-.32.12-.65.18-.95.18-.98,0-1.41-.6-1.55-.86-.55-1.02.17-1.84.74-2.5.17-.19.36-.41.56-.66-.38-.13-.81-.28-1.27-.5-1.95-.91-3.27-2.09-4.71-4.2-.33-.48-1.1-1.62-.45-2.72.19-.32.65-.86,1.62-.86.35,0,.72.07,1.15.15.32.06.68.13,1.08.17-.24-.16-.49-.33-.73-.52l-.09-.07c-.73-.58-1.73-1.36-2.46-3.09-.85-2.02-.5-2.74-.39-2.97.2-.41.56-.71.99-.83l.19-.05h.23c.51,0,.98.23,1.75.61.24.12.5.25.74.35.71.32,1.7.57,2.47.71-.04-.16-.08-.32-.11-.49-.39-1.98-.06-3.16.99-3.62.21-.09.44-.14.66-.14.7,0,1.14.4,1.47.69.19.17.4.36.69.52.48.27,1.06.41,1.71.41h.12c.41,0,1.09-.02,1.69-.4.08-.05.12-.09.22-.16.18-.15.48-.39,1.12-.88.94-.71,1.47-.97,2.02-.97h.37l.36.18c.42.22.61.55.7.7.05.09.19.33.8.91.34.22,1.85.66,3.77.79.67.05,3.03.29,5.64,1.3.71.28,1.19.46,1.59.85,2.3,2.19.61,6.57-.3,8.92Z"/><path class="cls-2" d="m156.53,74.02c0-.87-.01-1.63-.03-2.29s-.05-1.22-.09-1.69-.09-.87-.15-1.19c-.06-.32-.12-.58-.18-.8v-.06c.21.01.42.02.65.02.19.01.41.02.65.02h.75c.37,0,.87-.04,1.5-.11.63-.07,1.44-.11,2.44-.11.92,0,1.78.12,2.56.36s1.45.59,2.02,1.04c.57.45,1.02,1.01,1.34,1.67.32.66.48,1.41.48,2.26,0,.71-.1,1.34-.29,1.9-.2.56-.47,1.05-.82,1.46s-.78.76-1.28,1.05c-.5.28-1.04.51-1.64.67.87.13,1.67.36,2.39.67.72.31,1.34.71,1.85,1.18.52.47.92,1.02,1.2,1.66s.42,1.33.42,2.1c0,2.17-.71,3.79-2.14,4.87-1.43,1.08-3.56,1.62-6.4,1.62-.31,0-.67-.01-1.08-.04-.41-.03-.83-.05-1.25-.08-.43-.03-.84-.06-1.25-.08-.41-.03-.77-.04-1.08-.04h-1.02v-.06c.06-.22.12-.48.18-.8.06-.32.1-.71.15-1.18.04-.47.07-1.03.09-1.69.02-.65.03-1.41.03-2.29v-10.02Zm2.8,3.97c.29.03.54.05.77.05.23,0,.47,0,.72,0,.7,0,1.33-.1,1.91-.3.57-.2,1.06-.5,1.47-.9.41-.4.72-.9.95-1.5.23-.6.34-1.3.34-2.1,0-.67-.08-1.27-.25-1.82s-.41-1.01-.73-1.39-.72-.68-1.19-.89c-.47-.21-1.01-.31-1.62-.31-.39,0-.73.02-1.02.05s-.54.07-.75.11c-.24.04-.44.09-.6.15v8.84Zm2.85,1.15c-.7,0-1.28.03-1.75.08-.47.05-.84.1-1.09.15v4.66c0,1.2.02,2.19.06,2.97.04.78.1,1.42.17,1.91.39.05.78.1,1.17.14.39.04.7.06.94.06,1.92,0,3.32-.43,4.21-1.29.89-.86,1.33-2.17,1.33-3.95,0-.7-.1-1.34-.32-1.92s-.52-1.08-.94-1.5-.94-.75-1.57-.98c-.63-.23-1.37-.35-2.21-.35Z"/><path class="cls-2" d="m174.19,73.07c0-.87-.01-1.63-.04-2.29-.03-.65-.06-1.21-.09-1.69-.04-.47-.08-.87-.14-1.19-.06-.32-.12-.58-.18-.8v-.06h3.56v.06c-.06.22-.12.48-.17.8-.05.32-.1.71-.14,1.19-.04.47-.07,1.03-.09,1.69-.02.65-.03,1.41-.03,2.29v10.98c0,.87.01,1.63.03,2.29.02.65.05,1.21.09,1.69.04.47.09.87.14,1.18.05.32.11.58.17.8v.06h-3.56v-.06c.06-.22.12-.48.18-.8.06-.32.1-.71.14-1.18.04-.47.07-1.03.09-1.69.03-.65.04-1.41.04-2.29v-10.98Z"/><path class="cls-2" d="m184.44,84.67c0,1.35.27,2.35.81,2.99.54.64,1.26.95,2.18.95.33,0,.7-.07,1.11-.21.41-.14.83-.32,1.27-.55.44-.23.87-.5,1.31-.81.44-.31.84-.64,1.21-.99.02-.3.03-.61.03-.95v-4.79c0-.87-.01-1.63-.04-2.29-.03-.65-.06-1.21-.09-1.69-.04-.47-.08-.87-.14-1.19-.06-.32-.12-.58-.18-.8v-.06h3.56v.06c-.06.22-.12.48-.17.8-.05.32-.1.71-.14,1.19-.04.47-.07,1.03-.09,1.69-.02.65-.03,1.41-.03,2.29v3.73c0,.87.01,1.63.03,2.29.02.65.05,1.21.09,1.69.04.47.09.87.14,1.18.05.32.11.58.17.8v.06h-3.56v-.06c.06-.26.13-.58.19-.99.07-.4.12-.92.15-1.57-.42.36-.88.71-1.36,1.06s-1,.66-1.52.94c-.53.28-1.06.5-1.6.67-.54.17-1.07.25-1.59.25-.8,0-1.48-.14-2.04-.42-.56-.28-1.02-.64-1.37-1.09-.35-.45-.61-.96-.77-1.54-.16-.57-.24-1.16-.24-1.77v-5.23c0-.87-.01-1.63-.03-2.29-.02-.65-.05-1.21-.09-1.69-.04-.47-.09-.87-.14-1.19-.05-.32-.11-.58-.17-.8v-.06h3.56v.06c-.06.22-.12.48-.17.8-.05.32-.1.71-.14,1.19-.04.47-.07,1.03-.09,1.69-.02.65-.03,1.41-.03,2.29v4.36Z"/><path class="cls-2" d="m206.81,90.34c-1.14,0-2.21-.18-3.2-.54-1-.36-1.86-.88-2.6-1.58-.74-.69-1.32-1.55-1.75-2.57-.43-1.02-.64-2.19-.64-3.5,0-1.16.19-2.23.58-3.22.39-.99.93-1.85,1.62-2.58.69-.73,1.49-1.3,2.41-1.71.92-.41,1.91-.62,2.98-.62s2.04.18,2.94.55c.9.36,1.69.89,2.35,1.59.66.69,1.19,1.55,1.57,2.57.38,1.02.59,2.18.62,3.49-1.16-.02-2.32-.04-3.48-.05s-2.37-.02-3.62-.02c-.89,0-1.76,0-2.61.02s-1.61.03-2.29.05c.06,1.07.23,2.03.5,2.89.27.86.65,1.6,1.12,2.21.48.61,1.06,1.08,1.74,1.41.68.33,1.45.49,2.32.49.6,0,1.16-.07,1.69-.21s1.01-.33,1.44-.58.82-.54,1.15-.87c.34-.33.63-.7.86-1.09l.18.09-1.14,2.74c-.55.29-1.22.53-1.99.73-.77.2-1.69.3-2.77.3Zm-2.05-9.39c1.03,0,2.06,0,3.09,0s1.97-.02,2.81-.05c-.09-.89-.27-1.69-.52-2.4-.26-.71-.58-1.31-.98-1.8-.4-.49-.87-.87-1.42-1.14-.54-.27-1.14-.4-1.8-.4-.6,0-1.14.13-1.64.39-.5.26-.93.64-1.3,1.13-.37.49-.67,1.1-.89,1.81-.23.71-.36,1.53-.4,2.44.46.02.95.03,1.46.03h1.6Z"/><path class="cls-2" d="m232.4,69.34c-1.21,0-2.3.05-3.28.16-.98.11-1.82.22-2.52.35-.82.15-1.55.32-2.2.51l.45-2.49c.12.01.31.02.55.03.25.01.52.02.82.03.3.01.62.02.95.02.33,0,.65.01.95.02.3,0,.56.01.79.02.23,0,.4,0,.5,0h8.79c.1,0,.27,0,.5,0s.5-.01.79-.02c.3,0,.61-.01.95-.02.33,0,.65-.01.95-.02.3,0,.58-.02.82-.03.25,0,.43-.02.55-.03l.45,2.49c-.66-.18-1.4-.35-2.22-.51-.71-.12-1.55-.24-2.52-.35-.98-.11-2.07-.16-3.28-.16v14.7c0,.87.01,1.63.04,2.29.03.65.06,1.21.09,1.69.04.47.08.87.14,1.18.06.32.12.58.18.8v.06h-3.68v-.06c.06-.22.12-.48.17-.8.05-.32.1-.71.14-1.18.04-.47.07-1.03.09-1.69.02-.65.03-1.41.03-2.29v-14.7Z"/><path class="cls-2" d="m241.69,85.52c0-.81.17-1.51.5-2.11.33-.6.78-1.1,1.33-1.52s1.19-.76,1.89-1.02,1.44-.47,2.2-.62c.76-.15,1.51-.25,2.25-.31.74-.06,1.42-.09,2.03-.1v-.79c0-.68-.09-1.26-.26-1.75-.17-.49-.42-.9-.74-1.22-.32-.32-.7-.56-1.15-.72s-.94-.24-1.47-.24c-.37,0-.73.03-1.09.09-.36.06-.73.16-1.12.31-.38.14-.79.34-1.22.58s-.88.56-1.38.94l-.15-.09,1.05-2.17c.34-.15.67-.28,1-.38s.66-.18,1-.24c.34-.06.69-.1,1.04-.13.35-.03.73-.04,1.12-.04,1.08,0,2,.13,2.76.39.76.26,1.39.62,1.88,1.08.49.46.84.99,1.07,1.6.23.61.34,1.27.34,1.96v5.02c0,.87.01,1.63.04,2.29.03.65.06,1.21.09,1.69.04.47.08.87.14,1.18.06.32.12.58.18.8v.06h-3.4v-.06c.05-.16.09-.35.12-.55.03-.21.05-.45.07-.74-.22.18-.47.38-.76.57-.29.2-.63.37-1,.53s-.79.29-1.25.38c-.46.1-.96.15-1.5.15-1.79,0-3.17-.42-4.14-1.25-.98-.84-1.46-2.02-1.46-3.56Zm10.21-4.48c-.93.01-1.83.06-2.69.16s-1.62.3-2.29.61c-.66.31-1.19.75-1.59,1.32s-.59,1.33-.59,2.27c0,1.21.3,2.13.91,2.77.61.64,1.44.95,2.51.95.49,0,.94-.07,1.35-.21.41-.14.76-.31,1.08-.52s.58-.44.79-.69c.22-.25.38-.49.49-.73.02-.39.03-.82.03-1.3v-4.63Z"/><path class="cls-2" d="m259.47,73.07c0-.87-.01-1.63-.04-2.29-.03-.65-.06-1.21-.09-1.69-.04-.47-.08-.87-.14-1.19-.06-.32-.12-.58-.18-.8v-.06h3.56v.06c-.06.22-.12.48-.17.8-.05.32-.1.71-.14,1.19-.04.47-.07,1.03-.09,1.69-.02.65-.03,1.41-.03,2.29v10.98c0,.87,0,1.63.03,2.29.02.65.05,1.21.09,1.69.04.47.09.87.14,1.18.05.32.11.58.17.8v.06h-3.56v-.06c.06-.22.12-.48.18-.8.06-.32.1-.71.14-1.18.04-.47.07-1.03.09-1.69.03-.65.04-1.41.04-2.29v-10.98Z"/><path class="cls-2" d="m265.85,82.15c0-1.16.22-2.23.65-3.22.43-.99,1.02-1.85,1.78-2.58.75-.73,1.64-1.3,2.67-1.71,1.03-.41,2.13-.62,3.31-.62s2.25.19,3.27.58,1.91.93,2.67,1.64c.76.71,1.36,1.57,1.79,2.59.44,1.02.65,2.15.65,3.42,0,1.06-.18,2.07-.55,3.05-.37.97-.91,1.84-1.63,2.59-.72.75-1.6,1.35-2.64,1.79-1.04.45-2.24.67-3.59.67-1.15,0-2.23-.19-3.25-.57-1.02-.38-1.9-.92-2.66-1.63-.76-.71-1.36-1.57-1.8-2.58s-.66-2.15-.66-3.41Zm8.73,7.07c.73,0,1.4-.14,2.01-.43.61-.29,1.14-.7,1.58-1.25s.79-1.21,1.03-1.99c.25-.78.37-1.66.37-2.65,0-1.11-.12-2.14-.35-3.09s-.59-1.77-1.05-2.46c-.47-.69-1.05-1.23-1.76-1.62-.71-.39-1.53-.58-2.48-.58-.73,0-1.4.14-2,.42-.61.28-1.13.69-1.58,1.22s-.79,1.19-1.04,1.96-.37,1.65-.37,2.64c0,1.11.12,2.14.36,3.09s.6,1.78,1.07,2.49c.47.7,1.06,1.25,1.76,1.65.7.4,1.52.59,2.46.59Z"/><path class="cls-2" d="m296.84,79.68c0-1.35-.27-2.35-.82-2.99-.54-.64-1.27-.95-2.19-.95-.33,0-.7.07-1.11.21-.41.14-.83.32-1.26.55-.43.23-.86.5-1.29.81-.43.31-.84.64-1.22.99l-.03,2.02v3.73c0,.87,0,1.63.03,2.29.02.65.05,1.21.09,1.69.04.47.09.87.14,1.18.05.32.11.58.17.8v.06h-3.56v-.06c.06-.22.12-.48.18-.8.06-.32.1-.71.14-1.18.04-.47.07-1.03.09-1.69.03-.65.04-1.41.04-2.29v-3.73c0-.87-.01-1.63-.04-2.29-.03-.65-.06-1.21-.09-1.69-.04-.47-.08-.87-.14-1.19-.06-.32-.12-.58-.18-.8v-.06h3.56v.06c-.08.26-.15.58-.19.98-.05.4-.09.91-.15,1.55.42-.35.87-.7,1.36-1.05.49-.35.99-.66,1.52-.93s1.06-.49,1.6-.66c.54-.17,1.08-.25,1.6-.25.8,0,1.48.14,2.04.42.56.28,1.02.64,1.37,1.09.35.45.61.97.77,1.55s.24,1.17.24,1.76v5.23c0,.87,0,1.63.03,2.29.02.65.05,1.21.09,1.69.04.47.09.87.14,1.18.05.32.11.58.17.8v.06h-3.56v-.06c.06-.22.12-.48.18-.8.06-.32.1-.71.14-1.18.04-.47.07-1.03.09-1.69.03-.65.04-1.41.04-2.29v-4.36Z"/><path class="cls-2" d="m314.19,74.02c0-.87,0-1.63-.03-2.29-.02-.65-.05-1.22-.09-1.69s-.09-.87-.15-1.19c-.06-.32-.12-.58-.18-.8v-.06c.21.01.42.02.65.02.2.01.41.02.65.02h.75c.37,0,.87-.04,1.5-.11.63-.07,1.44-.11,2.44-.11.92,0,1.77.12,2.55.36s1.46.59,2.02,1.04,1.02,1.01,1.34,1.67c.32.66.49,1.41.49,2.26,0,.71-.1,1.34-.29,1.9-.19.56-.47,1.05-.82,1.46s-.78.76-1.28,1.05c-.5.28-1.04.51-1.64.67.87.13,1.67.36,2.39.67.72.31,1.34.71,1.86,1.18.52.47.92,1.02,1.2,1.66s.42,1.33.42,2.1c0,2.17-.71,3.79-2.14,4.87-1.43,1.08-3.56,1.62-6.4,1.62-.31,0-.67-.01-1.08-.04-.41-.03-.83-.05-1.25-.08-.43-.03-.84-.06-1.25-.08-.41-.03-.77-.04-1.08-.04h-1.02v-.06c.06-.22.12-.48.18-.8.06-.32.11-.71.15-1.18.04-.47.07-1.03.09-1.69.02-.65.03-1.41.03-2.29v-10.02Zm2.8,3.97c.29.03.54.05.77.05.23,0,.47,0,.72,0,.7,0,1.33-.1,1.91-.3.58-.2,1.06-.5,1.47-.9.41-.4.72-.9.95-1.5.23-.6.34-1.3.34-2.1,0-.67-.08-1.27-.25-1.82-.17-.54-.41-1.01-.73-1.39s-.72-.68-1.19-.89c-.47-.21-1.01-.31-1.62-.31-.39,0-.73.02-1.02.05-.29.03-.54.07-.75.11-.24.04-.44.09-.6.15v8.84Zm2.85,1.15c-.7,0-1.28.03-1.75.08-.47.05-.84.1-1.09.15v4.66c0,1.2.02,2.19.06,2.97.04.78.1,1.42.17,1.91.39.05.78.1,1.17.14.39.04.7.06.94.06,1.92,0,3.32-.43,4.21-1.29.89-.86,1.33-2.17,1.33-3.95,0-.7-.11-1.34-.32-1.92s-.52-1.08-.94-1.5c-.42-.42-.94-.75-1.57-.98-.63-.23-1.37-.35-2.21-.35Z"/><path class="cls-2" d="m331.85,80.32c0-.87-.01-1.63-.04-2.29-.03-.65-.06-1.21-.09-1.69-.04-.47-.08-.87-.14-1.19-.06-.32-.12-.58-.18-.8v-.06h3.56v.06c-.06.22-.12.48-.17.8-.05.32-.1.71-.14,1.19-.04.47-.07,1.03-.09,1.69-.02.65-.03,1.41-.03,2.29v3.73c0,.87,0,1.63.03,2.29.02.65.05,1.21.09,1.69.04.47.09.87.14,1.18.05.32.11.58.17.8v.06h-3.56v-.06c.06-.22.12-.48.18-.8.06-.32.1-.71.14-1.18.04-.47.07-1.03.09-1.69.03-.65.04-1.41.04-2.29v-3.73Zm-.32-10.68c0-.23.04-.44.13-.64.09-.2.2-.37.35-.52.14-.15.32-.27.52-.35.2-.09.42-.13.65-.13s.45.04.65.13c.2.09.38.21.52.35.15.15.27.32.35.52.09.2.13.41.13.64,0,.47-.16.87-.48,1.19-.32.32-.71.48-1.18.48-.24,0-.45-.04-.65-.13-.2-.09-.37-.21-.52-.35-.14-.15-.26-.32-.35-.52-.09-.2-.13-.42-.13-.65Z"/><path class="cls-2" d="m346.48,77.39l-.22.03c-.07-.24-.19-.49-.35-.75-.16-.27-.36-.51-.62-.74-.25-.23-.55-.41-.91-.56-.35-.15-.76-.22-1.22-.22-.32,0-.62.05-.9.14s-.53.23-.74.41c-.21.18-.38.4-.5.67-.12.27-.18.58-.18.94,0,.5.16.98.47,1.44.31.46.71.91,1.18,1.35.47.45.98.9,1.53,1.35.55.45,1.06.92,1.53,1.42.47.49.86,1.02,1.18,1.58s.47,1.16.47,1.81c0,.52-.09,1.03-.28,1.53-.18.5-.47.94-.85,1.33s-.88.71-1.48.95-1.32.36-2.15.36c-.49,0-.95-.05-1.38-.14-.43-.09-.82-.21-1.17-.35-.35-.14-.67-.29-.96-.46-.28-.17-.53-.33-.75-.48l.15-2.92h.25c.1.48.26.92.46,1.32.21.4.46.74.76,1.02s.65.5,1.04.66c.39.16.82.24,1.28.24.76,0,1.36-.21,1.81-.63.45-.42.67-.97.67-1.65,0-.54-.15-1.04-.45-1.5-.3-.46-.69-.9-1.15-1.32-.46-.42-.96-.84-1.49-1.26s-1.02-.87-1.49-1.35c-.46-.48-.84-1-1.15-1.57s-.45-1.22-.45-1.95c0-.6.11-1.14.33-1.64.22-.5.53-.92.92-1.28.39-.35.86-.63,1.41-.82.54-.19,1.14-.29,1.79-.29.85,0,1.56.09,2.13.27.57.18,1,.35,1.3.52l.15,2.56Z"/><path class="cls-2" d="m356.41,89.15c.31,0,.61-.06.92-.17.3-.11.6-.27.88-.46s.55-.42.82-.67c.26-.25.51-.52.73-.79l.15.08-1,2.48c-.12.06-.27.14-.45.22-.18.09-.4.17-.65.25-.25.08-.55.14-.88.2-.34.06-.74.08-1.2.08-1.38,0-2.45-.37-3.21-1.12-.76-.74-1.15-1.91-1.15-3.49v-10.27l-2.59.09v-1.35c.32.02.7.04,1.14.05.44.01.92.02,1.45.02,0-.73-.03-1.37-.05-1.93-.03-.56-.06-1.05-.09-1.46-.04-.42-.08-.77-.13-1.05-.05-.29-.1-.53-.15-.72v-.06h3.56v.06c-.06.2-.12.44-.17.72-.05.29-.1.64-.13,1.05-.04.41-.07.9-.09,1.45s-.04,1.21-.05,1.95c.65-.01,1.28-.02,1.9-.04.62-.02,1.18-.04,1.69-.06.51-.03.94-.05,1.29-.08.35-.03.59-.05.7-.07l-.28,1.57c-.52-.01-1.07-.03-1.65-.05-.49-.02-1.06-.04-1.69-.05-.64-.01-1.29-.02-1.97-.03v10.59c0,.64.07,1.15.21,1.55.14.4.32.71.54.93s.47.38.75.46.57.12.87.12Z"/><path class="cls-2" d="m363.09,80.32c0-.87-.01-1.63-.04-2.29-.03-.65-.06-1.21-.09-1.69-.04-.47-.08-.87-.14-1.19-.06-.32-.12-.58-.18-.8v-.06h3.56v.06c-.08.24-.15.52-.21.86-.06.34-.1.77-.13,1.31.38-.32.77-.63,1.18-.94.41-.31.83-.58,1.26-.82.43-.24.87-.43,1.32-.57.45-.14.89-.22,1.35-.22.28,0,.52.01.72.04.21.03.39.06.55.11.16.05.31.1.45.15.13.06.26.11.38.16l-.75,2.94-.26-.06c-.12-.45-.35-.81-.69-1.08-.34-.27-.8-.41-1.39-.41-.32,0-.65.06-1,.17-.35.11-.7.27-1.06.47-.36.2-.72.43-1.08.69s-.71.54-1.05.82c-.02.3-.03.62-.03.97v5.08c0,.87,0,1.63.03,2.29.02.65.05,1.21.09,1.69.04.47.09.87.14,1.18.05.32.11.58.17.8v.06h-3.56v-.06c.06-.22.12-.48.18-.8.06-.32.1-.71.14-1.18.04-.47.07-1.03.09-1.69.03-.65.04-1.41.04-2.29v-3.73Z"/><path class="cls-2" d="m374.32,82.15c0-1.16.22-2.23.65-3.22.43-.99,1.02-1.85,1.78-2.58.75-.73,1.64-1.3,2.67-1.71,1.03-.41,2.13-.62,3.31-.62s2.25.19,3.27.58,1.91.93,2.67,1.64c.76.71,1.36,1.57,1.79,2.59.44,1.02.65,2.15.65,3.42,0,1.06-.18,2.07-.55,3.05-.37.97-.91,1.84-1.63,2.59-.72.75-1.6,1.35-2.64,1.79-1.04.45-2.24.67-3.59.67-1.15,0-2.23-.19-3.25-.57-1.02-.38-1.9-.92-2.66-1.63-.76-.71-1.36-1.57-1.8-2.58s-.66-2.15-.66-3.41Zm8.73,7.07c.73,0,1.4-.14,2.01-.43.61-.29,1.14-.7,1.58-1.25s.79-1.21,1.03-1.99c.25-.78.37-1.66.37-2.65,0-1.11-.12-2.14-.35-3.09s-.59-1.77-1.05-2.46c-.47-.69-1.05-1.23-1.76-1.62-.71-.39-1.53-.58-2.48-.58-.73,0-1.4.14-2,.42-.61.28-1.13.69-1.58,1.22s-.79,1.19-1.04,1.96-.37,1.65-.37,2.64c0,1.11.12,2.14.36,3.09s.6,1.78,1.07,2.49c.47.7,1.06,1.25,1.76,1.65.7.4,1.52.59,2.46.59Z"/><path class="cls-1" d="m170.79,138.42h-5.79v-30.45h-10.42v-4.97h26.62v4.97h-10.42v30.45Z"/><path class="cls-1" d="m214.64,103.01v22.92c0,2.62-.56,4.91-1.68,6.87s-2.75,3.47-4.87,4.53c-2.12,1.06-4.66,1.59-7.62,1.59-4.39,0-7.81-1.16-10.25-3.49-2.44-2.33-3.66-5.52-3.66-9.59v-22.82h5.81v22.41c0,2.92.68,5.08,2.03,6.47s3.44,2.08,6.25,2.08c5.46,0,8.19-2.87,8.19-8.6v-22.36h5.79Z"/><path class="cls-1" d="m229.74,124.28v14.15h-5.79v-35.42h10c4.57,0,7.95.86,10.15,2.57,2.2,1.71,3.29,4.3,3.29,7.75,0,4.41-2.29,7.55-6.88,9.42l10,15.67h-6.59l-8.48-14.15h-5.72Zm0-4.8h4.02c2.7,0,4.65-.5,5.86-1.5,1.21-1,1.82-2.49,1.82-4.46s-.65-3.44-1.96-4.31c-1.31-.87-3.28-1.31-5.91-1.31h-3.83v11.58Z"/><path class="cls-1" d="m282.93,138.42h-6.71l-11.12-16.04-3.41,2.79v13.25h-5.79v-35.42h5.79v16.91c1.58-1.94,3.16-3.8,4.72-5.6l9.57-11.31h6.59c-6.18,7.27-10.62,12.44-13.3,15.53l13.66,19.89Z"/><path class="cls-1" d="m307.89,138.42h-20.03v-35.42h20.03v4.89h-14.24v9.64h13.35v4.84h-13.35v11.12h14.24v4.92Z"/><path class="cls-1" d="m325.8,119.17l8.38-16.16h6.3l-11.8,21.68v13.73h-5.81v-13.54l-11.75-21.87h6.3l8.38,16.16Z"/><path class="cls-1" d="m370.77,138.42h-5.79v-30.45h-10.42v-4.97h26.62v4.97h-10.42v30.45Z"/><path class="cls-1" d="m392.65,124.28v14.15h-5.79v-35.42h10c4.57,0,7.95.86,10.15,2.57s3.29,4.3,3.29,7.75c0,4.41-2.29,7.55-6.88,9.42l10,15.67h-6.59l-8.48-14.15h-5.72Zm0-4.8h4.02c2.7,0,4.65-.5,5.86-1.5s1.82-2.49,1.82-4.46-.65-3.44-1.96-4.31c-1.31-.87-3.28-1.31-5.91-1.31h-3.83v11.58Z"/><path class="cls-1" d="m450.26,120.67c0,5.77-1.44,10.25-4.32,13.44s-6.96,4.8-12.25,4.8-9.45-1.59-12.32-4.76-4.3-7.68-4.3-13.53,1.44-10.34,4.32-13.47,7-4.7,12.34-4.7,9.33,1.59,12.21,4.77c2.87,3.18,4.31,7.66,4.31,13.44Zm-27.03,0c0,4.36.88,7.67,2.64,9.92,1.76,2.25,4.37,3.38,7.82,3.38s6.04-1.11,7.79-3.34,2.63-5.55,2.63-9.96-.87-7.64-2.6-9.88c-1.74-2.25-4.32-3.37-7.76-3.37s-6.09,1.12-7.86,3.37c-1.77,2.24-2.65,5.54-2.65,9.88Z"/><path class="cls-1" d="m470.34,138.42h-5.79v-30.45h-10.42v-4.97h26.62v4.97h-10.42v30.45Z"/></svg>