<svg width="35" height="35" viewBox="0 0 35 35" fill="none" xmlns="http://www.w3.org/2000/svg">
<path d="M29.1667 5.83325H5.83341C4.22925 5.83325 2.93133 7.14575 2.93133 8.74992L2.91675 26.2499C2.91675 27.8541 4.22925 29.1666 5.83341 29.1666H29.1667C30.7709 29.1666 32.0834 27.8541 32.0834 26.2499V8.74992C32.0834 7.14575 30.7709 5.83325 29.1667 5.83325ZM28.5834 12.0312L18.273 18.477C17.8063 18.7687 17.1938 18.7687 16.7272 18.477L6.41675 12.0312C6.27052 11.9491 6.14246 11.8382 6.04034 11.7052C5.93821 11.5722 5.86413 11.4198 5.82259 11.2573C5.78104 11.0949 5.7729 10.9257 5.79864 10.7599C5.82439 10.5942 5.88349 10.4355 5.97237 10.2933C6.06125 10.1511 6.17805 10.0284 6.31572 9.93262C6.45339 9.83686 6.60906 9.77004 6.7733 9.73619C6.93755 9.70234 7.10695 9.70216 7.27127 9.73568C7.43558 9.76919 7.59138 9.8357 7.72925 9.93117L17.5001 16.0416L27.2709 9.93117C27.4088 9.8357 27.5646 9.76919 27.7289 9.73568C27.8932 9.70216 28.0626 9.70234 28.2269 9.73619C28.3911 9.77004 28.5468 9.83686 28.6844 9.93262C28.8221 10.0284 28.9389 10.1511 29.0278 10.2933C29.1167 10.4355 29.1758 10.5942 29.2015 10.7599C29.2273 10.9257 29.2191 11.0949 29.1776 11.2573C29.136 11.4198 29.062 11.5722 28.9598 11.7052C28.8577 11.8382 28.7296 11.9491 28.5834 12.0312Z" fill="#6A8FB1"/>
</svg>
