<?xml version="1.0" encoding="utf-8"?>
<!-- Generator: Adobe Illustrator 28.1.0, SVG Export Plug-In . SVG Version: 6.00 Build 0)  -->
<svg version="1.1" id="Layer_1" xmlns="http://www.w3.org/2000/svg" xmlns:xlink="http://www.w3.org/1999/xlink" x="0px" y="0px"
	 viewBox="0 0 378 378" style="enable-background:new 0 0 378 378;" xml:space="preserve">
<style type="text/css">
	.st0{fill:#511624;}
</style>
<g>
	<path class="st0" d="M378,378c-126,0-252,0-378,0C0,252,0,126,0,0c126,0,252,0,378,0C378,126,378,252,378,378z M266.53,256.73
		c-0.23,0.54-0.31,0.85-0.48,1.1c-0.81,1.19-1.56,2.45-2.49,3.54c-1.49,1.73-3.11,3.35-4.68,5.01c-1.67,1.76-3.24,3.64-5.07,5.21
		c-7.64,6.57-15.3,13.12-23.07,19.55c-11.98,9.92-24.37,19.28-37.62,27.46c-0.16,0.1-0.32,0.19-0.47,0.31
		c-0.82,0.67-0.85,1.42-0.05,2.09c1.03,0.86,2.23,1.34,3.53,1.62c2.31,0.5,4.65,0.36,6.97,0.1c0.91-0.1,1.86-0.27,2.7-0.63
		c7.77-3.33,15.31-7.12,22.67-11.26c15.29-8.6,29.62-18.62,43.33-29.52c4.38-3.48,8.65-7.11,13.07-10.55
		c7.47-5.81,14.3-12.27,20.44-19.47c8.49-9.96,15.49-20.9,21.5-32.5c7.06-13.61,12.91-27.72,17.54-42.34
		c1.18-3.71,1.99-7.48,1.8-11.41c-0.04-0.82-0.17-1.58-0.67-2.23c-1.38-1.82-2.68-3.71-4.19-5.42c-3.06-3.48-6.77-6.27-10.32-9.22
		c-1.28-1.07-2.47-1.14-3.84-0.5c-0.67,0.31-1.35,0.66-1.94,1.11c-2.15,1.66-4.15,3.45-5.39,5.96c-0.7,1.42-1.55,2.76-2.34,4.14
		c-6.35,11.15-12.88,22.2-20.1,32.81c-7.85,11.52-16.48,22.39-26.44,32.18c-0.83,0.82-1.63,1.68-2.54,2.41
		c-1.92,1.55-3.88,3.06-5.87,4.52c-0.9,0.66-1.85,1.29-2.87,1.71c-0.74,0.31-1.64,0.43-2.44,0.35c-1.82-0.17-2.61-1.15-2.57-2.95
		c0.01-0.42,0.05-0.84,0.1-1.25c0.45-3.45,1.96-6.5,3.69-9.45c2.36-4.02,4.81-7.99,7.16-12.02c4.16-7.13,8.12-14.38,12.74-21.24
		c2.78-4.14,5.97-8,8.4-12.38c1.04-1.87,2.21-3.68,3.23-5.56c1.16-2.15,2-4.42,2.27-6.87c0.28-2.6,0.16-5.11-1.49-7.34
		c-0.91-1.23-1.66-2.6-2.51-3.87c-2.24-3.34-4.64-6.55-7.6-9.3c-2.52-2.35-5.36-4.18-8.65-5.29c-1.09-0.37-2.09-0.3-3.12,0.13
		c-1.65,0.67-2.97,1.78-4.03,3.16c-2.04,2.66-4.06,5.35-5.99,8.09c-1.37,1.94-2.58,4-3.85,6.01c-7.36,11.64-14.42,23.44-20.47,35.83
		c-7.06,14.44-12.54,29.42-15.43,45.28c-0.32,1.79-0.65,3.55-0.3,5.41c0.84,4.47,2.85,8.36,5.52,11.96
		c2.79,3.77,6.18,6.98,9.52,10.24c2.35,2.3,5.15,3.22,8.31,2.84c4.45-0.53,8.82-1.53,13.02-3.13c3.05-1.16,6.05-2.44,9.09-3.65
		C264.9,257.22,265.61,257.03,266.53,256.73z M259.24,84c0.02-4.25,0.04-4.69-2.26-8.43c-3.25-5.3-8.05-8.99-13.15-12.33
		c-0.95-0.62-2.11-1.06-3.23-1.24c-2.65-0.44-4.92,0.21-6.61,2.56c-9.57,13.33-17.93,27.39-25.44,41.96
		c-10.71,20.79-20.05,42.2-28.55,63.97c-7.1,18.19-13.02,36.73-16.68,55.94c-1.46,7.65-2.5,15.37-3.23,23.12
		c-0.21,2.22,0.21,4.26,1.04,6.26c0.32,0.78,0.66,1.54,1.05,2.29c1.91,3.69,4.56,6.8,7.48,9.71c2.23,2.21,4.86,3.76,7.8,4.8
		c2.15,0.76,4.36,0.96,6.6,0.35c0.76-0.21,1.3-0.59,1.63-1.36c0.98-2.27,2.08-4.48,3.06-6.75c4.13-9.56,7.4-19.43,10.68-29.29
		c2.4-7.21,4.65-14.48,7.36-21.57c4.94-12.93,10.1-25.79,15.31-38.62c8.16-20.09,16.87-39.95,26.3-59.48
		c2.23-4.62,4.55-9.19,6.65-13.87C257.55,96.45,259.1,90.61,259.24,84z M97.38,240.21c0.09,1.91,0.15,3.82,0.27,5.73
		c0.34,5.4,1.58,10.59,3.66,15.59c0.7,1.68,1.71,3.12,3.07,4.27c1.1,0.93,2.28,1.79,3.52,2.51c2.61,1.52,5.5,2.23,8.44,2.85
		c1.61,0.34,2.89-0.06,3.93-1.19c0.91-0.99,1.79-2.05,2.45-3.21c2.35-4.15,4.16-8.55,5.82-13.01c2.51-6.78,4.4-13.76,6.49-20.68
		c1.88-6.2,3.6-12.47,5.93-18.5c5.58-14.44,11.39-28.79,17.25-43.11c11.48-28.06,23.69-55.79,37.26-82.92
		c1.43-2.85,1.88-5.85,1.54-8.97c-0.63-5.8-3.12-10.8-6.79-15.24c-1.9-2.3-3.95-4.48-5.92-6.72c-2.32-2.64-2.31-2.64-5.86-2.57
		c-0.23,0-0.47,0.01-0.7,0.03c-1.39,0.07-2.67,0.46-3.72,1.41c-1.45,1.31-2.98,2.56-4.29,4.01c-4.01,4.4-7.34,9.33-10.23,14.49
		c-3.95,7.03-7.58,14.24-11.17,21.47c-9.97,20.11-18.78,40.73-26.86,61.66c-4.9,12.7-9.96,25.34-13.9,38.39
		c-2.33,7.72-4.76,15.41-6.94,23.17C98.76,226.36,97.68,233.23,97.38,240.21z M56.35,270.47c1.68,0,3.36-0.04,5.04,0.02
		c0.91,0.03,1.47-0.34,1.97-1.04c1.81-2.47,3.11-5.19,4.18-8.04c2.16-5.78,3.66-11.74,5.22-17.7c4.69-17.88,10.59-35.36,17.04-52.68
		c2.26-6.07,4.84-12.02,6.76-18.22c2.14-6.9,4.48-13.74,6.64-20.64c1.44-4.59,2.33-9.31,3.21-14.03c0.47-2.52-0.05-4.58-1.62-6.48
		c-0.57-0.68-1.1-1.39-1.71-2.03c-0.58-0.6-1.22-1.16-1.86-1.69c-3.59-2.93-7.58-3.56-11.96-2.1c-3.54,1.18-6.48,3.26-9.08,5.87
		c-3.65,3.66-6.65,7.83-9.12,12.34c-5.54,10.13-10.09,20.72-13.93,31.58c-3.9,11.03-7.52,22.16-11.24,33.25
		c-1.84,5.48-3.69,10.96-5.43,16.47c-1.97,6.24-3.43,12.59-3.65,19.18c-0.25,7.56,1.39,14.61,5.45,21.07c1.59,2.53,3.85,4,6.72,4.6
		C51.41,270.72,53.88,270.79,56.35,270.47z M134.83,77.08c0.05-3.37-0.57-6.59-1.86-9.69c-0.51-1.23-1.19-2.34-2.31-3.1
		c-2.24-1.54-4.72-2.23-7.42-1.78c-2.82,0.47-5.52,1.35-8.08,2.62c-9.31,4.64-15.97,11.83-20.09,21.33
		c-2.17,5.01-2.63,10.29-1.31,15.62c1.86,7.51,7.86,11.78,15.4,11.09c0.96-0.09,1.81-0.35,2.56-0.98c1.42-1.21,2.91-2.33,4.3-3.58
		c4.03-3.62,7.61-7.68,11.19-11.73C132.22,91.22,134.57,84.55,134.83,77.08z M322.42,265.67c-6.21-0.04-11.31,4.92-11.36,11.06
		c-0.06,6.23,4.99,11.38,11.19,11.41c6.16,0.03,11.24-5,11.27-11.16C333.55,270.77,328.59,265.72,322.42,265.67z"/>
	<path class="st0" d="M322.29,267.18c5.35-0.01,9.72,4.33,9.74,9.66c0.02,5.35-4.3,9.74-9.63,9.78c-5.39,0.05-9.82-4.35-9.81-9.75
		C312.6,271.52,316.93,267.19,322.29,267.18z M324.33,277.56c0.68-0.17,1.14-0.26,1.57-0.41c1.02-0.36,1.76-1.01,2.06-2.1
		c0.63-2.26-0.6-4.18-2.99-4.36c-2.09-0.15-4.19-0.09-6.28-0.1c-0.17,0-0.34,0.12-0.52,0.18c0,4.11,0,8.19,0,12.3
		c0.55,0,0.99,0,1.61,0c0-1.88,0-3.67,0-5.51c0.54-0.04,0.91-0.05,1.27-0.1c1-0.15,1.64,0.22,2.12,1.13
		c0.65,1.23,1.44,2.39,2.19,3.57c0.72,1.16,0.76,1.16,2.47,0.79C326.68,281.17,325.55,279.43,324.33,277.56z"/>
	<path class="st0" d="M319.85,276.04c0-1.41,0-2.65,0-3.89c1.02-0.35,4.34-0.38,5.23-0.06c0.88,0.32,1.29,0.87,1.32,1.77
		c0.03,0.96-0.38,1.62-1.26,1.96c-0.3,0.12-0.63,0.21-0.95,0.21C322.8,276.05,321.41,276.04,319.85,276.04z"/>
</g>
</svg>
