<?xml version="1.0" encoding="utf-8"?>
<!-- Generator: Adobe Illustrator 28.1.0, SVG Export Plug-In . SVG Version: 6.00 Build 0)  -->
<svg version="1.1" id="Layer_1" xmlns="http://www.w3.org/2000/svg" xmlns:xlink="http://www.w3.org/1999/xlink" x="0px" y="0px"
	 viewBox="0 0 430.04 239.1" style="enable-background:new 0 0 430.04 239.1;" xml:space="preserve">
<style type="text/css">
	.st0{fill:#511624;}
</style>
<g>
	<path class="st0" d="M166.64,84.05c-14.73-11.6-31.98-15.91-50.13-17.37c-21.17-1.7-38.71,6.68-55.1,19.31
		c-31.34,24.15-37.27,74.04-11.92,107.18c20.02,26.17,66.43,42.7,100.2,24.78c0.84-0.45,1.75-0.76,3.7-1.6
		c-4.74,7.21-8.78,13.6-13.13,19.77c-0.8,1.13-2.78,1.81-4.3,1.99c-40.7,4.82-75.42-7.89-103.06-37.72
		C17.71,184,4.71,165.27,1.57,142.35c-3.83-28.03-1.58-55.6,17.06-78.65c17.62-21.78,41.19-31.58,69.38-30.85
		c27.35,0.71,50.25,10.65,68.08,31.38c4.76,5.54,8.1,12.31,12.09,18.51C167.67,83.19,167.16,83.62,166.64,84.05z"/>
	<path class="st0" d="M430.04,110.41c-6.18,18.59-12.05,36.21-17.91,53.83c-1.68,5.04-3.62,10.01-4.96,15.14
		c-1,3.82-3.02,4.72-6.76,4.69c-24.25-0.16-48.5-0.1-72.75-0.07c-4.49,0.01-9.46,1.47-13.36,0.01c-6.81-2.55-12.88-1.04-19.46,0.07
		c-6.56,1.1-13.32,0.81-19.19-3.42c-0.75-0.54-2.33-0.76-3.09-0.33c-8.02,4.48-16.77,3.6-25.39,3.66c-4.29,0.03-8.58,0-13.7,0
		c1.52-4.59,2.97-8.41,4-12.34c0.4-1.52-0.16-3.28-0.28-4.93c-2.48,0.4-5.15,0.37-7.36,1.36c-1.17,0.52-1.57,2.8-2.29,4.3
		c-6.95,14.51-15.24,28.09-27.44,38.89c-1.1,0.98-2.27,1.88-4.32,2.41c0.51-1.37,1.02-2.75,1.54-4.12c2.58-6.84,5.1-13.7,7.77-20.5
		c1.32-3.38,0.61-5.07-3.27-5.06c-14.65,0.05-29.3-0.04-43.95,0.13c-1.45,0.02-3,1.22-4.31,2.15
		c-20.78,14.87-48.76,12.15-65.21-6.38c-16.43-18.51-15.98-46.83,1.04-65.61c19.53-21.56,57.82-18.82,74.24,5.52
		c2.58,3.82,4.7,5.03,9.21,3.4c3.32-1.2,7.38-1.69,10.8-0.99c9.35,1.9,18.58-0.93,27.84,0.05c3.97,0.42,5.18-1.34,5.18-5.21
		c-0.02-40.63-18.16-71.95-50.1-95.59c-11.27-8.34-24.02-14.69-36.2-22.01c2.37,0.16,5.03,0.26,7.67,0.54
		c2.98,0.31,5.95,0.7,8.91,1.18c2.79,0.46,5.58,0.98,8.32,1.65c36.09,8.78,59.49,32.31,75.16,64.78c11,22.79,14.33,46.55,8.99,71.41
		c-0.47,2.17-2.51,5.11,1.44,6.1c3.58,0.9,5.83-0.52,7-4.34c2.67-8.73,5.88-17.29,8.56-26.02c0.97-3.16,2.2-4.66,5.8-4.43
		c5.48,0.35,11-0.1,16.49,0.14c7.43,0.33,14.31,1.77,17.04,10.26c0.29,0.91,2.49,1.58,3.86,1.7c5.58,0.48,11.18,0.87,16.78,0.96
		c2.49,0.04,5-1.06,7.5-1.09c17.49-0.17,34.98-0.19,52.47-0.26c0.67,0,1.41-0.18,1.99,0.06c5.9,2.37,11.66,1.17,17.7,0.23
		c4.19-0.65,6.59-1.81,7.19-5.81c0.77-5.12,3.51-6.65,8.56-6.22C417.57,110.79,423.42,110.41,430.04,110.41z M96.76,181.76
		c12.31,0,23.61,0.11,34.9-0.16c1.17-0.03,2.81-2.06,3.34-3.49c2.71-7.33,5.03-14.8,7.73-22.13c0.53-1.43,1.98-3.25,3.29-3.52
		c2.63-0.55,5.45-0.16,8.86-0.16c-1.52,4.67-3.29,8.35-3.88,12.21c-1.78,11.69,0.16,17.92,11.75,17.72c4.61-0.08,9.2-1.42,13.79-1.4
		c10.24,0.06,20.48,0.53,30.72,1.01c5.22,0.25,8.84-1.04,9.74-6.96c0.42-2.72,1.7-5.41,3.05-7.86c0.66-1.2,2.33-2.52,3.61-2.58
		c5.79-0.27,11.6-0.12,17.79-0.12c-1.79,6-3.45,11.61-5.37,18.06c13.79-1.03,26.99,2.72,38.7-5.21c5.98,6.77,18.58,7.14,29.62,2.03
		c5.62,1.29,9.46,2.88,13.33,2.94c12.49,0.19,24.99-0.55,37.47-0.2c9.16,0.26,18.23-1.7,27.52,0.27c5.52,1.17,11.57-0.37,17.38-0.33
		c3.05,0.02,4.36-1.17,5.28-3.98c6.72-20.39,13.61-40.73,20.4-61.1c0.4-1.2,0.48-2.52,0.8-4.26c-4.4,0-8.44,0.43-12.34-0.1
		c-5.94-0.81-9.1,1.4-9.88,7.26c-0.5,3.72-2.89,4.11-6.28,4.59c-7.09,1-14.04,3.14-21.07-0.15c-0.41-0.19-0.99-0.03-1.49-0.03
		c-16.49,0.09-32.99,0.1-49.48,0.36c-2.26,0.04-4.49,1.33-7.53,2.29c-7.11-4.25-15.65-3.06-24.18-1.33
		c-2.47-11.37-4.72-13.09-16.95-13.1c-4.83,0-9.67,0.18-14.49-0.06c-3.06-0.15-4.32,1.02-5.2,3.88c-2.79,9-5.8,17.93-9.01,26.79
		c-0.62,1.7-2.46,4.05-3.9,4.17c-5.86,0.47-11.78,0.2-18.2,0.2c1.38-4.35,3.17-7.92,3.47-11.62c0.24-2.96-0.58-6.59-2.27-8.98
		c-2.17-3.1-5.99-3.08-9.56-1.65c-1.05,0.42-2.24,0.88-3.32,0.79c-4.71-0.39-9.39-1.23-14.1-1.37c-2.09-0.06-4.22,1.15-7.52,2.14
		c-8.32-3.42-17.93-4.08-25.17,0.22c-6.56-1.14-11.09-2.25-15.67-2.64c-4.74-0.4-9.54-0.09-14.68-0.09c1.05-3.95,2-7.51,3.08-11.59
		c-6.11,0-11.44,0.23-16.74-0.08c-3.53-0.21-4.91,1.23-5.95,4.41c-5.98,18.36-12.16,36.65-18.26,54.97
		C98.94,174.8,98.02,177.8,96.76,181.76z"/>
	<path class="st0" d="M276.88,219.76c2.95-8.05,5.76-15.86,8.67-23.62c2.23-5.95,7.01-2.04,11.04-3.26c0,4.59,0,8.59,0,12.58
		c0.45,0.23,0.9,0.46,1.35,0.69c1.47-2.14,3.03-4.22,4.39-6.42c4.72-7.64,4.7-7.65,14.74-6.13c-3.17,8.62-6.13,17.15-9.62,25.47
		c-0.45,1.08-3.65,1.02-6.54,1.71c1.82-5.31,3.27-9.52,5.14-14.95c-7.66,3.95-7.08,14.24-16.81,14.57c0-5.14,0-9.64,0-14.14
		c-0.59-0.14-1.19-0.29-1.78-0.43c-1.32,3.54-2.83,7.02-3.91,10.62C282.55,219.82,280.75,221.13,276.88,219.76z"/>
	<path class="st0" d="M170.8,218.23c0.89-3.18,1.78-6.36,2.79-9.99c1.77,0,4.15,0,7.24,0c-1.33,3.72-2.43,6.97-3.68,10.16
		c-0.26,0.67-1.05,1.6-1.62,1.62c-4.15,0.15-8.33,0.27-12.47,0.04c-2.86-0.16-4.11-1.78-3-4.79c2-5.45,3.79-10.99,5.83-16.43
		c2.01-5.34,14.16-8.66,18.59-5.05c0.66,0.53,1.05,2.23,0.7,2.98c-0.76,1.63-1.86,3.3-3.27,4.34c-0.85,0.63-2.54,0.12-4.25,0.12
		c0.29-1.45,0.7-2.53,0.65-3.59c-0.05-0.85-0.48-2.13-1.08-2.38c-0.61-0.25-2.19,0.34-2.4,0.91c-2.44,6.63-4.73,13.33-6.95,20.04
		c-0.13,0.38,0.65,1.06,1,1.6C169.52,217.96,170.16,218.09,170.8,218.23z"/>
	<path class="st0" d="M222.27,219.53c5.31-8.01,3.73-16.79,2.61-26.02c2.33,0,4.34,0,6.51,0c0.54,2.73,1.09,5.5,1.69,8.52
		c5.59-2.35,6.31-10.96,14.66-8.4c-3.54,4-7.01,7.5-9.98,11.4c-2.37,3.11-4.79,6.47-5.97,10.11
		C230.2,220.06,227.57,221.33,222.27,219.53z"/>
	<path class="st0" d="M242.1,177.78c1.98-6.1,3.58-11.13,5.26-16.14c4.64-13.86,9.38-27.69,13.89-41.6
		c0.93-2.86,2.25-4.03,5.29-3.79c5.45,0.43,10.98,0.17,16.37,0.95c5.84,0.85,7.79,4.53,5.98,10.1c-2.3,7.11-3.92,14.77-14.22,17.07
		c9,4.05,5.55,9.59,3.91,15.05c-2.42,8.04-5.3,15.61-14.76,17.55c-3.06,0.63-6.26,0.68-9.4,0.78
		C250.62,177.88,246.82,177.78,242.1,177.78z M257.83,170.67c2.31-1.15,3.81-1.4,4.09-2.12c2.28-5.98,4.39-12.03,6.37-18.11
		c0.17-0.51-0.82-1.62-1.52-2.08c-0.27-0.18-1.61,0.56-1.8,1.11C262.66,156.08,260.48,162.73,257.83,170.67z M273.59,123.34
		c-2.07,6.34-3.86,11.81-5.87,17.98C273.76,138.84,277.54,127.96,273.59,123.34z"/>
	<path class="st0" d="M405.51,128.66c1.39-8.9,4.63-15.67,15.99-11.62c-0.39,1.4-0.77,3.08-1.31,4.71
		c-5.62,16.88-11.6,33.66-16.74,50.69c-1.7,5.63-4.74,6.21-9.43,5.79c-2.67-0.24-5.4,0.14-8.1,0.12c-2.48-0.02-5.07,0.23-7.4-0.42
		c-3.48-0.96-5.3-3.48-4.04-7.27c4.02-12.15,7.98-24.33,12.25-36.4c1.7-4.81,7.16-7.19,13.32-6.49
		C401.67,127.96,403.27,128.3,405.51,128.66z M387.99,170.78c3.91-1,14.25-27.86,13.78-34.92
		C398.05,136.4,387.88,161.86,387.99,170.78z"/>
	<path class="st0" d="M356.73,178.19c4.72-14.31,9.25-28.06,13.78-41.81c-0.68-0.38-1.35-0.77-2.03-1.15
		c-1.18,1.52-2.86,2.86-3.46,4.58c-3.68,10.51-7.46,21.01-10.48,31.72c-1.56,5.53-4.2,7.72-9.76,6.7c-1.44-0.26-2.97-0.04-5.08-0.04
		c3.09-9.26,6.03-18.05,8.96-26.84c2.1-6.31,4.32-12.59,6.19-18.96c0.94-3.19,2.35-4.62,5.91-4.43c4.91,0.27,9.86-0.08,14.79-0.26
		c7.13-0.26,9.42,2.66,7.2,9.41c-3.9,11.84-8.09,23.59-11.67,35.53c-1.34,4.48-3.38,6.35-7.99,5.61
		C361.18,177.94,359.19,178.19,356.73,178.19z"/>
	<path class="st0" d="M199.41,178.19c4.76-14.46,9.25-28.07,13.73-41.69c-0.63-0.41-1.26-0.82-1.89-1.23
		c-1.23,1.6-2.97,3.01-3.6,4.82c-3.63,10.36-6.98,20.81-10.45,31.22c-2.38,7.17-2.39,7.17-10,6.97c-1.32-0.04-2.63-0.2-4.59-0.35
		c1.13-3.53,2.13-6.8,3.21-10.04c3.98-11.99,8.05-23.96,11.94-35.98c0.89-2.75,2.15-4.06,5.25-3.92c5.6,0.25,11.21-0.06,16.81,0.13
		c5.91,0.2,7.4,2.43,5.62,7.96c-3.92,12.17-8.15,24.26-11.69,36.54c-1.33,4.62-3.44,6.31-8.01,5.62
		C203.98,177.97,202.13,178.19,199.41,178.19z"/>
	<path class="st0" d="M336.62,128.05c-3.98,12.02-7.67,23.19-11.36,34.35c-0.37,1.1-1,2.19-1.06,3.3c-0.1,1.72,0.18,3.46,0.3,5.19
		c1.23-1.35,3.03-2.49,3.58-4.08c3.8-10.81,7.58-21.64,10.84-32.61c1.41-4.75,3.5-7.12,8.63-6.2c1.72,0.31,3.54,0.05,6.02,0.05
		c-3.39,10.19-6.53,19.62-9.66,29.05c-1.94,5.83-3.96,11.63-5.75,17.51c-0.79,2.6-2.02,3.73-4.91,3.66
		c-5.58-0.13-11.18,0.28-16.77,0.29c-6.31,0.01-8.23-2.58-6.29-8.47c4-12.15,8.31-24.19,12.03-36.42c1.35-4.46,3.38-6.4,8.01-5.65
		C331.97,128.29,333.82,128.05,336.62,128.05z"/>
	<path class="st0" d="M163.65,178.59c-0.37-0.03-2.22-0.06-4.01-0.38c-5.52-1.01-7.65-3.89-6.02-9.18
		c3.32-10.79,6.81-21.54,10.68-32.15c2.53-6.92,12.71-10.97,20.78-8.9c9.05,2.32,10.07,4.16,7.15,12.93
		c-2.68,8.03-5.35,16.07-8.04,24.1C180.63,175.64,176.49,178.58,163.65,178.59z M180.82,135.37c-4.34,1.44-13.87,25.83-13.93,35.52
		c1.64-0.98,3.43-2.2,4.02-3.84c3.23-9.04,6.19-18.18,9.19-27.3C180.47,138.58,180.51,137.29,180.82,135.37z"/>
	<path class="st0" d="M288.68,178.58c-0.38-0.04-2.23-0.04-4.01-0.41c-4.87-1.01-7.13-4.41-5.62-9.19
		c3.24-10.3,6.49-20.62,10.28-30.72c3.52-9.37,17.31-13.71,26.16-8.78c2.94,1.63,4.02,4.09,3.02,7.11
		c-3.78,11.51-7.42,23.09-11.75,34.39C304.62,176.58,298.97,178.59,288.68,178.58z M306.5,136.31c-0.61-0.4-1.22-0.81-1.83-1.21
		c-1.05,0.6-2.76,0.98-3.05,1.83c-3.79,11.04-7.37,22.15-11.01,33.25c0.43,0.27,0.86,0.54,1.29,0.81c0.96-0.39,2.54-0.55,2.78-1.19
		C298.72,158.67,302.59,147.48,306.5,136.31z"/>
	<path class="st0" d="M145.9,148.06c1.21-4.17,2.32-8.01,3.43-11.85c-0.66-0.34-1.32-0.68-1.98-1.03c-1.13,1.6-2.71,3.04-3.33,4.81
		c-3.74,10.66-7.55,21.32-10.74,32.15c-1.43,4.84-3.61,6.99-8.66,6.1c-1.73-0.31-3.57-0.05-5.97-0.05
		c5.47-16.31,10.69-32.04,16.1-47.72c0.35-1.02,2.03-2.15,3.16-2.22c5.75-0.37,11.51-0.45,17.27-0.54c6.61-0.1,8.67,2.75,6.66,9.1
		c-0.3,0.95-0.61,1.9-0.93,2.84C157.59,149.64,157.59,149.64,145.9,148.06z"/>
	<path class="st0" d="M101.81,178.19c2.81-8.54,5.43-16.56,8.1-24.57c3.52-10.56,7.34-21.03,10.48-31.69
		c1.33-4.5,3.33-6.41,7.99-5.74c2.26,0.33,4.61,0.06,7.62,0.06c-0.67,2.39-1.12,4.26-1.73,6.08c-5.68,17.02-11.53,33.98-16.98,51.07
		c-1.26,3.94-3.11,5.33-7.06,4.86C107.65,177.94,104.99,178.19,101.81,178.19z"/>
	<path class="st0" d="M243.83,151.28c-2.08,9.16-2.08,9.15-10.27,9.1c-2.96-0.02-5.93,0-8.89,0c0.21-7.62,1.6-9.08,8.33-9.1
		C236.46,151.28,239.92,151.28,243.83,151.28z"/>
</g>
</svg>
