<svg width="35" height="35" viewBox="0 0 35 35" fill="none" xmlns="http://www.w3.org/2000/svg">
<path d="M17.5001 16.7709C16.5331 16.7709 15.6058 16.3868 14.9221 15.7031C14.2384 15.0193 13.8542 14.092 13.8542 13.1251C13.8542 12.1581 14.2384 11.2308 14.9221 10.5471C15.6058 9.86336 16.5331 9.47925 17.5001 9.47925C18.467 9.47925 19.3943 9.86336 20.0781 10.5471C20.7618 11.2308 21.1459 12.1581 21.1459 13.1251C21.1459 13.6039 21.0516 14.0779 20.8684 14.5203C20.6852 14.9626 20.4166 15.3645 20.0781 15.7031C19.7395 16.0416 19.3376 16.3102 18.8953 16.4934C18.4529 16.6766 17.9789 16.7709 17.5001 16.7709ZM17.5001 2.91675C14.7927 2.91675 12.1961 3.99227 10.2817 5.9067C8.36727 7.82113 7.29175 10.4177 7.29175 13.1251C7.29175 20.7813 17.5001 32.0834 17.5001 32.0834C17.5001 32.0834 27.7084 20.7813 27.7084 13.1251C27.7084 10.4177 26.6329 7.82113 24.7185 5.9067C22.804 3.99227 20.2075 2.91675 17.5001 2.91675Z" fill="#6A8FB1"/>
</svg>
