<?xml version="1.0" encoding="utf-8"?>
<!-- Generator: Adobe Illustrator 28.1.0, SVG Export Plug-In . SVG Version: 6.00 Build 0)  -->
<svg version="1.1" id="Layer_1" xmlns="http://www.w3.org/2000/svg" xmlns:xlink="http://www.w3.org/1999/xlink" x="0px" y="0px"
	 viewBox="0 0 602.22 204.66" style="enable-background:new 0 0 602.22 204.66;" xml:space="preserve">
<style type="text/css">
	.st0{fill:#511624;}
</style>
<g>
	<path class="st0" d="M0,39.29c9.86-0.02,19.72,0.19,29.56-0.18c4.01-0.15,5.11,1.54,5.92,4.94c5.68,23.94,11.51,47.84,17.32,71.74
		c0.44,1.82,1.04,3.61,2.64,5.45c1.28-5.22,2.59-10.44,3.85-15.67c4.95-20.63,9.99-41.24,14.73-61.92c0.81-3.55,2.28-4.57,5.75-4.49
		c8.95,0.21,17.92,0.17,26.88,0.02c3.06-0.05,3.96,0.99,3.95,4c-0.08,39.44-0.08,78.88-0.01,118.32c0.01,2.78-0.9,3.83-3.68,3.75
		c-4.66-0.13-9.33-0.26-13.97,0.04c-3.95,0.26-4.69-1.42-4.67-4.97c0.13-26.41,0.08-52.82,0.05-79.24c0-1.88,0.46-3.84-0.91-6.61
		c-2.76,11.67-5.34,22.51-7.88,33.36c-4.11,17.53-8.26,35.05-12.21,52.62c-0.79,3.54-2.11,5.21-6.03,4.87
		c-4.27-0.37-8.61-0.3-12.89-0.02c-3.61,0.24-4.83-1.23-5.64-4.64c-6.51-27.4-13.25-54.75-19.94-82.12
		c-0.19-0.8,0.05-1.84-1.12-2.25c-1.1,1.82-0.53,3.81-0.54,5.69c-0.04,25.88-0.13,51.76,0.06,77.63c0.03,4.44-1.2,5.91-5.7,5.72
		c-5.15-0.22-10.37-0.65-15.52,0.36C0,123.55,0,81.42,0,39.29z"/>
	<path class="st0" d="M255.72,39.23c9.29,0,17.5,0.07,25.72-0.04c2.47-0.04,3.4,1.5,4.43,3.21c6.01,9.92,12.12,19.79,18.02,29.77
		c1.8,3.03,3.11,4.43,5,0.2c11.83-26.49,32.16-45.3,55.67-61.29c5.25-3.57,10.08-7.77,15.79-11.08
		c-5.94,9.85-11.92,19.67-17.8,29.55c-13.16,22.08-26.2,44.22-39.47,66.23c-1.92,3.19-1.85,5.47,0.08,8.64
		c12.06,19.81,23.87,39.77,36.35,60.65c-9.4,0-18.05,0.11-26.7-0.08c-1.96-0.04-2.56-2.33-3.46-3.82
		c-6.57-10.84-13.09-21.7-19.63-32.56c-3.22-5.34-3.22-5.34-6.58,0.23c-2.49,4.12-5.38,8.06-7.42,12.4
		c-8.29,17.62-21.24,30.85-37.32,41.64c-10.19,6.84-19.59,14.84-30.11,21.78c0.88-1.61,1.71-3.27,2.66-4.84
		c19.41-31.85,38.77-63.74,58.36-95.49c2.11-3.42,1.98-5.75-0.04-9.06C278.17,77.02,267.29,58.61,255.72,39.23z"/>
	<path class="st0" d="M368.61,102.1c0-19.27,0.1-38.55-0.08-57.82c-0.04-3.94,1.05-5.18,5.12-5.15c22.93,0.19,45.87,0.19,68.8,0
		c4.11-0.04,5.35,1.22,5.02,5.16c-0.32,3.72-0.3,7.51,0,11.23c0.31,3.82-1.18,4.84-4.87,4.79c-15.23-0.17-30.46,0.07-45.69-0.16
		c-4.22-0.06-5.66,1.15-5.45,5.41c0.33,6.59,0.24,13.21,0.03,19.8c-0.11,3.47,1.01,4.63,4.58,4.58c12.9-0.19,25.8,0.06,38.7-0.15
		c3.85-0.06,5.58,0.76,5.22,4.96c-0.36,4.25-0.3,8.57-0.02,12.84c0.24,3.59-1.15,4.5-4.59,4.46c-12.72-0.18-25.45,0.11-38.16-0.16
		c-4.35-0.09-5.89,0.96-5.79,5.57c0.3,14.09-0.07,28.2,0.21,42.29c0.09,4.56-1.41,5.94-5.8,5.55c-3.91-0.35-7.9-0.31-11.81-0.01
		c-4.17,0.33-5.56-1.08-5.51-5.36C368.73,140.65,368.61,121.37,368.61,102.1z"/>
	<path class="st0" d="M569.21,112.96c0,15.7-0.11,31.4,0.08,47.1c0.05,3.87-0.92,5.54-5.08,5.23c-4.27-0.33-8.62-0.34-12.89,0
		c-4.4,0.36-5.37-1.46-5.36-5.51c0.14-30.69,0.08-61.37,0.07-92.06c0-8.5,0.13-6.98-7.33-7.05c-7.34-0.07-14.69-0.18-22.03,0.05
		c-3.59,0.12-5.38-0.72-4.95-4.67c0.59-5.43-2.3-12.36,1.28-15.92c3.1-3.09,9.9-0.85,15.05-0.86c22.93-0.09,45.86,0.06,68.79-0.12
		c4.1-0.03,5.9,0.91,5.38,5.28c-0.63,5.24,2.25,12.3-1.23,15.31c-3.01,2.61-9.88,0.82-15.05,0.91c-3.58,0.06-7.2,0.31-10.74-0.06
		c-4.64-0.48-6.21,0.97-6.11,5.82C569.4,81.91,569.21,97.44,569.21,112.96z"/>
	<path class="st0" d="M494.09,101.95c0,19.27-0.1,38.55,0.08,57.82c0.04,4.09-1.04,5.82-5.4,5.52c-4.99-0.34-10.03-0.18-15.05-0.05
		c-2.79,0.08-3.69-0.98-3.69-3.75c0.07-39.44,0.07-78.88-0.01-118.32c-0.01-2.99,0.87-4.13,3.95-4c4.83,0.2,9.7,0.34,14.51-0.04
		c4.41-0.35,5.79,0.97,5.72,5.53C493.94,63.75,494.1,82.85,494.09,101.95z"/>
	<path class="st0" d="M239.86,159.85c-13.35-36.12-26.54-72.3-39.77-108.47c-4.44-12.16-4.42-12.16-17.13-12.16
		c-2.15,0-4.35,0.28-6.44-0.06c-4.78-0.77-6.9,1.25-8.29,5.77c-2.84,9.19-6.34,18.17-9.57,27.24
		c-10.46,29.39-20.84,58.81-31.45,88.14c-1.53,4.22-0.62,5.22,3.65,4.97c5-0.3,10.04-0.24,15.04-0.01c3.19,0.14,4.8-0.89,5.78-4.05
		c2.16-6.98,4.86-13.78,7.1-20.73c0.88-2.73,2.03-4.07,5.21-4.02c12.72,0.18,25.44,0.18,38.16,0c3.1-0.04,4.44,1.1,5.33,3.88
		c2.22,6.96,4.84,13.8,6.99,20.78c0.94,3.06,2.39,4.32,5.69,4.15c5.36-0.27,10.76-0.35,16.12,0.01
		C241.27,165.62,241.35,163.88,239.86,159.85z M195.28,115.59c-8.24-0.06-16.47-0.03-24.71-0.01c-1.92,0-3.12-0.3-2.29-2.74
		c4.65-13.73,9.22-27.48,13.82-41.23c0.39-0.01,0.79-0.01,1.18-0.02c3.42,9.84,6.86,19.67,10.27,29.52
		c1.28,3.7,2.41,7.46,3.76,11.14C198.09,114.38,198.06,115.61,195.28,115.59z"/>
</g>
</svg>
