<svg width="85" height="85" viewBox="0 0 85 85" fill="none" xmlns="http://www.w3.org/2000/svg">
<path d="M42.5564 85C19.0817 85.0241 0.0120853 65.9827 5.73445e-06 42.5081C-0.0120738 19.1099 19.0616 0.0161163 42.4557 1.01841e-05C65.878 -0.0160959 84.9436 19.0737 84.9637 42.5564C84.9839 65.8861 65.9062 84.9758 42.5564 85ZM14.3385 40.825C14.4271 40.8411 14.5116 40.8531 14.6002 40.8693C14.6244 41.0907 14.6727 41.3122 14.6727 41.5336C14.6807 43.3778 14.6928 45.2219 14.6727 47.0701C14.6646 47.7747 14.9102 48.1573 15.6632 48.1049C15.9652 48.0848 16.2672 48.0808 16.5692 48.1049C17.3382 48.1653 17.6644 47.8351 17.6604 47.054C17.6442 43.869 17.6442 40.68 17.6644 37.495C17.6684 36.7541 17.3382 36.4723 16.6255 36.4924C15.7196 36.5166 14.8136 36.5327 13.9076 36.4803C13.1345 36.4361 12.744 36.73 12.5668 37.491C12.2447 38.8963 11.8581 40.2854 11.4676 41.6705C11.383 41.9766 11.1736 42.2463 10.8837 42.7859C10.3603 40.8209 9.90526 39.1741 9.49053 37.5232C9.30933 36.7984 8.95097 36.4361 8.15775 36.4803C7.18736 36.5367 6.21294 36.5085 5.23852 36.5005C4.71104 36.4964 4.41711 36.6897 4.41711 37.2575C4.42516 40.6116 4.40503 43.9657 4.4614 47.3198C4.46542 47.5815 4.93653 47.9237 5.25865 48.0727C5.53648 48.2016 5.919 48.0808 6.2532 48.113C7.09072 48.1895 7.38063 47.7989 7.36855 46.9896C7.34036 45.2139 7.36452 43.4342 7.3766 41.6544C7.38063 41.3122 7.43297 40.9699 7.46116 40.6277C7.8316 41.0827 7.98461 41.5538 8.10943 42.0289C8.52819 43.6516 9.01137 45.2622 9.32141 46.905C9.56301 48.1734 10.3804 48.0969 11.3226 48.1291C12.2568 48.1613 12.5225 47.6741 12.6997 46.901C13.0943 45.2018 13.5452 43.5187 13.9882 41.8316C14.0848 41.4893 14.2217 41.1592 14.3385 40.825ZM34.1812 52.9569C34.2456 53.0213 34.31 53.0898 34.3745 53.1542C34.5234 53.1099 34.7046 53.1018 34.8174 53.0133C37.2051 51.1007 39.9593 49.5504 41.2558 46.5507C41.3484 46.3373 41.4893 46.144 41.6021 45.9386C41.9685 45.2783 42.3591 45.2179 42.7778 45.8863C43.2731 46.6836 43.7603 47.4848 44.2556 48.2821C45.0206 49.5182 46.3212 49.8404 47.7143 49.1035C47.6056 48.874 47.513 48.6284 47.3842 48.4069C46.3936 46.7359 45.4192 45.0488 44.3804 43.406C43.9495 42.7255 43.9093 42.1698 44.3482 41.4732C45.9829 38.86 47.5694 36.2146 49.1679 33.5772C49.3974 33.1987 49.5746 32.7961 49.78 32.4015C46.6232 34.1691 43.8368 36.2307 42.2946 39.6774C41.6303 38.9043 41.0585 38.2359 40.7243 37.4668C40.1405 36.118 39.1419 35.7958 37.8091 35.9408C36.9152 36.0374 36.7944 36.2025 37.2736 36.9917C38.2077 38.5419 39.1459 40.0881 40.1243 41.6101C40.4867 42.1738 40.4666 42.645 40.1163 43.1845C39.4076 44.2837 38.7191 45.3951 38.0426 46.5144C36.7501 48.6566 35.4697 50.8108 34.1812 52.9569ZM30.8513 48.1049C31.1935 48.1049 31.3586 48.1049 31.5277 48.1049C33.0175 48.1009 33.1142 47.9398 32.5786 46.5547C31.6364 44.1187 30.7305 41.6665 29.7923 39.2305C28.689 36.3636 28.681 36.3636 25.5966 36.4964C25.5282 36.5005 25.4477 36.4763 25.3993 36.5045C25.0893 36.7058 24.6222 36.8548 24.5095 37.1407C23.2331 40.382 22.0009 43.6395 20.789 46.905C20.4306 47.8674 20.6279 48.1049 21.6627 48.1049C22.8828 48.1049 24.2276 48.4915 24.6021 46.595C24.7511 45.834 28.6487 45.991 28.8662 46.7762C29.1963 47.9882 29.909 48.2982 30.8513 48.1049ZM52.2281 42.6047C52.2281 43.712 52.22 44.8153 52.2281 45.9225C52.2482 48.7129 51.7972 48.4713 54.942 48.4673C55.6385 48.4673 55.8962 48.1291 55.8882 47.4728C55.8761 46.5668 55.9083 45.6608 55.8801 44.7589C55.856 43.9979 56.17 43.6395 56.9472 43.6596C57.8169 43.6798 58.6907 43.6435 59.5604 43.6637C60.3617 43.6798 60.4945 43.2006 60.4825 42.5523C60.4704 41.9121 60.4623 41.3122 59.5604 41.3404C58.7551 41.3645 57.9538 41.3363 57.1485 41.3363C56.46 41.3404 55.8721 41.284 55.8801 40.3418C55.8882 39.4358 56.46 39.4237 57.1002 39.4278C58.1068 39.4318 59.1134 39.3835 60.116 39.4398C61.1106 39.4962 61.2878 38.9728 61.2878 38.1393C61.2878 37.3259 61.1589 36.7944 60.1483 36.8186C57.8692 36.8709 55.5902 36.8629 53.3112 36.8266C52.4536 36.8145 52.2039 37.189 52.2241 37.9782C52.2522 39.5204 52.2281 41.0625 52.2281 42.6047ZM77.5751 36.8266C76.2342 36.8266 74.8894 36.8266 73.5485 36.8266C71.9822 36.8307 71.9782 36.8347 71.9903 38.3929C72.0023 39.6935 72.0547 39.7459 73.3593 39.7579C73.7297 39.762 74.1002 39.7861 74.4666 39.7539C75.3605 39.6734 75.747 40.0036 75.7108 40.9538C75.6504 42.6288 75.6745 44.3079 75.6987 45.987C75.739 48.7532 75.2034 48.4432 78.3482 48.4673C79.081 48.4713 79.3709 48.1532 79.3588 47.4325C79.3346 45.7897 79.3508 44.1468 79.3467 42.5C79.3467 39.8586 79.3467 39.8304 81.9398 39.762C82.7411 39.7418 83.031 39.4076 82.9867 38.6587C82.9706 38.3929 82.9626 38.1191 82.9867 37.8534C83.0592 37.0481 82.6606 36.7944 81.9076 36.8105C80.4581 36.8508 79.0166 36.8307 77.5751 36.8266ZM64.964 42.5282H64.96C64.96 43.5348 64.96 44.5415 64.96 45.5481C64.96 45.7494 64.96 45.9507 64.96 46.1521C64.9801 48.6364 64.6741 48.4311 67.2994 48.4874C68.302 48.5076 68.5677 48.0969 68.5516 47.1748C68.5114 44.5576 68.5637 41.9403 68.5315 39.3271C68.4993 36.5649 69.0549 36.8387 65.8981 36.8306C65.2096 36.8306 64.9438 37.1165 64.9519 37.801C64.9841 39.3754 64.964 40.9538 64.964 42.5282Z" fill="black"/>
</svg>
