<svg width="145" height="77" viewBox="0 0 145 77" fill="none" xmlns="http://www.w3.org/2000/svg">
<path d="M47.1151 0C47.0996 0.209788 47.0705 0.419577 47.0705 0.629365C47.0686 25.7904 47.0686 50.9514 47.0705 76.1124C47.0705 76.3222 47.0996 76.532 47.1151 76.7417C43.9929 76.7417 40.8727 76.7417 37.7505 76.7417C37.6595 75.9919 37.5666 75.2421 37.4679 74.4341C38.157 74.4341 38.788 74.4535 39.419 74.4244C39.6436 74.4127 39.9126 74.3389 40.0771 74.1971C41.4979 72.9558 42.907 71.6971 44.2987 70.4248C44.4536 70.283 44.5678 70.011 44.5697 69.7993C44.5929 68.2181 44.5833 66.635 44.5794 65.0519C44.5794 64.9159 44.5484 64.7819 44.5194 64.5429C42.0147 66.7477 39.5913 68.8786 37.1466 71.0328C36.9743 70.6035 37.1582 70.3762 37.4195 70.147C39.6823 68.1618 41.9373 66.1669 44.202 64.1836C44.4497 63.968 44.5949 63.7523 44.591 63.3988C44.5717 61.8992 44.5852 60.3977 44.5813 58.8961C44.5813 58.7485 44.5504 58.5989 44.5213 58.3386C41.794 60.7007 39.1596 62.9812 36.5136 65.2733C36.2407 64.7955 36.4749 64.5546 36.7653 64.304C39.2371 62.1614 41.705 60.015 44.1613 57.855C44.3491 57.6898 44.56 57.4179 44.5658 57.1926C44.5988 55.5784 44.5833 53.9642 44.5794 52.348C44.5794 52.2742 44.5542 52.1984 44.5194 51.9984C41.583 54.5663 38.7164 57.0702 35.8304 59.5935C35.6736 59.2089 35.7917 58.9816 36.0568 58.7466C38.7745 56.3418 41.4785 53.9214 44.1942 51.5166C44.4729 51.2699 44.5988 51.0155 44.5929 50.6367C44.5717 49.1856 44.5852 47.7327 44.5833 46.2816C44.5833 46.1107 44.5678 45.9398 44.5523 45.6231C41.3682 48.4184 38.2847 51.1243 35.1897 53.8398C34.8974 53.4203 35.0871 53.1775 35.3697 52.9288C38.3022 50.3511 41.225 47.7618 44.1632 45.19C44.4768 44.9161 44.5988 44.6364 44.5929 44.2245C44.5697 42.789 44.5852 41.3536 44.5813 39.9181C44.5813 39.7491 44.56 39.582 44.5387 39.2848C41.1301 42.2995 37.8202 45.2249 34.4851 48.1736C34.3051 47.7171 34.5103 47.5093 34.758 47.2917C37.9189 44.5043 41.0779 41.7149 44.2194 38.906C44.4091 38.737 44.56 38.4185 44.5658 38.1659C44.5988 36.6178 44.5852 35.0677 44.5813 33.5176C44.5813 33.3661 44.5542 33.2165 44.5271 32.9465C40.9017 36.1613 37.3692 39.2926 33.8231 42.4375C33.6218 42.0062 33.7418 41.7595 34.0438 41.4954C37.4524 38.5214 40.8514 35.5378 44.2387 32.5386C44.4168 32.3812 44.56 32.0801 44.5639 31.8431C44.5929 30.3261 44.5794 28.809 44.5755 27.2919C44.5755 27.1443 44.5446 26.9986 44.5175 26.7402C40.6869 30.1007 36.9511 33.3777 33.2173 36.6527C32.8495 36.2973 33.0373 36.0991 33.3005 35.866C36.9395 32.6609 40.5688 29.4442 44.2097 26.241C44.4787 26.004 44.5929 25.7612 44.5871 25.4019C44.5678 23.9334 44.5794 22.4668 44.5755 20.9983C44.5755 20.8331 44.5484 20.67 44.5233 20.3825C40.4507 23.9489 36.4807 27.4259 32.4953 30.9146C32.2533 30.4931 32.3443 30.194 32.7314 29.9551C33.0605 29.753 33.0857 29.5471 32.6947 29.3762C31.6378 28.9158 30.5906 28.438 29.5241 28.0009C29.0673 27.8144 28.5756 27.7134 28.0608 27.56C28.0492 27.7367 28.0337 27.83 28.0375 27.9232C28.1401 31.2313 28.2427 34.5374 28.3472 37.8454C28.5002 42.6686 28.6531 47.4899 28.806 52.313C28.8911 55.017 28.9744 57.7229 29.0596 60.4268C29.197 64.6944 29.3305 68.964 29.4776 73.2317C29.5183 74.403 29.5918 75.5724 29.6519 76.7437C29.3925 76.7437 29.1312 76.7437 28.8718 76.7437C28.8834 76.5825 28.9105 76.4212 28.9047 76.2619C28.7847 72.3692 28.6608 68.4745 28.5427 64.5818C28.4827 62.5946 28.4343 60.6055 28.3705 58.6184C28.2621 55.3433 28.1421 52.0702 28.0337 48.7952C27.9737 47.0198 27.933 45.2424 27.8749 43.467C27.7724 40.291 27.6562 37.1151 27.5556 33.9371C27.4917 31.917 27.4394 29.8968 27.391 27.8747C27.3833 27.5522 27.2768 27.4026 26.9323 27.4065C25.4535 27.4182 23.9747 27.4162 22.4939 27.4065C22.1842 27.4046 22.0584 27.5095 22.0526 27.828C22.0352 28.7896 21.9965 29.7511 21.9635 30.7107C21.8145 34.8812 21.6558 39.0498 21.5145 43.2203C21.4061 46.3962 21.3209 49.5742 21.2125 52.7521C21.077 56.7264 20.9261 60.7007 20.7828 64.675C20.7015 66.973 20.6222 69.269 20.5467 71.567C20.4886 73.2938 20.4383 75.0188 20.386 76.7456C13.59 76.7456 6.79598 76.7456 0 76.7456C0.0077425 76.5514 0.0232273 76.3552 0.0232273 76.1609C0.0251629 50.9708 0.0251629 25.7807 0.0232273 0.590515C0.0232273 0.396267 0.0077425 0.200076 0 0.00582759C15.7076 1.3351e-07 31.4113 0 47.1151 0ZM34.9922 2.8166C34.8355 2.77193 34.7774 2.7389 34.7193 2.7389C32.8166 2.73502 30.9158 2.72531 29.0131 2.74279C28.8292 2.74473 28.6202 2.87876 28.4692 3.00891C27.813 3.56834 27.1743 4.14915 26.5278 4.72024C18.642 11.6724 10.7543 18.6245 2.87828 25.5883C2.69052 25.7554 2.54922 26.0779 2.54341 26.3304C2.51244 27.83 2.52599 29.3315 2.52793 30.8331C2.52793 30.971 2.55115 31.1108 2.57245 31.3595C2.80666 31.1788 2.97312 31.0623 3.1241 30.9321C4.79842 29.485 6.4708 28.0339 8.14511 26.5868C11.7144 23.5002 15.2856 20.4136 18.8511 17.3211C19.0117 17.1813 19.1917 16.9831 19.2246 16.7889C19.3969 15.7633 19.9157 14.9921 20.8389 14.5434C21.4622 14.2404 22.1358 14.0364 22.7843 13.7858C22.972 13.7139 23.183 13.7003 23.1501 13.3759C23.0959 12.8301 23.3088 12.6009 23.8314 12.4125C24.0985 12.3173 24.3734 12.1871 24.5844 12.0046C27.9543 9.05975 31.3165 6.10523 34.6787 3.15071C34.7696 3.06913 34.849 2.97006 34.9922 2.8166ZM2.52599 25.0347C2.57632 25.06 2.62664 25.0852 2.67697 25.1086C11.0544 17.7038 19.4337 10.2991 27.9137 2.80495C27.6543 2.76221 27.5633 2.73502 27.4723 2.73502C25.6199 2.73113 23.7675 2.72142 21.9152 2.74279C21.7022 2.74473 21.4525 2.88459 21.2822 3.03222C18.1504 5.77501 15.0263 8.53139 11.9022 11.282C8.91162 13.916 5.92302 16.5519 2.9228 19.1762C2.62471 19.4365 2.51051 19.7104 2.51825 20.1028C2.54148 21.2275 2.52599 22.3522 2.52599 23.4788C2.52599 23.9975 2.52599 24.5161 2.52599 25.0347ZM19.4221 17.4319C18.8995 17.8922 18.4814 18.2671 18.0575 18.6362C12.9919 23.0709 7.92252 27.5036 2.86666 31.95C2.68858 32.1073 2.54728 32.4104 2.54148 32.6473C2.51244 34.18 2.52406 35.7126 2.52793 37.2452C2.52793 37.3637 2.56083 37.4841 2.59374 37.6939C2.83182 37.4997 3.00603 37.3656 3.17249 37.2199C8.49353 32.5094 13.8165 27.7989 19.124 23.0728C19.3117 22.9058 19.4492 22.5794 19.455 22.325C19.4879 20.8914 19.4724 19.4559 19.4705 18.0224C19.4724 17.8767 19.4492 17.7349 19.4221 17.4319ZM2.55309 18.6789C2.59567 18.7061 2.63826 18.7333 2.68084 18.7586C8.6716 13.4692 14.6643 8.17786 20.6551 2.88847C20.6318 2.83408 20.6086 2.78164 20.5854 2.72725C20.4325 2.72725 20.2776 2.72725 20.1247 2.72725C18.402 2.72725 16.6812 2.71171 14.9585 2.74279C14.6662 2.74862 14.314 2.87488 14.0952 3.06524C10.3246 6.38883 6.56951 9.72796 2.82408 13.0787C2.65955 13.2264 2.54535 13.5197 2.53954 13.7489C2.51438 15.2485 2.52406 16.7481 2.52599 18.2477C2.52599 18.3914 2.54341 18.5352 2.55309 18.6789ZM31.7985 25.3086C32.0424 25.4271 32.1817 25.5009 32.3269 25.5631C32.8785 25.804 33.4437 26.0176 33.9741 26.2954C34.1309 26.3789 34.1948 26.6431 34.3012 26.8238C34.1115 26.8743 33.9218 26.9384 33.7302 26.9656C33.6431 26.9772 33.5425 26.917 33.4554 26.8743C32.9134 26.612 32.354 26.3809 31.8391 26.074C29.5764 24.7337 27.122 24.2947 24.5321 24.4345C24.2263 24.4501 24.145 24.5744 24.1527 24.8541C24.1663 25.3766 24.176 25.8991 24.1469 26.4197C24.1276 26.7907 24.2689 26.9131 24.6212 26.9015C24.9618 26.8898 25.3025 26.9364 25.6432 26.9325C28.355 26.9054 30.879 27.6046 33.2328 28.9333C33.5444 29.1101 33.7418 29.0829 34.0012 28.8556C37.4195 25.8428 40.8494 22.8417 44.26 19.8231C44.4362 19.6677 44.5658 19.3607 44.5697 19.1218C44.5968 17.6047 44.5852 16.0877 44.5813 14.5706C44.5813 14.4365 44.5542 14.3006 44.5271 14.0403C40.2436 17.832 36.053 21.5422 31.7985 25.3086ZM44.5407 7.7272C44.3723 7.85541 44.2929 7.90785 44.2213 7.97001C41.8444 10.0698 39.4693 12.1716 37.0943 14.2734C34.7561 16.3441 32.4198 18.4148 30.0835 20.4854C29.7602 20.771 29.5512 21.8491 29.8338 22.0802C30.1203 22.3153 30.0951 22.5736 30.097 22.863C30.099 23.304 30.1067 23.743 30.097 24.1839C30.0912 24.4423 30.0932 24.689 30.4048 24.7589C30.7668 24.8405 31.0726 25.2057 31.512 24.8172C35.7452 21.0837 39.9958 17.3716 44.231 13.6382C44.411 13.4789 44.5678 13.1836 44.5717 12.9505C44.6007 11.3849 44.5871 9.8212 44.5852 8.25556C44.5813 8.1157 44.56 7.97584 44.5407 7.7272ZM29.7428 19.7959C29.7854 19.8192 29.8299 19.8425 29.8725 19.8658C29.9925 19.7687 30.1145 19.6735 30.2306 19.5725C31.4559 18.5022 32.6811 17.4299 33.9044 16.3577C37.344 13.3449 40.7856 10.3321 44.2174 7.31345C44.3742 7.17554 44.56 6.95992 44.5639 6.77539C44.5949 5.55356 44.5852 4.32786 44.5736 3.10603C44.5717 2.9856 44.4594 2.76221 44.4013 2.76416C43.8381 2.77193 43.2651 2.56991 42.7406 3.03805C38.4783 6.84143 34.1986 10.6234 29.9228 14.4132C29.286 14.9785 29.3189 14.9591 29.7002 15.7089C29.9364 16.1731 30.4203 16.6821 29.7835 17.2221C29.7448 17.2551 29.7448 17.3444 29.7448 17.4085C29.7428 18.203 29.7428 18.9994 29.7428 19.7959ZM16.7625 32.2588C16.5302 32.4317 16.4006 32.5172 16.2864 32.6182C11.8228 36.5614 7.36119 40.5066 2.89183 44.444C2.63826 44.6674 2.51631 44.8928 2.52018 45.2366C2.53567 46.7692 2.52406 48.3038 2.52793 49.8364C2.52793 49.9879 2.55309 50.1394 2.57438 50.4016C2.81053 50.2113 2.96151 50.0986 3.10281 49.9743C3.94287 49.2303 4.781 48.4825 5.62106 47.7366C8.9755 44.751 12.3357 41.7673 15.6766 38.7662C15.8934 38.5719 16.0657 38.2397 16.1102 37.9503C16.296 36.711 16.4296 35.462 16.5728 34.2149C16.6406 33.6108 16.6909 33.0009 16.7625 32.2588ZM16.0367 26.7364C15.996 26.715 15.9573 26.6956 15.9167 26.6742C15.6882 26.8743 15.4579 27.0743 15.2314 27.2764C11.1686 30.8874 7.10955 34.5024 3.037 38.1018C2.66342 38.4321 2.50276 38.7681 2.51438 39.2751C2.54922 40.6601 2.52406 42.049 2.52599 43.434C2.52599 43.6049 2.54341 43.7739 2.55696 44.0653C2.76988 43.8982 2.89376 43.8108 3.00796 43.7098C4.43452 42.4472 5.8572 41.1846 7.28183 39.9219C10.2046 37.3307 13.1274 34.7394 16.0541 32.1539C16.2922 31.9442 16.4644 31.748 16.1489 31.4916C15.634 31.072 15.5218 30.5495 15.6824 29.9259C15.7386 29.7064 15.7405 29.4733 15.7657 29.246C15.8566 28.4088 15.9457 27.5736 16.0367 26.7364ZM15.9167 39.312C15.6863 39.4829 15.5566 39.5645 15.4405 39.6655C11.1995 43.3932 6.95664 47.1188 2.72923 50.862C2.55309 51.0174 2.4234 51.3243 2.41953 51.5652C2.3905 53.0648 2.40211 54.5663 2.40598 56.0679C2.40598 56.2155 2.43695 56.3631 2.46212 56.6079C2.67697 56.4369 2.80472 56.3418 2.9228 56.2388C6.88115 52.7812 10.8376 49.3177 14.8017 45.8659C15.0921 45.6134 15.2489 45.3415 15.2895 44.9569C15.4444 43.5311 15.6224 42.1092 15.787 40.6834C15.8354 40.2716 15.8663 39.8598 15.9167 39.312ZM15.0669 46.5108C14.8366 46.6701 14.7379 46.7245 14.6546 46.7964C10.6672 50.2696 6.67791 53.7408 2.70407 57.2275C2.53761 57.3732 2.4234 57.6685 2.41953 57.8957C2.39437 59.4128 2.40405 60.9299 2.40598 62.445C2.40598 62.581 2.43308 62.7151 2.45437 62.9307C2.64019 62.8005 2.76214 62.7306 2.8686 62.6393C6.61016 59.4031 10.3498 56.1669 14.0817 52.9191C14.2365 52.7851 14.3662 52.552 14.3933 52.348C14.5849 50.9261 14.7475 49.5023 14.914 48.0784C14.9701 47.6045 15.0088 47.1247 15.0669 46.5108ZM25.1651 12.2007C25.1786 12.2474 25.1941 12.2959 25.2077 12.3425C25.3606 12.3523 25.5154 12.36 25.6683 12.3756C26.1213 12.4164 26.491 12.7777 26.4135 13.2225C26.3419 13.6343 26.5665 13.6052 26.8258 13.6887C27.3562 13.8616 27.9098 14.0306 28.3743 14.3278C28.7208 14.5512 28.8892 14.5473 29.1854 14.285C33.3915 10.5729 37.6073 6.87251 41.8192 3.16819C41.9276 3.07301 42.0186 2.95452 42.1618 2.79912C42.005 2.76221 41.945 2.73502 41.885 2.73502C39.9842 2.73113 38.0854 2.72336 36.1846 2.74279C35.9988 2.74473 35.7839 2.87099 35.6349 3.00114C32.5011 5.74004 29.3731 8.48866 26.2451 11.2353C25.8832 11.5539 25.5251 11.8802 25.1651 12.2007ZM2.44082 69.2943C2.64406 69.1466 2.76407 69.0728 2.87053 68.9815C6.31208 65.9959 9.75362 63.0123 13.1855 60.015C13.3616 59.8615 13.5068 59.5954 13.5378 59.3643C13.7623 57.684 13.9539 55.9999 14.1514 54.3177C14.1765 54.104 14.1785 53.8884 14.1959 53.5893C14.0314 53.6883 13.9578 53.7194 13.9017 53.7699C10.164 57.0352 6.42628 60.2986 2.70213 63.5795C2.53761 63.7251 2.4234 64.0204 2.41953 64.2477C2.39437 65.7473 2.40598 67.2488 2.40792 68.7484C2.40792 68.8922 2.42534 69.0359 2.44082 69.2943ZM13.3616 60.757C13.3229 60.7395 13.2842 60.7221 13.2436 60.7046C13.1274 60.7862 13.0055 60.858 12.899 60.9513C9.49037 63.8961 6.08367 66.8428 2.68471 69.7974C2.55309 69.912 2.42727 70.1159 2.4234 70.281C2.40018 71.5029 2.40405 72.7266 2.4176 73.9484C2.41953 74.063 2.54341 74.2767 2.60922 74.2767C3.23443 74.2728 3.85964 74.4632 4.44226 73.9387C7.00503 71.633 9.61038 69.3778 12.1848 67.0837C12.3919 66.8992 12.5467 66.5864 12.5971 66.3106C12.7538 65.4617 12.8487 64.6031 12.9629 63.7485C13.0984 62.75 13.23 61.7535 13.3616 60.757ZM2.52599 12.3367C2.57632 12.362 2.62664 12.3872 2.67891 12.4125C6.28304 9.23846 9.88524 6.06444 13.592 2.79912C13.3287 2.75833 13.2377 2.73308 13.1468 2.73113C11.2963 2.72919 9.44392 2.71948 7.59346 2.74279C7.3786 2.74473 7.13085 2.88459 6.96051 3.03222C5.58041 4.24433 4.20805 5.46421 2.85505 6.7074C2.67891 6.86863 2.54728 7.16971 2.53954 7.41058C2.50664 8.51779 2.52599 9.62695 2.52599 10.7342C2.52599 11.2703 2.52599 11.8025 2.52599 12.3367ZM12.479 67.7927C12.4383 67.7733 12.3957 67.7558 12.3551 67.7364C9.89298 69.8731 7.42893 72.0098 4.92617 74.1815C5.08295 74.2651 5.11199 74.2923 5.13909 74.2923C7.20246 74.2981 9.26778 74.3 11.3312 74.3078C11.6254 74.3097 11.7086 74.1543 11.7434 73.8843C11.9796 71.9924 12.2312 70.1004 12.4751 68.2103C12.4925 68.0724 12.479 67.9326 12.479 67.7927ZM26.5142 18.9625C26.5142 18.1797 26.5026 17.3988 26.52 16.616C26.5278 16.2625 26.4174 16.1168 26.0477 16.1265C25.2522 16.1479 24.4566 16.144 23.6611 16.1304C23.3185 16.1246 23.1559 16.2314 23.1578 16.6005C23.1714 18.1486 23.1733 19.6949 23.1656 21.243C23.1636 21.5771 23.2914 21.7131 23.6243 21.7073C24.4353 21.6956 25.2483 21.6937 26.0593 21.7092C26.3903 21.715 26.5258 21.6024 26.5161 21.2566C26.5026 20.4932 26.5142 19.7279 26.5142 18.9625ZM19.8227 22.5231C20.8564 22.2434 21.8397 21.985 22.8133 21.6976C22.8985 21.6723 22.9778 21.4625 22.9778 21.3362C22.9894 19.722 22.9933 18.1078 22.9759 16.4936C22.9739 16.3926 22.7513 16.1926 22.6739 16.21C21.8435 16.414 21.017 16.6413 20.1983 16.888C19.8886 16.9812 19.7666 17.2143 19.7705 17.5639C19.7898 19.048 19.7782 20.5321 19.7802 22.0161C19.7802 22.1599 19.8034 22.2997 19.8227 22.5231ZM29.317 22.3599C29.3673 22.2395 29.4022 22.1948 29.4022 22.1521C29.408 20.4893 29.4157 18.8266 29.406 17.1638C29.406 17.0414 29.3034 16.8452 29.2047 16.8103C28.504 16.5675 27.7956 16.3441 27.0813 16.1459C26.8433 16.0799 26.6865 16.2062 26.6884 16.4936C26.6962 18.1253 26.6884 19.7551 26.7039 21.3868C26.7058 21.5052 26.8394 21.6976 26.9478 21.7286C27.722 21.9559 28.5079 22.1502 29.317 22.3599ZM29.4118 24.4462C29.4118 23.8595 29.437 23.405 29.3963 22.9582C29.3847 22.83 29.2067 22.6707 29.0673 22.6105C27.604 21.9773 26.069 21.8199 24.4934 21.9171C24.2476 21.9326 24.145 22.0142 24.1508 22.2648C24.1605 22.6882 24.1682 23.1136 24.1469 23.5351C24.1295 23.8634 24.2727 23.9567 24.5747 23.9605C26.16 23.9819 27.7607 23.8207 29.4118 24.4462ZM19.4395 23.7877C19.3988 23.7644 19.3601 23.743 19.3195 23.7197C18.824 24.149 18.3246 24.5724 17.831 25.0056C16.5128 26.1653 16.5128 26.1672 16.3909 27.9213C16.3812 28.0514 16.3773 28.1816 16.3638 28.3117C16.3367 28.572 16.3057 28.8323 16.2747 29.0945C16.6599 28.9158 16.9193 28.6769 17.2 28.471C17.4864 28.2593 17.7749 28.0203 18.1 27.896C19.0291 27.5386 19.3717 26.8762 19.3408 25.9069C19.3175 25.1999 19.4027 24.4928 19.4395 23.7877ZM40.7817 74.1505C40.8824 74.2437 40.9036 74.2826 40.9269 74.2826C42.0437 74.2923 43.1625 74.3097 44.2794 74.2884C44.3839 74.2864 44.562 74.0456 44.5697 73.9077C44.6026 73.3404 44.5852 72.7694 44.5852 72.2002C44.5852 71.8039 44.5852 71.4077 44.5852 71.0114C44.5368 70.992 44.4884 70.9745 44.44 70.9551C43.2225 72.0176 42.007 73.0782 40.7817 74.1505ZM2.52599 5.99256C2.57632 6.01587 2.62664 6.03918 2.67503 6.06444C3.89061 5.00578 5.10812 3.94713 6.32369 2.88847C6.3024 2.83797 6.28111 2.78941 6.25981 2.7389C5.10037 2.7389 3.939 2.73113 2.77956 2.75444C2.69439 2.75639 2.54922 2.96617 2.53954 3.08661C2.50857 3.50813 2.52599 3.93353 2.52599 4.35699C2.52599 4.90283 2.52599 5.44673 2.52599 5.99256ZM17.1342 29.3412C16.4257 29.7006 16.176 30.0871 16.2805 30.6097C16.3483 30.9477 16.4683 31.2662 16.9483 31.2682C17.0083 30.6388 17.0664 30.0328 17.1342 29.3412Z" fill="#1C3786"/>
<path d="M96.133 12.1289C98.1073 12.1289 100.022 12.1386 101.936 12.125C103.283 12.1153 104.634 12.0007 105.978 12.0628C108.174 12.1638 110.319 12.5834 112.168 13.8693C116.593 16.9482 117.291 21.7694 115.65 25.4427C114.394 28.2534 112.094 29.8191 109.195 30.4562C107.621 30.8039 105.978 30.9399 104.361 30.9729C101.812 31.0234 99.2609 30.9069 96.7117 30.8525C96.5859 30.8505 96.464 30.7612 96.3381 30.7126C96.4369 30.6135 96.5201 30.4679 96.6382 30.4212C97.486 30.093 97.8499 29.5996 97.8499 28.6808C97.8518 23.8518 97.8518 19.0227 97.8499 14.1937C97.8499 13.4536 97.3195 12.8204 96.4911 12.5562C96.2685 12.4843 95.9743 12.4669 96.133 12.1289ZM101.988 21.6062C101.986 24.1664 101.986 26.7286 101.986 29.2888C101.986 29.5568 101.965 29.8074 102.331 29.8793C103.452 30.1007 104.57 30.2794 105.714 30.0483C107.756 29.6345 109.483 28.6672 110.259 26.6761C111.322 23.9528 111.581 21.1012 110.83 18.2263C110.333 16.3207 109.334 14.7726 107.543 13.8247C105.923 12.9661 104.234 13.0302 102.511 13.3798C102.131 13.4556 101.979 13.6052 101.98 14.0208C102 16.548 101.988 19.0771 101.988 21.6062Z" fill="#1C3786"/>
<path d="M84.0956 34.6909C88.0733 34.8444 91.2555 36.2876 93.2724 39.7783C95.7829 44.1236 94.4202 49.648 90.1793 52.3656C86.641 54.6325 81.4845 54.8209 77.8029 52.1675C75.7376 50.6795 74.5626 48.6224 74.1329 46.1555C73.591 43.0319 74.3401 40.2153 76.4983 37.8688C78.0371 36.1963 80.0289 35.2931 82.2393 34.8832C82.8742 34.7628 83.5265 34.7453 84.0956 34.6909ZM89.8541 44.3781C89.8231 43.8983 89.8038 43.3097 89.7418 42.727C89.5405 40.8292 89.1031 39.0091 88.052 37.3754C86.4784 34.924 83.3794 34.4481 81.1612 36.3323C80.3037 37.0607 79.7656 37.999 79.4037 39.046C78.6817 41.1361 78.4107 43.2825 78.5733 45.4931C78.7146 47.3987 79.1152 49.2324 79.9611 50.9515C80.9328 52.925 82.6594 53.9157 84.7518 53.6457C86.5713 53.4126 87.7714 52.2898 88.563 50.7009C89.5367 48.7467 89.7883 46.6333 89.8541 44.3781Z" fill="#1C3786"/>
<path d="M66.9281 31.1538C65.008 31.2529 63.113 30.7012 61.3361 29.6912C58.8643 28.2867 57.4629 26.1014 56.9442 23.3606C56.4041 20.5149 56.9655 17.8517 58.7656 15.5654C60.3509 13.553 62.5265 12.4147 65.0196 11.9796C68.4979 11.3716 71.6743 12.1622 74.3164 14.5359C76.5424 16.5386 77.4502 19.1648 77.2702 22.1485C77.125 24.5688 76.2385 26.6784 74.4829 28.3761C72.5531 30.2428 70.2013 31.082 67.5514 31.1519C67.3927 31.1577 67.2301 31.1538 66.9281 31.1538ZM61.3071 21.4978C61.3671 23.7238 61.7213 25.9752 62.7607 28.0828C64.5744 31.7618 68.5792 31.2607 70.3542 29.4114C71.2214 28.5082 71.6898 27.3738 72.0614 26.2063C72.8221 23.8151 72.9015 21.3657 72.5298 18.9045C72.2898 17.3175 71.8698 15.7752 70.9194 14.4388C69.909 13.0169 68.556 12.168 66.7868 12.2865C64.859 12.4147 63.4672 13.4617 62.6446 15.1925C61.7116 17.1466 61.3458 19.2445 61.3071 21.4978Z" fill="#1C3786"/>
<path d="M109.357 42.0101C109.338 42.315 109.317 42.4879 109.317 42.6589C109.315 45.2191 109.311 47.7792 109.319 50.3394C109.321 51.1961 109.441 52.0449 109.895 52.7831C110.087 53.0958 110.432 53.3134 110.706 53.5756C110.792 53.6572 110.873 53.7427 110.954 53.8262C110.838 53.8806 110.72 53.9835 110.604 53.9816C109.566 53.9738 108.529 53.9389 107.489 53.9311C107.118 53.9272 106.744 53.9816 106.373 53.9855C106.284 53.9855 106.193 53.8923 106.102 53.8398C106.152 53.7699 106.193 53.6514 106.254 53.6397C107.406 53.4027 107.683 52.4606 107.931 51.5205C108.033 51.132 108.058 50.7143 108.058 50.3103C108.066 45.3686 108.064 40.4269 108.064 35.4853C108.064 35.291 108.064 35.0968 108.064 34.8559C108.719 34.7918 109.27 34.7122 109.814 35.2638C113.813 39.3217 117.847 43.3465 121.871 47.3791C121.993 47.5015 122.127 47.6161 122.355 47.8278C122.382 47.5442 122.413 47.383 122.413 47.2198C122.415 44.3003 122.456 41.3807 122.388 38.4631C122.369 37.6395 122.096 36.8023 121.819 36.0156C121.703 35.6892 121.271 35.4736 120.975 35.2133C120.88 35.1298 120.764 35.0696 120.657 34.9977C120.783 34.9336 120.911 34.8112 121.037 34.8132C122.01 34.819 122.984 34.8578 123.958 34.8676C124.38 34.8714 124.802 34.8132 125.224 34.819C125.353 34.8209 125.483 34.9375 125.613 35.0016C125.506 35.0676 125.394 35.1278 125.293 35.2036C124.953 35.462 124.536 35.6659 124.298 36C123.805 36.6915 123.65 37.5152 123.652 38.366C123.656 43.3407 123.654 48.3154 123.656 53.2881C123.656 53.9874 123.658 53.9583 122.99 53.9971C122.461 54.0282 122.09 53.8437 121.703 53.4804C117.735 49.745 113.745 46.031 109.762 42.3131C109.671 42.2354 109.564 42.1674 109.357 42.0101Z" fill="#1C3786"/>
<path d="M61.8508 45.0966C61.8411 45.3199 61.8256 45.5103 61.8256 45.7007C61.8237 47.5286 61.8237 49.3545 61.8256 51.1824C61.8256 52.513 62.2786 53.0802 63.5754 53.356C63.8019 53.4046 64.0903 53.4026 63.9858 53.729C63.9452 53.8533 63.6896 53.9815 63.5309 53.9834C61.3359 54.0009 59.1429 53.999 56.9479 53.9854C56.7988 53.9834 56.5685 53.8669 56.522 53.7484C56.4194 53.4823 56.6265 53.4123 56.8666 53.3618C57.9737 53.1229 58.3551 52.6256 58.3628 51.4835C58.3899 47.4547 58.4228 43.428 58.4538 39.3993C58.4596 38.731 58.4906 38.0609 58.4557 37.3966C58.4151 36.6157 57.9834 36.0815 57.2459 35.8484C56.9091 35.7416 56.8104 35.5687 56.8414 35.2462C56.8782 34.8577 57.1666 34.949 57.3911 34.9451C59.9732 34.8966 62.5573 34.8402 65.1394 34.8169C66.6008 34.8033 68.0254 35.052 69.3494 35.6969C71.2967 36.6468 72.4542 38.1638 72.3961 40.4035C72.338 42.6354 71.0276 44.0263 69.1133 44.9159C67.528 45.6521 65.8363 45.6677 64.1426 45.4928C63.3993 45.4151 62.6715 45.2422 61.8508 45.0966ZM61.9456 40.0403C61.9456 41.1825 61.965 42.3246 61.936 43.4649C61.9244 43.8922 62.0889 44.1273 62.4779 44.1855C63.1496 44.2846 63.8251 44.4283 64.4987 44.4167C66.4576 44.3856 67.948 43.2998 68.4184 41.5632C68.5732 40.9921 68.6371 40.3666 68.5945 39.778C68.459 37.9638 67.6383 36.47 65.6311 35.9436C64.5452 35.66 63.4825 35.7163 62.4044 35.9688C62.0463 36.0524 61.934 36.2116 61.9398 36.5671C61.9573 37.7248 61.9456 38.8826 61.9456 40.0403Z" fill="#1C3786"/>
<path d="M144.512 34.7197C144.512 36.1144 144.512 37.4275 144.512 38.762C144.15 38.8747 143.889 38.9174 143.749 38.4202C143.535 37.647 142.965 37.1673 142.238 36.8681C141.34 36.4971 140.397 36.5165 139.454 36.5204C137.991 36.5262 137.991 36.5224 137.991 37.9753C137.991 42.511 137.991 47.0448 137.991 51.5805C137.991 52.6294 138.448 53.2569 139.456 53.5463C139.735 53.6259 139.911 53.7192 139.779 54.063C139.466 54.063 139.148 54.061 138.831 54.063C136.785 54.0766 134.739 54.0941 132.691 54.098C132.561 54.098 132.432 53.9892 132.302 53.9328C132.397 53.8085 132.469 53.6415 132.592 53.5715C132.831 53.4375 133.111 53.3831 133.353 53.253C133.856 52.981 134.075 52.5401 134.073 51.9632C134.064 50.3159 134.071 48.6687 134.071 47.0195C134.071 43.7251 134.064 40.4287 134.079 37.1342C134.081 36.6719 133.957 36.4874 133.477 36.5146C132.587 36.567 131.69 36.5379 130.802 36.6117C129.656 36.7069 128.789 37.2411 128.448 38.4104C128.344 38.7679 128.139 38.8941 127.81 38.8164C127.705 38.7912 127.552 38.6474 127.55 38.5581C127.533 37.3071 127.539 36.0542 127.539 34.745C129.352 35.4346 131.168 35.0927 132.954 35.1257C135.815 35.1782 138.676 35.149 141.537 35.1354C142.526 35.1276 143.55 35.318 144.512 34.7197Z" fill="#1C3786"/>
<path d="M78.9852 11.8957C79.5156 11.8957 80.0169 11.8957 80.5182 11.8957C82.4693 11.8938 84.4185 11.8919 86.3696 11.8919C86.4664 11.8919 86.5787 11.8666 86.658 11.9055C86.7548 11.9521 86.8845 12.055 86.8864 12.1347C86.8884 12.2182 86.7684 12.3542 86.6755 12.3814C85.8373 12.6222 85.4541 13.0399 85.3476 13.9023C85.2973 14.3064 85.2644 14.7143 85.2644 15.1203C85.2586 19.6055 85.2605 24.0907 85.2605 28.5759C85.2605 29.3859 85.2624 29.3898 86.0909 29.3859C87.1303 29.382 88.1717 29.3723 89.2111 29.3684C90.7732 29.3645 91.8571 28.6147 92.5365 27.2278C92.7049 26.8859 93.4076 26.7674 93.6611 27.051C93.7269 27.1248 93.7173 27.2958 93.696 27.4143C93.5063 28.5059 93.3011 29.5937 93.1114 30.6854C93.0514 31.0312 92.9062 31.1671 92.5249 31.1399C90.2254 30.9826 87.9239 30.8291 85.6205 30.7262C83.7023 30.6388 81.7899 30.7728 79.8911 31.0661C79.6588 31.103 79.2794 31.3284 79.2059 30.9224C79.113 30.4057 79.5891 30.6096 79.8233 30.5805C80.5511 30.4873 80.9731 30.1706 81.0718 29.4364C81.1531 28.8284 81.1434 28.2048 81.1396 27.5891C81.1183 23.2845 81.097 18.98 81.0447 14.6754C81.0389 14.2209 80.9053 13.7353 80.7099 13.3235C80.4389 12.7524 79.9569 12.3852 79.2775 12.3969C78.9504 12.3988 78.8846 12.2434 78.9852 11.8957Z" fill="#1C3786"/>
<path d="M103.331 53.8552C102.34 53.8552 101.386 53.8378 100.432 53.8591C99.1658 53.8863 97.8999 53.9485 96.634 53.9815C96.423 53.9873 96.123 54.135 96.0707 53.727C96.0301 53.4065 96.1636 53.2647 96.4695 53.187C97.3347 52.9695 97.7489 52.3459 97.8825 51.5068C97.9308 51.2018 97.9366 50.8891 97.9366 50.5802C97.9405 46.4369 97.9405 42.2936 97.9366 38.1503C97.9366 37.8259 97.9212 37.4976 97.8728 37.1751C97.7586 36.4001 97.3637 35.8018 96.5759 35.6406C96.003 35.524 96.0223 35.2268 96.0997 34.8947C97.1469 34.8947 98.1457 34.9044 99.1464 34.8927C100.331 34.8791 101.514 34.848 102.698 34.8247C102.812 34.8228 102.94 34.7839 103.035 34.8247C103.161 34.8772 103.356 34.9995 103.351 35.0811C103.341 35.2385 103.238 35.4988 103.128 35.526C102.061 35.7863 101.79 36.6196 101.645 37.5423C101.601 37.8297 101.601 38.1269 101.601 38.4203C101.599 42.416 101.585 46.4136 101.614 50.4093C101.618 51.0309 101.761 51.668 101.932 52.2702C102.071 52.7577 102.452 53.1132 102.969 53.2103C103.449 53.2997 103.43 53.5619 103.331 53.8552Z" fill="#1C3786"/>
<path d="M85.9087 58.0142C88.1269 58.0258 89.6831 59.1777 90.0703 60.8618C90.5542 62.9636 89.2612 64.9449 87.1378 65.3393C85.4596 65.6501 83.9692 65.3121 82.951 63.8455C82.0916 62.6081 82.049 61.2348 82.7652 59.9139C83.4969 58.5639 84.7608 58.0783 85.9087 58.0142ZM88.4405 62.173C88.4037 61.0425 88.3205 60.1373 87.8946 59.3059C87.5268 58.5891 86.9771 58.1152 86.1255 58.1637C85.2912 58.2123 84.7473 58.696 84.4473 59.4516C83.8569 60.9376 83.8646 62.4353 84.4318 63.9271C84.7918 64.8731 85.3938 65.3276 86.2242 65.3198C87.0178 65.3121 87.7107 64.8109 88.0185 63.9096C88.2314 63.2841 88.3359 62.6217 88.4405 62.173Z" fill="#1C3786"/>
<path d="M143.472 58.2475C142.187 58.636 141.469 59.718 140.588 60.5882C140.515 60.662 140.524 60.9359 140.6 61.0311C141.556 62.2257 142.526 63.4107 143.511 64.582C143.695 64.7995 143.958 64.9491 144.218 65.157C143.271 65.157 142.336 65.157 141.525 65.157C141.485 64.9103 141.519 64.6305 141.397 64.4693C140.768 63.6379 140.101 62.8376 139.444 62.0296C139.396 61.9713 139.324 61.9324 139.171 61.8139C139.156 62.082 139.135 62.2627 139.135 62.4452C139.133 63.0163 139.137 63.5874 139.144 64.1585C139.15 64.6111 139.255 65.0054 139.756 65.1783C138.86 65.1783 137.966 65.1783 136.913 65.1783C137.52 64.9841 137.638 64.6169 137.64 64.1818C137.642 62.5346 137.662 60.8854 137.627 59.2401C137.619 58.8983 137.4 58.5622 137.284 58.2437C137.997 58.2437 138.839 58.2437 139.679 58.2437C139.218 58.4457 139.154 58.8516 139.146 59.2673C139.133 59.9783 139.142 60.6873 139.142 61.4779C139.65 60.9942 140.083 60.5941 140.503 60.1784C140.78 59.9045 141.049 59.617 141.301 59.3198C141.748 58.7914 141.688 58.537 141.032 58.2514C141.874 58.2475 142.673 58.2475 143.472 58.2475Z" fill="#1C3786"/>
<path d="M115.89 65.2015C116.004 64.8616 116.196 64.5489 116.202 64.2322C116.233 62.5539 116.231 60.8756 116.202 59.1993C116.196 58.8807 116.012 58.5641 115.919 58.2688C116.912 58.2688 118.039 58.2222 119.159 58.2863C119.831 58.3251 120.363 58.9953 120.452 59.6927C120.543 60.4075 120.212 60.9708 119.519 61.2913C119.421 61.3379 119.326 61.3943 119.136 61.4953C119.37 61.5827 119.525 61.641 119.68 61.6973C120.543 62.012 120.956 62.7812 120.793 63.7796C120.65 64.6615 120.017 65.1977 119.099 65.2035C118 65.2054 116.897 65.2015 115.89 65.2015ZM117.429 63.1095C117.431 63.1095 117.431 63.1095 117.431 63.1095C117.431 63.4183 117.421 63.7272 117.433 64.036C117.46 64.6984 117.787 64.9684 118.443 64.881C119.15 64.7878 119.512 64.2808 119.508 63.3834C119.504 62.4568 119.041 61.8838 118.215 61.7828C117.508 61.6954 117.427 61.7672 117.427 62.4743C117.429 62.686 117.429 62.8978 117.429 63.1095ZM117.431 59.9568C117.429 60.2987 117.448 60.6406 117.423 60.9805C117.394 61.3632 117.584 61.4564 117.917 61.4467C118.786 61.4234 119.283 60.7746 119.177 59.7917C119.078 58.8846 118.598 58.4359 117.785 58.5408C117.655 58.5582 117.464 58.7505 117.446 58.8826C117.4 59.2362 117.431 59.5994 117.431 59.9568Z" fill="#1C3786"/>
<path d="M92.0041 60.8468C92.0041 62.0667 91.9732 63.1409 92.0235 64.2092C92.039 64.5336 92.279 64.8464 92.4184 65.1649C91.9848 65.1649 91.5106 65.1649 90.9492 65.1649C91.5125 64.7551 91.5783 64.2189 91.5783 63.6556C91.5764 62.0259 91.5744 60.3961 91.5841 58.7664C91.5841 58.6052 91.6654 58.442 91.708 58.2808C91.8919 58.3507 92.1222 58.374 92.25 58.5003C93.5933 59.825 94.9192 61.1673 96.2528 62.5037C96.3748 62.6261 96.5064 62.7426 96.7251 62.9466C96.7561 62.6824 96.7871 62.5348 96.7871 62.3852C96.7909 61.4878 96.8258 60.5904 96.7754 59.6968C96.7483 59.2229 96.5645 58.7586 96.4522 58.2885C96.8045 58.2885 97.2903 58.2885 97.8575 58.2885C97.2961 58.6634 97.2032 59.1685 97.2071 59.726C97.2148 61.3402 97.209 62.9524 97.211 64.5666C97.211 64.759 97.211 64.9513 97.211 65.2951C96.909 65.161 96.6671 65.1183 96.5141 64.9785C95.1457 63.7294 93.7927 62.461 92.4338 61.2003C92.3274 61.1071 92.2171 61.0235 92.0041 60.8468Z" fill="#1C3786"/>
<path d="M62.8304 62.8106C62.6639 61.3187 63.1653 59.7725 62.4181 58.2943C62.8304 58.2943 63.3162 58.2943 63.8447 58.2943C63.3298 58.6517 63.2117 59.149 63.2137 59.7104C63.2214 61.3246 63.2156 62.9388 63.2156 64.553C63.2156 64.7453 63.2156 64.9395 63.2156 65.3008C62.902 65.1532 62.6543 65.0988 62.4917 64.9512C61.1483 63.7197 59.8224 62.4706 58.4907 61.2274C58.3785 61.1226 58.2526 61.0351 58.063 60.971C58.1733 62.3716 57.6507 63.8129 58.4269 65.1552C58.0146 65.1552 57.5249 65.1552 56.979 65.1552C57.6081 64.7375 57.5945 64.1101 57.5926 63.4788C57.5868 61.9287 57.5849 60.3805 57.5984 58.8304C57.6003 58.642 57.701 58.4555 57.7571 58.269C57.9488 58.3623 58.183 58.4147 58.3262 58.5565C59.6579 59.8716 60.9741 61.2022 62.2981 62.527C62.4181 62.6474 62.5517 62.7542 62.6775 62.8669C62.7278 62.8475 62.7801 62.8281 62.8304 62.8106Z" fill="#1C3786"/>
<path d="M134.965 62.8087C134.965 62.358 134.969 61.9074 134.963 61.4567C134.955 60.7244 134.977 59.9882 134.911 59.2598C134.882 58.9315 134.675 58.6207 134.549 58.3002C134.938 58.3002 135.424 58.3002 135.981 58.3002C135.331 58.7858 135.366 59.4657 135.37 60.1417C135.375 61.6082 135.372 63.0748 135.372 64.5414C135.372 64.7337 135.372 64.9279 135.372 65.299C135.035 65.1377 134.758 65.0756 134.576 64.9066C133.256 63.6984 131.957 62.4707 130.651 61.2508C130.534 61.142 130.409 61.0469 130.213 60.9653C130.31 62.3678 129.778 63.8149 130.587 65.1669C130.171 65.1669 129.696 65.1669 129.156 65.1669C129.735 64.724 129.756 64.1218 129.752 63.5022C129.743 61.9385 129.745 60.3728 129.754 58.8091C129.756 58.6324 129.841 58.4575 129.89 58.2808C130.085 58.3662 130.327 58.4031 130.471 58.543C131.814 59.8678 133.14 61.212 134.471 62.5484C134.582 62.6591 134.704 62.7582 134.82 62.8631C134.868 62.8456 134.917 62.8262 134.965 62.8087Z" fill="#1C3786"/>
<path d="M70.9508 65.2386C69.9985 65.2386 69.0442 65.2386 68.1113 65.2386C68.2487 65.0929 68.4887 64.9531 68.5313 64.7685C68.5797 64.5549 68.481 64.2926 68.4016 64.0654C67.8906 62.6046 67.8867 62.6318 66.3595 62.6027C65.835 62.593 65.5891 62.7678 65.4846 63.2612C65.4207 63.5603 65.2756 63.842 65.1865 64.1392C65.053 64.5859 65.0607 64.99 65.5911 65.2581C65.3143 65.2581 65.0356 65.2581 64.7588 65.2581C64.4665 65.2581 64.1742 65.2581 63.8374 65.2581C65.0607 64.2888 65.1304 62.793 65.6608 61.5246C66.0614 60.565 66.375 59.5685 66.7041 58.5817C66.8008 58.2884 66.9402 58.166 67.2557 58.1641C67.5751 58.1622 67.757 58.2496 67.8771 58.5662C68.5545 60.363 69.2572 62.1501 69.9424 63.943C70.1456 64.4733 70.3605 64.9783 70.9508 65.2386ZM67.6622 62.1676C67.3641 61.3809 67.0893 60.6563 66.8144 59.9337C66.7641 59.9318 66.7118 59.9298 66.6615 59.9298C66.406 60.6544 66.1505 61.3789 65.8717 62.1695C66.5163 62.1676 67.0389 62.1676 67.6622 62.1676Z" fill="#1C3786"/>
<path d="M98.2368 65.2264C98.9801 64.8671 99.2085 64.2804 99.4195 63.6763C100.008 61.9864 100.606 60.3003 101.189 58.6064C101.291 58.3092 101.421 58.1558 101.771 58.1577C102.125 58.1597 102.284 58.2937 102.406 58.6142C103.06 60.3489 103.744 62.0718 104.398 63.8065C104.619 64.3931 104.828 64.9642 105.478 65.2323C104.518 65.2323 103.558 65.2323 102.584 65.2323C103.126 64.8651 103.161 64.7466 102.929 64.1076C102.381 62.6002 102.381 62.6157 100.769 62.6041C100.335 62.6002 100.11 62.7381 100.012 63.1596C99.9382 63.4743 99.8066 63.7773 99.704 64.0862C99.5027 64.6961 99.5666 64.871 100.163 65.2245C99.5414 65.2264 98.9685 65.2264 98.2368 65.2264ZM101.318 59.9332C101.262 59.9371 101.206 59.9429 101.148 59.9468C100.896 60.6694 100.647 61.392 100.381 62.1554C101.016 62.1554 101.539 62.1554 102.155 62.1554C101.856 61.3687 101.587 60.6519 101.318 59.9332Z" fill="#1C3786"/>
<path d="M123.117 65.1742C122.575 65.1742 122.035 65.1742 121.352 65.1742C122.045 64.8168 122.285 64.2768 122.484 63.7038C123.073 62.0138 123.671 60.3277 124.261 58.6378C124.36 58.3542 124.437 58.1172 124.844 58.1288C125.217 58.1385 125.38 58.2687 125.508 58.6067C126.166 60.3569 126.851 62.0993 127.521 63.8456C127.732 64.3953 127.929 64.9528 128.57 65.1781C127.623 65.1781 126.677 65.1781 125.581 65.1781C126.232 64.947 126.183 64.5759 126.042 64.1505C125.518 62.5577 125.523 62.5693 123.845 62.5596C123.433 62.5577 123.214 62.684 123.113 63.086C123.026 63.4318 122.895 63.7679 122.773 64.1039C122.618 64.5429 122.664 64.9042 123.117 65.1742ZM124.422 59.914C124.364 59.914 124.306 59.912 124.248 59.912C123.996 60.6346 123.744 61.3572 123.475 62.1303C124.126 62.1303 124.646 62.1303 125.26 62.1303C124.962 61.3436 124.691 60.6288 124.422 59.914Z" fill="#1C3786"/>
<path d="M76.9876 58.1406C76.9876 58.6301 76.9876 59.1021 76.9876 59.5761C76.9334 59.6111 76.8792 59.648 76.8269 59.6829C76.8037 59.6033 76.7844 59.5237 76.7553 59.446C76.5424 58.8943 76.0953 58.7039 75.5552 58.7039C74.2971 58.702 74.51 58.566 74.4984 59.7082C74.4848 61.1437 74.5022 62.5792 74.4906 64.0127C74.4868 64.5664 74.4461 65.1161 75.11 65.39C74.2351 65.39 73.3602 65.39 72.4853 65.39C73.2073 65.0656 73.0408 64.4304 73.0428 63.8632C73.0486 62.3306 73.0273 60.796 73.0563 59.2653C73.0641 58.7991 72.9034 58.6379 72.4679 58.6981C72.4195 58.7039 72.3711 58.6981 72.3227 58.6981C71.4285 58.6981 71.4285 58.6981 70.5923 59.6422C70.5923 59.0905 70.5923 58.6126 70.5923 58.1387C72.7099 58.1406 74.8313 58.1406 76.9876 58.1406Z" fill="#1C3786"/>
<path d="M106.08 65.192C106.7 65.0425 106.682 64.5685 106.678 64.0965C106.669 62.5153 106.657 60.9341 106.659 59.3529C106.659 58.8887 106.5 58.5332 105.979 58.2632C106.922 58.2632 107.751 58.2632 108.666 58.2632C108.165 58.5623 108.142 59.0072 108.144 59.4675C108.149 61.0001 108.163 62.5328 108.138 64.0654C108.13 64.5258 108.289 64.685 108.728 64.6365C108.937 64.6132 109.15 64.6248 109.361 64.6345C109.971 64.6598 110.482 64.4986 110.809 63.9294C110.859 63.842 111.004 63.809 111.107 63.7507C111.142 63.8595 111.221 63.976 111.206 64.0751C110.981 65.495 111.155 65.1998 109.955 65.1745C108.742 65.1473 107.526 65.1843 106.31 65.192C106.233 65.192 106.156 65.192 106.08 65.192Z" fill="#1C3786"/>
<path d="M78.3908 58.1265C79.3025 58.1265 80.2141 58.1265 81.1258 58.1265C80.4077 58.4781 80.4677 59.1094 80.4677 59.7115C80.4677 61.1451 80.4716 62.5767 80.4677 64.0103C80.4658 64.5405 80.5413 65.0242 81.0987 65.337C80.1987 65.337 79.2986 65.337 78.3985 65.337C79.1147 65.0184 79.0605 64.4143 79.0547 63.8141C79.0431 62.4796 79.0566 61.1431 79.0489 59.8087C79.045 59.1754 79.2366 58.4509 78.2456 58.2255C78.294 58.1945 78.3424 58.1614 78.3908 58.1265Z" fill="#1C3786"/>
<path d="M17.1343 29.3413C17.0666 30.0328 17.0085 30.6408 16.9485 31.2683C16.4665 31.2663 16.3465 30.9477 16.2807 30.6098C16.1762 30.0853 16.424 29.6987 17.1343 29.3413Z" fill="#1C3786"/>
<path d="M34.5568 67.4585C33.4593 67.4585 32.4412 67.4643 31.4211 67.4546C31.0533 67.4507 31.1017 67.1516 31.0978 66.9146C31.0785 65.6597 31.0611 64.4049 31.0475 63.1481C31.0417 62.6489 31.0475 62.1497 31.0475 61.7087C31.9534 61.7087 32.8263 61.6912 33.6954 61.7282C33.8077 61.732 33.9858 62.004 34.0051 62.1672C34.1716 63.558 34.311 64.9527 34.4542 66.3474C34.489 66.6854 34.5161 67.0234 34.5568 67.4585Z" fill="#1C3786"/>
<path d="M32.755 42.1129C32.755 43.0569 32.7414 44.0029 32.7608 44.9469C32.7685 45.3218 32.6543 45.4772 32.2653 45.4636C31.5665 45.4403 30.8677 45.452 30.169 45.4598C29.9251 45.4617 29.7799 45.417 29.7702 45.1159C29.7102 43.325 29.6406 41.534 29.5573 39.743C29.5418 39.405 29.6793 39.3176 29.9812 39.3234C30.7129 39.3351 31.4446 39.3468 32.1743 39.3196C32.5556 39.306 32.6621 39.4886 32.6621 39.8129C32.664 40.5802 32.6621 41.3456 32.6621 42.1129C32.693 42.1129 32.724 42.1129 32.755 42.1129Z" fill="#1C3786"/>
</svg>
