<?xml version="1.0" encoding="utf-8"?>
<!-- Generator: Adobe Illustrator 28.1.0, SVG Export Plug-In . SVG Version: 6.00 Build 0)  -->
<svg version="1.1" id="Layer_1" xmlns="http://www.w3.org/2000/svg" xmlns:xlink="http://www.w3.org/1999/xlink" x="0px" y="0px"
	 viewBox="0 0 720.54 230.03" style="enable-background:new 0 0 720.54 230.03;" xml:space="preserve">
<style type="text/css">
	.st0{fill:#511624;}
</style>
<g>
	<path class="st0" d="M0.02,82.7c1.29-0.07,2.4-0.19,3.5-0.19c21.93-0.01,43.86,0.05,65.79-0.08c3.26-0.02,4.49,0.88,4.24,4.2
		c-0.25,3.35-0.06,6.74-0.06,9.84c-4.99-1.95-9.52-4.39-14.36-5.49c-10.59-2.41-21.16-1.84-30.56,4.13
		c-7.72,4.91-8.14,7.2,0.14,11.66c14.14,7.62,28.69,7.37,42.73-1.04c0.46-0.28,0.92-0.55,1.76-1.06c0.12,1.34,0.27,2.3,0.27,3.25
		c0.01,14.66-0.08,29.31,0.08,43.97c0.04,3.31-0.97,4.19-4.23,4.17c-21.93-0.14-43.86-0.07-65.79-0.08c-1.11,0-2.23-0.1-3.53-0.15
		C0.02,131.49,0.02,107.33,0.02,82.7z"/>
	<path class="st0" d="M82.29,104.86c12.8,8.32,26.08,8.96,39.74,4.25c3.31-1.14,6.18-3.65,9.11-5.74c1.96-1.4,1.8-3.06,0.09-4.83
		c-4.48-4.62-10.11-6.92-16.24-7.92c-11.31-1.85-22.18-0.94-31.84,6.1c-0.15,0.11-0.42,0.03-1.12,0.06c0-4.16-0.13-8.31,0.13-12.44
		c0.04-0.67,1.85-1.73,2.87-1.76c5.22-0.18,10.45-0.09,15.67-0.09c16.93,0,33.86,0.06,50.78-0.06c2.95-0.02,3.94,0.78,3.93,3.82
		c-0.11,22.04-0.1,44.08-0.01,66.12c0.01,2.78-0.79,3.7-3.66,3.68c-22.15-0.11-44.31-0.08-66.46-0.03
		c-2.17,0.01-3.36-0.36-3.35-2.92c0.08-15.56,0.05-31.13,0.06-46.69C81.99,105.98,82.15,105.55,82.29,104.86z"/>
	<path class="st0" d="M81.67,70.37c0-7.74-0.03-14.42,0.03-21.09c0.01-0.84,0.28-1.82,0.76-2.5c10.95-15.42,9.85-30.82,0.15-46.59
		c0.7-0.04,1.54-0.12,2.38-0.12c22.16-0.01,44.33,0.05,66.49-0.07c2.93-0.02,3.95,0.71,3.93,3.77c-0.11,22.05-0.07,44.1-0.05,66.15
		c0,2.11-0.05,3.71-2.97,3.69c-15.46-0.11-30.91-0.05-46.37-0.06c-0.31,0-0.61-0.14-0.6-0.13c3.15-3.35,6.58-6.63,9.56-10.26
		c5.42-6.6,9.33-13.92,9.64-22.77c0.1-2.81-0.93-3.9-3.75-3.78c-10,0.44-17.91,5.3-25.01,11.79C89.5,54.21,84.7,61.13,81.67,70.37z"
		/>
	<path class="st0" d="M583.68,120.75c0-28.43,0-56.8,0-85.16c0.17-0.14,0.35-0.4,0.51-0.39c14.51,0.35,29.28-0.89,43.46,1.45
		c26.44,4.35,35.02,26.88,32.62,47.01c-2.77,23.18-17.95,36.31-42.75,37.31c-10.78,0.44-21.58,0.07-32.38,0.05
		C584.71,121.01,584.28,120.86,583.68,120.75z M590.54,115.29c7.98,0,15.79,0.08,23.6-0.04c3.05-0.04,6.14-0.29,9.15-0.83
		c17.46-3.14,29.28-16.79,29.88-34.34c0.65-18.92-9.49-34.06-27.29-37.57c-11.42-2.25-23.4-1.7-35.34-2.41
		C590.54,65.73,590.54,90.34,590.54,115.29z"/>
	<path class="st0" d="M426.2,35.02c2.28,0,4.4-0.07,6.53,0.01c8.72,0.32,17.58-0.18,26.13,1.24c13.07,2.16,19.62,12.22,17.62,25.05
		c-1.13,7.26-5.63,11.94-11.93,15.16c-1.07,0.55-2.16,1.03-3.1,1.47c11.94,12.82,19.57,28.39,29.72,42.46
		c-6.39,1.58-7.52,1.14-10.54-3.52c-5.92-9.15-11.85-18.29-17.8-27.43c-4.46-6.85-10.62-10.28-18.97-9.63
		c-3.48,0.27-6.99,0.05-10.86,0.05c0,13.8,0,27.26,0,40.93c-2.47,0-4.55,0-6.8,0C426.2,92.21,426.2,63.85,426.2,35.02z
		 M433.05,74.17c8.78-0.38,17.32,1.1,25.59-1.81c6.98-2.45,10.79-7.75,10.82-14.88c0.03-6.98-3.59-12.19-10.45-14.77
		c-8.44-3.18-17.18-1.5-25.96-2.01C433.05,52.05,433.05,62.81,433.05,74.17z"/>
	<path class="st0" d="M226.7,77.93c11.86,12.84,19.51,28.43,29.67,42.48c-6.36,1.63-7.5,1.2-10.5-3.46
		c-5.65-8.79-11.38-17.52-16.97-26.35c-4.86-7.68-11.48-11.67-20.8-10.77c-3.14,0.3-6.32,0.05-9.82,0.05c0,13.73,0,27.2,0,40.92
		c-2.43,0-4.52,0-6.81,0c0-28.47,0-56.84,0-85.22c0.17-0.14,0.35-0.39,0.51-0.39c10.76,0.29,21.68-0.42,32.25,1.16
		c13.7,2.05,20.55,14.15,16.94,27.17c-1.66,6.01-5.72,9.92-11.04,12.74C228.97,76.88,227.76,77.42,226.7,77.93z M198.25,73.5
		c7.45,0,14.63,0.62,21.66-0.16c8.76-0.97,13.93-6.6,14.6-14.17c0.7-8.01-2.98-13.95-10.63-16.63c-8.35-2.93-16.98-1.48-25.63-1.74
		C198.25,52.05,198.25,62.83,198.25,73.5z"/>
	<path class="st0" d="M720.54,115.25c0,2.14,0,3.71,0,5.54c-15.93,0-31.75,0-47.81,0c0-28.49,0-56.84,0-85.48
		c15.51,0,30.99,0,46.69,0c0,1.73,0,3.37,0,5.38c-13.26,0-26.38,0-39.75,0c0,11.54,0,22.7,0,34.17c12.88,0,25.68,0,38.7,0
		c0,1.93,0,3.56,0,5.58c-12.74,0-25.52,0-38.63,0c0,11.73,0,23.1,0,34.81C693.27,115.25,706.74,115.25,720.54,115.25z"/>
	<path class="st0" d="M411.55,35.29c0,1.85,0,3.42,0,5.4c-13.32,0-26.55,0-39.96,0c0,11.51,0,22.61,0,34.09c12.82,0,25.71,0,38.82,0
		c0,2.03,0,3.67,0,5.65c-12.89,0-25.68,0-38.73,0c0,11.72,0,23.1,0,34.81c13.54,0,27.01,0,40.75,0c0,1.96,0,3.6,0,5.53
		c-15.84,0-31.68,0-47.7,0c0-28.46,0-56.83,0-85.48C380.23,35.29,395.73,35.29,411.55,35.29z"/>
	<path class="st0" d="M494.52,106.49c4.76,2.75,8.25,5.05,11.99,6.86c9.09,4.42,18.47,2.9,24.4-3.68c6.4-7.1,5.46-18.31-2.43-23.63
		c-3.9-2.63-8.47-4.27-12.78-6.26c-3.09-1.42-6.32-2.54-9.37-4.04c-7.38-3.61-11.95-9.23-12.19-17.79
		c-0.25-9.15,3.67-16.12,11.51-20.54c10.76-6.07,21.56-4.11,31.79,1.4c1.48,0.8,1.33,4.64,1.93,7.08c-0.33,0.16-0.67,0.32-1,0.48
		c-2.7-1.31-5.35-2.75-8.12-3.89c-6.79-2.81-13.65-3.49-20.36,0.21c-5.14,2.84-8.02,7.2-8.32,13.17
		c-0.31,6.14,2.54,10.55,7.72,13.35c3.67,1.99,7.66,3.4,11.5,5.06c3.12,1.35,6.36,2.47,9.35,4.07c9.2,4.93,13.43,12.85,12.21,22.35
		c-1.34,10.42-8.2,18.29-18.11,20.64c-10.2,2.42-19.45-0.35-27.67-6.18C494.93,113.99,495.27,110.01,494.52,106.49z"/>
	<path class="st0" d="M280.4,35.46c6.31-1.1,6.31-1.08,8.48,4.09c8.94,21.34,17.89,42.68,26.84,64.02c0.43,1.02,0.93,2.01,1.67,3.6
		c0.94-2.24,1.67-3.98,2.4-5.73c8.55-20.52,17.1-41.04,25.64-61.57c2.19-5.26,2.18-5.26,8.62-4.58c-0.33,0.97-0.58,1.89-0.94,2.77
		c-11.2,27.04-22.4,54.07-33.65,81.08c-0.43,1.04-1.4,1.85-2.12,2.77c-0.69-0.77-1.66-1.43-2.03-2.33
		c-11.43-27.31-22.8-54.64-34.17-81.97C280.87,36.98,280.69,36.33,280.4,35.46z"/>
	<path class="st0" d="M557.51,35.15c2.23,0,4.13,0,6.33,0c0,28.56,0,56.99,0,85.66c-2.06,0-4.05,0-6.33,0
		C557.51,92.36,557.51,63.93,557.51,35.15z"/>
	<path class="st0" d="M263.61,35.25c2.23,0,4.32,0,6.56,0c0,28.6,0,56.95,0,85.55c-2.24,0-4.33,0-6.56,0
		C263.61,92.22,263.61,63.85,263.61,35.25z"/>
	<path class="st0" d="M149.07,200.37c0-5.54,0-10.84,0-16.23c1.37,0,2.46,0,3.75,0c0,14.98,0,29.8,0,45.32
		c-1.43-0.4-2.64-0.83-3.89-1.04c-0.64-0.11-1.39,0.06-2.01,0.3c-6.77,2.65-13.21,1.24-17.62-3.92c-4.21-4.92-4.92-13.11-1.64-18.85
		c3.55-6.2,10.23-8.8,17.58-6.81C146.41,199.47,147.57,199.89,149.07,200.37z M148.99,214.54c0-2.61,0.13-5.24-0.07-7.83
		c-0.07-0.93-0.73-2.14-1.5-2.62c-4.57-2.84-11.01-2.11-14.47,1.47c-3.76,3.9-4.31,10.84-1.23,15.48c3.03,4.56,8.56,6.35,13.79,4.53
		c2.35-0.82,3.93-1.99,3.53-4.9C148.77,218.66,148.99,216.59,148.99,214.54z"/>
	<path class="st0" d="M41.41,229.94c-9.07,0.02-15.57-6.55-15.55-15.7c0.03-8.97,6.55-15.71,15.27-15.79
		c8.89-0.08,15.52,6.7,15.5,15.85C56.6,223.46,50.31,229.93,41.41,229.94z M52.44,214.26c-0.02-6.92-4.8-11.93-11.31-11.87
		c-6.32,0.06-11.02,5.05-11.09,11.79c-0.07,6.85,4.74,12.04,11.18,12.08C47.66,226.3,52.46,221.17,52.44,214.26z"/>
	<path class="st0" d="M234.1,229.94c-8.94-0.02-15.21-6.46-15.21-15.63c-0.01-9.18,6.57-15.92,15.47-15.86
		c8.72,0.06,15.18,6.73,15.27,15.79C249.73,223.34,243.18,229.96,234.1,229.94z M223.07,214.38c0.03,6.91,4.86,11.97,11.33,11.87
		c6.29-0.09,11-5.15,11.05-11.87c0.06-6.8-4.84-12.04-11.23-12.02C227.68,202.39,223.03,207.4,223.07,214.38z"/>
	<path class="st0" d="M72.85,0.06c-1.36,3.59-3.38,4.61-6.72,4.59C45.67,4.48,25.21,4.57,4.75,4.56c-0.8,0-1.74,0.27-2.35-0.07
		C1.52,4,0.32,3.07,0.31,2.32c0-0.75,1.27-2.11,2.03-2.15c4.19-0.22,8.41-0.11,12.61-0.11c17.96,0,35.92,0,53.87,0
		C70.05,0.06,71.28,0.06,72.85,0.06z"/>
	<path class="st0" d="M179.62,226.46c1.94-1.09,3.18-1.79,4.42-2.49c0.84,2.97,0.35,3.74-3.41,5.37c-2.72,1.18-3.53,0.87-5.03-1.52
		c-2.99,0.73-5.77,1.68-8.62,2.05c-3.53,0.45-6.14-1.34-7.67-4.49c-1.47-3.03-0.98-7.39,1.86-9.32c3.07-2.09,6.81-3.25,10.33-4.63
		c1.21-0.48,2.63-0.42,4.04-0.62c0.19-3.05,0.87-6.22-2.02-7.95c-4.64-2.77-8.65,0.02-12.64,2.41c-1.01-2.67-0.26-4.42,2.27-5.06
		c2.82-0.71,5.73-1.67,8.56-1.57c5.21,0.18,7.88,3.43,7.9,8.66C179.63,213.43,179.62,219.54,179.62,226.46z M175.69,213.17
		c-4,1.52-7.42,2.48-10.51,4.09c-2.42,1.26-3.33,3.87-2.33,6.48c1.06,2.75,3.79,3.64,6.22,2.75c2.42-0.88,5.24-2.44,6.39-4.52
		C176.54,219.99,175.69,216.94,175.69,213.17z"/>
	<path class="st0" d="M-0.2,184.16c7.9,0,15.57,0,23.41,0c0,1.14,0,2.09,0,3.35c-6.48,0-12.79,0-19.29,0c0,5.48,0,10.64,0,16.1
		c5.72,0,11.36,0,17.26,0c0,1.32,0,2.35,0,3.64c-5.69,0-11.34,0-17.33,0c0,7.33,0,14.43,0,21.76c-1.52,0-2.69,0-4.06,0
		C-0.2,214.17-0.2,199.33-0.2,184.16z"/>
	<path class="st0" d="M64.93,19.85c0,1.73,0,2.84,0,4.2c-0.97,0.11-1.84,0.29-2.7,0.29c-19.64,0.02-39.28,0.04-58.92-0.06
		c-1.04-0.01-2.74-0.81-3-1.61C-0.4,20.5,0.93,19.8,3.1,19.81c11.01,0.08,22.03,0.03,33.04,0.03c8.29,0,16.58,0,24.86,0
		C62.22,19.85,63.45,19.85,64.93,19.85z"/>
	<path class="st0" d="M280.36,229.09c-1.38,0-2.38,0-3.81,0c0-3.02,0.03-6.05-0.01-9.07c-0.05-3.63,0.14-7.3-0.33-10.87
		c-0.68-5.09-3.58-7.17-8.44-6.71c-4.51,0.42-8.21,4.17-8.23,8.36c-0.02,6,0,12.01,0,18.24c-1.28,0-2.34,0-3.61,0
		c0-9.92,0-19.75,0-29.76c1.2,0,2.28,0,3.49,0c0.07,1.09,0.14,2.09,0.24,3.57c1.04-0.87,1.81-1.58,2.64-2.21
		c6.53-4.9,16.09-1.34,17.62,6.6c0.3,1.55,0.41,3.16,0.42,4.74C280.39,217.62,280.36,223.28,280.36,229.09z"/>
	<path class="st0" d="M62.87,199.23c1.33,0,2.31,0,3.63,0c0,6-0.03,11.88,0.01,17.75c0.03,4.99,1.71,7.72,5.33,8.87
		c3.87,1.23,7.75-0.1,10.36-3.84c0.77-1.11,1.23-2.66,1.26-4.03c0.13-6.21,0.06-12.43,0.06-18.76c1.33,0,2.31,0,3.56,0
		c0,9.89,0,19.7,0,29.83c-1.04,0.07-2.1,0.14-3.35,0.22c-0.14-1.14-0.26-2.05-0.33-2.63c-2.45,1.12-4.66,2.76-7.06,3.13
		c-7.96,1.21-13.01-2.87-13.49-10.91c-0.35-5.77-0.12-11.57-0.14-17.35C62.69,200.84,62.79,200.17,62.87,199.23z"/>
	<path class="st0" d="M98.67,229.15c-1.41,0-2.3,0-3.44,0c0-9.91,0-19.73,0-29.87c0.98-0.06,2.04-0.13,3.22-0.2
		c0.14,1.21,0.25,2.21,0.4,3.53c0.73-0.53,1.34-0.93,1.89-1.39c3.55-3,7.6-3.52,11.81-1.97c3.97,1.46,6.38,4.59,6.55,8.75
		c0.28,6.89,0.08,13.8,0.08,21.03c-0.89,0.06-1.95,0.14-3.51,0.25c0-2.96,0.02-5.64,0-8.32c-0.03-3.75,0.1-7.51-0.19-11.23
		c-0.41-5.2-3.33-7.64-8.29-7.32c-4.73,0.3-8.49,4-8.51,8.42C98.66,216.83,98.67,222.82,98.67,229.15z"/>
	<path class="st0" d="M66.86,10.34c0.22,3.18-1.04,4.16-3.8,4.15c-19.78-0.07-39.56-0.03-59.34-0.06c-1.49,0-3.39,0.45-3.53-2.04
		C0.05,9.99,1.7,9.97,3.36,9.97c20.35,0,40.7,0,61.05,0.02C65.17,9.98,65.94,10.2,66.86,10.34z"/>
	<path class="st0" d="M66.1,33.91c-1.05,0.12-1.93,0.31-2.81,0.31c-19.88,0.02-39.76,0.02-59.64,0.01c-0.68,0-1.52,0.15-2-0.18
		c-0.63-0.44-1.41-1.32-1.35-1.94c0.07-0.79,0.77-1.73,1.47-2.19c0.57-0.38,1.54-0.18,2.34-0.18c19.31-0.01,38.63,0.04,57.94-0.05
		C64.87,29.68,66.35,30.5,66.1,33.91z"/>
	<path class="st0" d="M194.53,189.13c0,3.55,0,6.55,0,9.84c2.8,0,5.26,0,7.8,0c0.93,2.47,0.51,3.65-2.15,3.48
		c-1.68-0.1-3.37-0.02-5.4-0.02c0,7.24-0.11,14.24,0.13,21.23c0.03,0.89,1.84,2.35,2.92,2.44c1.96,0.16,3.98-0.51,6.14-0.86
		c1.06,2.46-0.06,3.8-2.6,4.35c-6.44,1.39-11.12-0.81-10.73-8.02c0.34-6.21,0.07-12.46,0.07-18.72c-2.76-0.37-5.26-0.66-7.73-1.14
		c-0.18-0.04-0.1-1.43-0.17-2.56c2.63,0,5.08,0,7.54,0C191.35,195.65,189.24,191.31,194.53,189.13z"/>
	<path class="st0" d="M50.32,73.56c-4.75,0-9.49,0-14.24,0c-10.91,0-21.83-0.01-32.74,0c-1.65,0-3.22,0.11-3.23-2.33
		c0-2.52,1.66-2.22,3.26-2.22c13.3,0,26.6-0.16,39.9,0.15c2.5,0.06,4.96,2.03,7.44,3.11C50.58,72.7,50.45,73.13,50.32,73.56z"/>
	<path class="st0" d="M40.21,63.86c-6.53,0-13.06,0-19.59,0c-5.89,0-11.78-0.03-17.68,0.02c-1.69,0.02-3.2-0.26-2.69-2.29
		c0.23-0.91,1.6-2.16,2.47-2.17c10.99-0.15,21.99-0.25,32.97,0.06c1.71,0.05,3.37,2.21,5.05,3.39
		C40.56,63.2,40.39,63.53,40.21,63.86z"/>
	<path class="st0" d="M33.61,53.75c-10.52,0-21.04,0.04-31.56-0.11c-0.64-0.01-1.65-1.55-1.75-2.46c-0.06-0.57,1.25-1.85,1.96-1.86
		c9.52-0.13,19.04-0.21,28.56,0.08c1.19,0.04,2.32,2.3,3.47,3.53C34.07,53.2,33.84,53.47,33.61,53.75z"/>
	<path class="st0" d="M30.74,39.64c0,1.65,0,2.77,0,4.43c-1.94,0-3.82,0-5.7,0c-7.5,0-15,0.06-22.49-0.09
		c-0.81-0.02-2.18-1.21-2.24-1.94c-0.06-0.75,1.17-2.29,1.85-2.3C11.57,39.59,20.98,39.64,30.74,39.64z"/>
	<path class="st0" d="M212.11,229.08c-1.29,0-2.37,0-3.62,0c0-9.98,0-19.81,0-29.81c1.2,0,2.28,0,3.62,0
		C212.11,209.09,212.11,218.89,212.11,229.08z"/>
	<path class="st0" d="M69.98,44.07c-7.43-0.63-15.49,2.31-22.08-4.43c6.48,0,12.77-0.18,19.04,0.15c1.28,0.07,2.45,2.07,3.67,3.19
		C70.4,43.34,70.19,43.71,69.98,44.07z"/>
	<path class="st0" d="M60.9,49.36c4.26,0,8.06,0,12.69,0c-0.43,1.61-0.35,3.57-1.21,4.13C69.73,55.25,64.14,53.19,60.9,49.36z"/>
	<path class="st0" d="M212.12,189.73c-1.34,0-2.41,0-3.62,0c0-1.94,0-3.68,0-5.59c1.23,0,2.3,0,3.62,0
		C212.12,185.95,212.12,187.68,212.12,189.73z"/>
	<path class="st0" d="M69.79,58.89c1.21,0.65,2.63,1.11,3.52,2.05c0.35,0.37-0.48,1.86-0.77,2.83c-1.23-1.18-2.46-2.36-3.68-3.54
		C69.16,59.78,69.47,59.33,69.79,58.89z"/>
</g>
</svg>
