<?xml version="1.0" encoding="utf-8"?>
<!-- Generator: Adobe Illustrator 28.1.0, SVG Export Plug-In . SVG Version: 6.00 Build 0)  -->
<svg version="1.1" id="Layer_1" xmlns="http://www.w3.org/2000/svg" xmlns:xlink="http://www.w3.org/1999/xlink" x="0px" y="0px"
	 viewBox="0 0 735.51 168.58" style="enable-background:new 0 0 735.51 168.58;" xml:space="preserve">
<style type="text/css">
	.st0{fill:#511624;}
</style>
<g>
	<path class="st0" d="M0,0.41c1,0.07,1.99,0.2,2.99,0.2c20.66,0.01,41.33,0,61.99,0.01c1.14,0,2.27,0.1,3.53,0.16
		c0,9.69,0,19.17,0,28.93c-5.75,0-11.44,0-17.43,0c0,30.04,0,59.79,0,89.69c-11.34,0-22.38,0-33.71,0c0-29.75,0-59.51,0-89.32
		c-5.99,0-11.67,0-17.36,0C0,20.19,0,10.3,0,0.41z"/>
	<path class="st0" d="M200.73,50.56c2.66-3.5,4.69-7.05,7.53-9.76c7.86-7.49,19.9-10,29.53-1.78c4.95,4.22,6.98,10.03,7.89,16.27
		c0.31,2.12,0.42,4.29,0.43,6.43c0.04,18.39,0.03,36.78,0.03,55.16c0,0.76,0,1.52,0,2.47c-10.65,0-21.14,0-32.03,0
		c0-0.84,0-1.73,0-2.61c0-13.52,0.09-27.04-0.08-40.56c-0.04-2.92-0.76-5.92-1.68-8.71c-0.77-2.33-3.08-3.21-5.33-2.5
		c-1.6,0.51-3.64,1.63-4.2,3.01c-1.01,2.49-1.43,5.36-1.46,8.08c-0.14,12.75-0.05,25.49-0.05,38.24c0,1.62,0,3.23,0,5.04
		c-10.3,0-20.4,0-30.81,0c-0.04-0.8-0.12-1.68-0.12-2.57c-0.01-13.52,0.02-27.04-0.05-40.56c-0.01-2.2-0.35-4.44-0.83-6.59
		c-0.43-1.95-1.79-3.18-3.91-3.39c-2.21-0.22-4.16,0.37-4.92,2.55c-0.83,2.35-1.69,4.85-1.72,7.29
		c-0.17,13.44-0.08,26.89-0.08,40.33c0,0.92,0,1.84,0,2.95c-10.77,0-21.4,0-32.26,0c-0.04-0.82-0.12-1.65-0.12-2.48
		c0-26.35,0.02-52.69-0.04-79.04c0-1.87,0.42-2.53,2.42-2.51c9.29,0.1,18.58,0.04,27.87,0.04c0.61,0,1.21,0.07,2.07,0.12
		c0,4.21,0,8.33,0,12.45c0.19,0.07,0.38,0.14,0.56,0.21c0.94-1.48,1.82-3.01,2.82-4.45c4.16-5.96,9.66-9.7,17.16-9.69
		c1.79,0,3.61,0.68,5.37,1.22C192.62,37.63,198.47,42.27,200.73,50.56z"/>
	<path class="st0" d="M464.59,0.38c2.78,0,5.4,0,8.02,0c9.9,0,19.81-0.16,29.71,0.05c6.93,0.15,13.84,1.08,20.28,3.86
		c8.24,3.56,14.44,9.43,18.18,17.59c6.55,14.29,5.6,28.4-1.74,42.13c-5.07,9.5-13.49,14.34-23.83,15.99
		c-5.61,0.89-11.31,1.18-17.3,1.77c0,12.87,0,26.02,0,39.33c-11.25,0-22.2,0-33.32,0C464.59,80.94,464.59,40.83,464.59,0.38z
		 M497.87,26.08c0,9.43,0,18.71,0,28.2c4.17,0.19,7.84-0.57,10.31-4.07c2.75-3.91,3.34-8.31,2.3-12.95
		C508.93,30.42,504.48,26.38,497.87,26.08z"/>
	<path class="st0" d="M599.93,46.81c-0.42-3.47-0.84-6.94-1.29-10.58c11.11,0,22.05,0,33.11,0c0,28.3,0,56.48,0,84.84
		c-10.69,0-21.31,0-32.09,0c0.47-4.32,0.93-8.57,1.39-12.81c-0.17-0.08-0.34-0.15-0.51-0.23c-0.88,1.35-1.78,2.69-2.64,4.05
		c-4.41,6.91-10.6,10.88-18.9,11.03c-5.56,0.1-10.29-2.12-14.37-5.87c-6.72-6.17-9.6-14.22-10.87-22.87
		c-0.87-5.91-1.43-11.93-1.37-17.9c0.11-9.81,1.32-19.53,6.4-28.26c3.31-5.7,7.57-10.45,13.87-13.04
		c5.97-2.46,11.51-1.02,16.84,1.83c4.29,2.3,7.51,5.78,9.89,10.04C599.57,46.97,599.75,46.89,599.93,46.81z M585.26,82.56
		c0.54,3.21,1.1,7.38,2.01,11.47c0.42,1.86,1.89,3.24,3.99,3.34c2.08,0.09,3.72-0.87,4.81-2.64c0.52-0.84,0.97-1.75,1.33-2.67
		c2.54-6.48,2.49-13.27,1.93-20.02c-0.24-2.91-1.25-5.83-2.33-8.57c-1.06-2.69-4.07-3.34-6.54-1.84c-2.4,1.46-3.33,3.87-3.69,6.39
		C586.14,72.48,585.82,77,585.26,82.56z"/>
	<path class="st0" d="M693.07,36.16c10.75,0,21.33,0,32.22,0c-1.81,5.56-3.58,10.95-5.33,16.35c-5.77,17.79-11.49,35.6-17.3,53.38
		c-4.23,12.95-8.58,25.87-12.86,38.81c-1.4,4.24-2.71,8.51-4.2,12.72c-0.23,0.65-1.18,1.49-1.8,1.5
		c-10.29,0.09-20.58,0.05-30.87,0.04c-0.22,0-0.45-0.1-0.96-0.21c1.27-3.5,2.52-6.96,3.78-10.41c3.43-9.4,6.91-18.78,10.24-28.2
		c0.42-1.18,0.47-2.73,0.11-3.93c-5.8-19.29-11.7-38.55-17.57-57.82c-2.11-6.92-4.21-13.84-6.3-20.76
		c-0.13-0.42-0.16-0.87-0.27-1.44c10.48,0,20.82,0,31.41,0c3.13,15.58,6.26,31.11,9.38,46.64c0.26,0.03,0.52,0.06,0.78,0.09
		C686.7,67.35,689.88,51.78,693.07,36.16z"/>
	<path class="st0" d="M336.6,84.8c-15.29,0-29.96,0-45.34,0c0.5,3.38,0.7,6.58,1.49,9.62c0.76,2.94,3.18,3.77,7.49,3.16
		c2.4-0.34,3.71-1.98,3.93-4.87c0.02-0.23,0.08-0.45,0.15-0.83c10.15,0,20.32,0,30.71,0c-1.56,11.4-6.42,20.5-17.13,25.26
		c-10.85,4.82-22.35,4.85-33.78,2.51c-9.44-1.93-15.61-8.28-20.07-16.44c-3.98-7.29-5.06-15.17-4.88-23.38
		c0.14-6.59,1.11-12.99,3.01-19.26c2.22-7.3,7.08-12.7,12.88-17.36c5.78-4.65,12.13-8.07,19.66-9.05
		c6.01-0.78,11.55,0.81,17.17,2.61c6.83,2.19,11.3,6.85,15.6,12.35c4.86,6.23,7.22,13.19,8.35,20.66
		C336.56,74.6,336.37,79.56,336.6,84.8z M291.43,67.17c4.42,0,8.46,0,12.61,0c0.23-3.28,0.47-6.33-2.63-8.39
		c-2.01-1.34-4.19-1.82-6.31-0.62C291.59,60.14,292.22,63.83,291.43,67.17z"/>
	<path class="st0" d="M78.41,35.47c10.91,0,21.57,0,32.4,0c0,28,0,55.9,0,83.92c-10.81,0-21.52,0-32.4,0
		C78.41,91.39,78.41,63.53,78.41,35.47z"/>
	<path class="st0" d="M383.83,43.53c2.22,5.48,1.7,10.06-4.2,12.39c-3.17,1.26-6.72-0.17-8.55-2.94c-2.01-3.03-1.91-6.57,0.27-9.24
		c2.82-3.46,5.54-3.75,12.21-0.95c-0.87-1.3-1.38-2.13-1.96-2.9c-4.75-6.22-8.44-12.92-8.9-20.91c-0.55-9.43,5.08-16.46,14.52-17.14
		c9.12-0.66,18.31-0.53,27.46-0.4c4.44,0.06,7.67,4.74,6.6,8.71c-0.59,2.17-2.09,3.48-4.2,3.79c-3.1,0.45-6.24,0.7-9.37,0.83
		c-5.08,0.21-10.19,0.02-15.25,0.4c-6.52,0.49-8.79,4.86-6.04,10.94c1.58,3.49,3.73,6.5,6.55,9.13c2.62,2.45,2.94,5.32,1.26,7.88
		c-2.1,3.21-5.24,3.74-8.3,1.41c-0.47-0.36-0.93-0.73-1.39-1.09C384.29,43.47,384.06,43.5,383.83,43.53z"/>
	<path class="st0" d="M435.46,93.97c-1.08-2.97-2.04-5.33-2.79-7.74c-0.42-1.36-1.09-1.82-2.5-1.73
		c-8.91,0.61-17.82,1.14-26.73,1.72c-2.92,0.19-5.83,0.47-8.75,0.62c-2.31,0.11-2.95-0.63-3.11-2.97c-0.28-4.05-0.66-8.1-1.02-12.31
		c-1.49-0.1-2.84-0.2-4.19-0.29c-0.12-0.2-0.25-0.4-0.37-0.59c2.94-2.41,5.88-4.81,8.98-7.35c2.4,3.07,4.69,6,6.97,8.91
		c-0.23,0.24-0.32,0.42-0.42,0.43c-3.9,0.27-3.88,0.27-5.22,4.15c-0.82,2.38-1.7,4.73-2.78,7.72c11.6-5.32,22.67-10.39,33.99-15.59
		c-1.19-2.75-2.32-5.37-3.69-8.54c9.41,3.33,18.29,6.47,27.61,9.76C446.13,78.1,440.95,85.81,435.46,93.97z M445.97,72.61
		c-0.12-0.19-0.23-0.38-0.35-0.58c-3.49,1.01-7.01,1.96-10.46,3.1c-0.6,0.2-1.4,1.33-1.28,1.85c0.81,3.67,1.84,7.29,2.93,11.42
		C440.07,82.78,443.02,77.69,445.97,72.61z"/>
	<path class="st0" d="M94.84,0c7.7-0.46,15.47,6.41,15.31,15.19c-0.16,8.61-6.73,15.25-15.39,15.2
		c-8.63-0.05-15.06-6.43-15.27-15.06C79.27,6.26,87.06-0.47,94.84,0z"/>
	<path class="st0" d="M351.95,161.71c3.71-7.64,7.43-15.29,11.34-23.34c4.08,8.43,7.96,16.43,11.85,24.48
		c-3.37,0.62-3.87,0.53-4.78-2.41c-0.78-2.51-2.11-3.54-4.68-3.17c-0.83,0.12-1.72,0.12-2.55-0.02c-3.84-0.67-6.45,0.51-7.62,4.48
		c-0.19,0.64-1.42,1.26-2.23,1.36c-1.67,0.21-3.38,0.06-5.26,0.06c-0.89-4.68-1.76-9.24-2.62-13.79c-0.23-0.08-0.46-0.15-0.69-0.23
		c-2.26,4.77-4.52,9.54-6.96,14.7c-2.36-5.05-4.6-9.85-6.84-14.65c-0.21,0.01-0.42,0.01-0.62,0.02c-0.22,0.73-0.5,1.44-0.64,2.18
		c-0.6,3.08-1.33,6.16-1.68,9.27c-0.28,2.46-1.45,2.92-3.82,2.24c1.63-7.95,3.26-15.92,5.04-24.6c2.95,6.34,5.62,12.11,8.55,18.4
		c2.91-6.22,5.6-11.94,8.28-17.67c0.15,0.03,0.31,0.06,0.46,0.09c1.58,7.52,3.17,15.04,4.75,22.56
		C351.47,161.68,351.71,161.69,351.95,161.71z M367.3,154.16c-1.35-2.91-2.57-5.54-4.04-8.72c-1.44,3.19-2.64,5.85-3.93,8.72
		C362.08,154.16,364.49,154.16,367.3,154.16z"/>
	<path class="st0" d="M463.9,139.07c2.55,5.57,5.1,11.13,7.65,16.7c0.25,0.06,0.51,0.12,0.76,0.18c2.68-5.67,5.36-11.35,8.31-17.6
		c1.77,8.55,3.4,16.48,5.04,24.4c-2.97,0.85-3.37,0.66-3.92-2.16c-0.72-3.74-1.36-7.5-2.04-11.24c-0.24-0.07-0.49-0.15-0.73-0.22
		c-2.26,4.77-4.53,9.54-6.98,14.7c-2.36-5.06-4.59-9.86-6.82-14.66c-0.24,0-0.47,0.01-0.71,0.01c-0.92,4.58-1.83,9.15-2.77,13.85
		c-0.99,0-1.96,0-3.31,0c1.68-8.14,3.32-16.12,4.96-24.09C463.53,138.97,463.72,139.02,463.9,139.07z"/>
	<path class="st0" d="M604.47,164.21c-6.14-6.28-11.93-12.22-17.73-18.15c-0.21,0.11-0.42,0.22-0.63,0.32c0,5.49,0,10.98,0,16.61
		c-1.26,0-2.22,0-3.35,0c0-8.14,0-16.19,0-24.76c6.12,6.27,11.91,12.2,17.7,18.13c0.26-0.14,0.51-0.28,0.77-0.41
		c0-5.41,0-10.81,0-16.33c1.24,0,2.15,0,3.24,0C604.47,147.58,604.47,155.56,604.47,164.21z"/>
	<path class="st0" d="M221.42,160.29c-0.86,0.65-1.59,1.2-2.31,1.76c-3.11,2.4-8.35,2.1-11.05-0.64c-2.5-2.54-2.52-6.36,0.04-8.87
		c1.14-1.12,2.41-2.12,3.62-3.18c-2.96-4.67-3.09-7.14-0.47-9.12c2.5-1.89,6.81-1.5,8.64,0.79c2.09,2.61,1.39,4.59-3.25,9.01
		c1.57,1.77,3.14,3.55,4.88,5.52c0.99-1.05,1.9-2.03,2.98-3.18c0.73,0.73,1.38,1.37,1.77,1.76c-0.01,2.12-3.54,2.22-1.97,4.61
		c0.92,1.39,2.16,2.58,3.33,3.94C224.62,164.21,223.03,162.27,221.42,160.29z M214.09,151.7c-2.33,1.19-4.62,2.31-4.82,5
		c-0.14,1.86,1.1,3.37,3,3.93c2.93,0.85,4.93-0.82,7.13-2.78C217.58,155.73,215.85,153.74,214.09,151.7z M212.27,144.39
		c0.89,0.98,1.77,1.96,2.66,2.95c0.96-1.11,2.39-2.08,2.77-3.36c0.4-1.35-0.92-2.43-2.4-2.39
		C213.86,141.62,212.5,142.08,212.27,144.39z"/>
	<path class="st0" d="M310.11,139.14c6.41-0.5,13.23,4.87,13.16,12.24c-0.07,6.78-5.52,12.34-13.21,12.38
		c-7.98,0.04-12.99-6.99-12.96-12.64C297.13,145.41,303.45,138.44,310.11,139.14z M319.98,151.27c-0.34-6.03-4.65-9.37-9.98-9.36
		c-6.13,0.01-9.74,5.16-9.54,9.98c0.16,3.82,3.39,8.77,9.66,8.91C315.48,160.93,320.04,156.44,319.98,151.27z"/>
	<path class="st0" d="M630.56,143.76c-0.86,0.64-1.58,1.17-2.54,1.88c-2.16-2.69-5.2-4.03-8.48-3.66c-2.15,0.24-4.42,1.43-6.15,2.8
		c-3.14,2.48-3.64,6.97-1.7,10.73c1.78,3.46,6.23,5.91,9.52,5.24c3.84-0.78,6.44-3.24,6.66-6.49c-1.99,0-3.97,0-6.12,0
		c0-1.08,0-1.95,0-2.96c3.3,0,6.51,0,9.71,0c1.38,4.86-2.65,9.84-6.52,11.42c-6.28,2.55-13.14,0.08-16.27-5.72
		c-2.87-5.33-1.12-11.85,4.04-15.65C617.45,137.87,625.98,138.16,630.56,143.76z"/>
	<path class="st0" d="M84.14,151.14c-0.48-5.33,5.6-12.58,13.6-12.09c6.7,0.41,12.69,5.74,12.53,12.34
		c-0.17,6.75-5.35,12.31-13.26,12.36C89.32,163.79,83.71,157.44,84.14,151.14z M87.48,151.2c-0.45,5.31,4.04,9.53,9.61,9.6
		c5.42,0.07,9.89-4.38,9.83-9.58c-0.06-5.09-4.47-9.43-9.8-9.36C91.41,141.92,87.21,146.21,87.48,151.2z"/>
	<path class="st0" d="M406.28,139.56c5.02-0.1,9.89-0.51,14.26,2.32c7.09,4.59,6.52,15.58-0.93,19.56
		c-4.23,2.26-8.68,1.56-13.33,1.67C406.28,155.25,406.28,147.52,406.28,139.56z M409.46,160.14c1.76,0,3.3,0.14,4.8-0.03
		c3.87-0.44,6.76-2.94,7.59-6.38c1.67-6.92-4.4-12.94-11.34-11.19c-0.42,0.11-1,0.78-1,1.2
		C409.43,149.11,409.46,154.49,409.46,160.14z"/>
	<path class="st0" d="M68.09,139.36c2.7,0.16,5.26,0.1,7.74,0.51c3.53,0.58,5.53,2.68,5.86,5.57c0.36,3.25-1.17,5.68-4.53,7.2
		c-0.28,0.13-0.55,0.27-1.09,0.53c2.41,3.21,4.78,6.36,7.16,9.53c-2.87,0.86-3.41,0.69-5.05-1.51c-2-2.68-3.99-5.37-5.98-8.06
		c-0.22,0.06-0.44,0.11-0.65,0.17c0,3.16,0,6.31,0,9.65c-1.34,0-2.3,0-3.46,0C68.09,155.25,68.09,147.52,68.09,139.36z M71.5,150.49
		c2.56,0.12,5.06,0.25,6.4-1.91c0.65-1.05,0.63-3.2-0.04-4.23c-1.39-2.15-3.87-2.02-6.37-1.67C71.5,145.25,71.5,147.73,71.5,150.49z
		"/>
	<path class="st0" d="M394.08,104.41c4.09,0.02,7.61,3.76,7.55,8.03c-0.06,4.04-3.68,7.66-7.71,7.71c-4.06,0.05-7.84-3.75-7.79-7.84
		C386.16,107.94,389.74,104.39,394.08,104.41z"/>
	<path class="st0" d="M157.07,162.98c0-7.77,0-15.45,0-23.3c0.96,0,1.91,0,3.17,0c0,2.94,0,5.9,0,8.98c3.9,0,7.5,0,11.42,0
		c0-2.95,0-5.91,0-9.01c1.27,0,2.22,0,3.31,0c0,7.75,0,15.43,0,23.3c-0.99,0-1.93,0-3.2,0c0-2.96-0.09-5.94,0.03-8.92
		c0.07-1.73-0.52-2.31-2.25-2.24c-2.99,0.12-5.99,0.03-9.24,0.03c0,3.84,0,7.43,0,11.16C159.11,162.98,158.16,162.98,157.07,162.98z
		"/>
	<path class="st0" d="M369.24,107.71c0.02-4.29,3.35-7.69,7.54-7.69c4.35,0,7.94,3.63,7.87,7.96c-0.07,4.13-3.81,7.79-7.9,7.74
		C372.62,115.66,369.22,112.03,369.24,107.71z"/>
	<path class="st0" d="M416.15,95.47c0-4.18,3.45-7.85,7.4-7.87c4.51-0.03,8.05,3.53,8.01,8.04c-0.04,4.04-3.68,7.68-7.7,7.68
		C419.7,103.33,416.15,99.73,416.15,95.47z"/>
	<path class="st0" d="M368.81,78.68c0.01,4.37-3.36,7.85-7.62,7.88c-4.3,0.03-7.81-3.57-7.78-7.99c0.03-4.1,3.57-7.68,7.64-7.71
		C365.24,70.83,368.81,74.42,368.81,78.68z"/>
	<path class="st0" d="M179.47,139.36c2.71,0.15,5.27,0.08,7.75,0.48c3.47,0.57,5.52,2.63,5.84,5.35c0.44,3.65-0.8,5.7-4.45,7.41
		c-0.33,0.16-0.66,0.33-1.13,0.58c2.46,3.25,4.85,6.41,7.36,9.72c-2.45,0.6-4.11,0.25-5.46-1.89c-1.73-2.75-3.82-5.27-5.75-7.89
		c-0.24,0.07-0.47,0.13-0.71,0.2c0,3.14,0,6.28,0,9.62c-1.35,0-2.3,0-3.44,0C179.47,155.25,179.47,147.52,179.47,139.36z
		 M182.63,150.56c1.22,0,2.09,0.13,2.89-0.03c1.7-0.33,3.81-0.48,4.12-2.61c0.19-1.35-0.03-3.54-0.88-4.1
		c-1.45-0.94-3.55-0.92-5.39-1.19c-0.19-0.03-0.7,0.77-0.71,1.19C182.59,145.96,182.63,148.1,182.63,150.56z"/>
	<path class="st0" d="M372.6,96.06c-0.03,4.21-3.44,7.65-7.58,7.64c-4.38-0.01-7.88-3.54-7.85-7.92c0.03-4.08,3.85-7.83,7.88-7.73
		C369.27,88.16,372.63,91.72,372.6,96.06z"/>
	<path class="st0" d="M508.54,163.05c-1.03,0-1.94,0-3.01,0c0-7.83,0-15.58,0-23.44c1.06,0,2.04,0,3.3,0c0,3.02,0,5.98,0,9.62
		c2.98-2.81,5.62-5.03,7.91-7.55c1.69-1.87,3.5-2.62,6.34-1.95c-3.71,3.52-7.26,6.9-10.95,10.41c3.68,4.24,7.24,8.33,11.07,12.75
		c-2.38,0.33-4.06,0.67-5.6-1.37c-2.34-3.13-5.07-5.97-8.04-9.4C508.12,155.85,509.43,159.49,508.54,163.05z"/>
	<path class="st0" d="M410.84,115.42c-4.12-0.09-7.57-3.71-7.47-7.83c0.1-4.25,3.66-7.63,7.96-7.56c4.36,0.08,7.63,3.52,7.52,7.93
		C418.75,112.23,415.22,115.51,410.84,115.42z"/>
	<path class="st0" d="M372.7,60.92c-0.2,4.42-3.64,7.58-8.08,7.35c-3.94-0.2-7.12-3.03-7.32-7.71c-0.17-4.19,4.06-8.42,7.92-7.96
		C369.79,53.14,372.85,56.09,372.7,60.92z"/>
	<path class="st0" d="M261.35,139.6c1.24,0,2.14,0,3.36,0c0,3.57-0.04,7.09,0.02,10.61c0.03,1.99,0.08,4,0.41,5.95
		c0.51,3.06,2.72,4.76,5.65,4.65c3.08-0.12,5.15-1.79,5.53-4.86c0.27-2.21,0.15-4.46,0.17-6.7c0.03-3.01,0.02-6.01,0.04-9.02
		c0-0.14,0.1-0.28,0.21-0.58c0.91,0,1.87,0,3.17,0c0,3.59,0.01,7.18,0,10.78c-0.01,1.85,0.19,3.74-0.11,5.54
		c-0.79,4.76-4.62,7.96-9.11,7.88c-5.14-0.1-8.76-3.39-9.23-8.76c-0.27-3.06-0.09-6.17-0.11-9.25
		C261.34,143.84,261.35,141.85,261.35,139.6z"/>
	<path class="st0" d="M26.85,162.82c3.92-8.11,7.79-16.1,11.84-24.49c4.08,8.42,7.96,16.41,11.85,24.43
		c-3.19,0.8-3.26,0.77-4.61-1.95c-0.31-0.62-0.64-1.24-0.84-1.89c-0.36-1.18-1-1.74-2.34-1.69c-2.7,0.11-5.41-0.06-8.1,0.13
		c-0.77,0.05-1.59,0.83-2.2,1.45c-0.45,0.47-0.67,1.2-0.88,1.86C30.86,162.92,29.43,163.72,26.85,162.82z M38.68,145.43
		c-1.48,3.29-2.68,5.94-3.92,8.72c2.82,0,5.22,0,7.92,0C41.36,151.28,40.16,148.66,38.68,145.43z"/>
	<path class="st0" d="M538.28,139.67c0,1.1,0,1.85,0,2.86c-3.25,0-6.38,0-9.66,0c0,2.14,0,4.03,0,6.21c3.19,0,6.39,0,9.69,0
		c0,1.11,0,1.93,0,3c-3.23,0-6.36,0-9.66,0c0,2.82,0,5.39,0,8.26c3.13,0,6.25,0,9.56,0c0,1.15,0,2.01,0,3.01c-4.27,0-8.49,0-12.95,0
		c0-7.69,0-15.43,0-23.34C529.56,139.67,533.9,139.67,538.28,139.67z"/>
	<path class="st0" d="M389.42,139.55c4.52,0,8.85,0,13.38,0c0,0.91,0,1.78,0,2.94c-3.25,0-6.54,0-10.02,0c0,2.23,0,4.18,0,6.32
		c3.31,0,6.46,0,9.74,0c0,1.01,0,1.82,0,2.95c-3.19,0-6.39,0-9.73,0c0,2.9,0,5.48,0,8.28c3.37,0,6.59,0,10,0c0,1.08,0,1.94,0,2.96
		c-4.41,0-8.79,0-13.37,0C389.42,155.26,389.42,147.52,389.42,139.55z"/>
	<path class="st0" d="M501.82,139.63c0,0.96,0,1.78,0,2.88c-3.38,0-6.67,0-10.11,0c0,2.18,0,4.07,0,6.24c3.27,0,6.47,0,9.76,0
		c0,1.11,0,1.93,0,3.07c-3.25,0-6.45,0-9.79,0c0,2.83,0,5.34,0,8.16c3.35,0,6.62,0,10.07,0c0,1.16,0,2.02,0,3.02
		c-4.46,0-8.84,0-13.41,0c0-7.76,0-15.49,0-23.37C492.79,139.63,497.16,139.63,501.82,139.63z"/>
	<path class="st0" d="M260.04,162.9c-2.61,0.69-4.13,0.11-4.75-2.44c-0.6-2.47-2.18-3.73-4.91-3.21c-0.89,0.17-1.87,0.16-2.77,0
		c-3.64-0.65-6.05,0.57-7.06,4.27c-0.62,2.26-2.39,1.61-4.28,1.47c3.93-8.18,7.78-16.18,11.86-24.68
		C252.24,146.78,256.11,154.77,260.04,162.9z M252.26,154.23c-1.42-2.99-2.66-5.61-4.16-8.76c-1.44,3.24-2.63,5.9-3.9,8.76
		C246.98,154.23,249.36,154.23,252.26,154.23z"/>
	<path class="st0" d="M545.31,148.76c3.46,0,6.6,0,9.9,0c0,1.06,0,1.93,0,3.04c-3.23,0-6.38,0-9.89,0c0,2.58-0.08,4.95,0.08,7.3
		c0.02,0.36,1.09,0.92,1.69,0.94c2.76,0.1,5.53,0.04,8.44,0.04c0,1.11,0,1.99,0,2.94c-4.51,0-8.88,0-13.4,0c0-7.81,0-15.49,0-23.34
		c4.46,0,8.9,0,13.44,0c0,0.83,0,1.65,0,2.88c-2.54,0-5.06,0.12-7.57-0.04c-2.06-0.13-3.04,0.44-2.72,2.66
		C545.44,146.22,545.31,147.31,545.31,148.76z"/>
	<path class="st0" d="M725.16,121.43c-1.39,0-2.29,0-3.37,0c0-4.9,0-9.72,0-14.72c1.5,0,3,0,4.73,0c0.61,2.32,1.24,4.74,1.87,7.16
		c0.18,0.04,0.35,0.08,0.53,0.12c0.36-1.23,0.76-2.44,1.07-3.68c1.07-4.14,1.05-4.14,5.52-3.57c0,4.8,0,9.62,0,14.62
		c-0.88,0-1.75,0-2.87,0c0-2.95,0-5.85,0-8.75c-0.2-0.03-0.39-0.07-0.59-0.1c-0.51,1.9-1.02,3.8-1.52,5.71
		c-0.13,0.52-0.11,1.11-0.36,1.55c-0.37,0.64-0.93,1.17-1.41,1.74c-0.51-0.54-1.27-1.01-1.47-1.65c-0.6-1.92-0.98-3.91-1.45-5.88
		c-0.22,0.02-0.45,0.03-0.67,0.05C725.16,116.41,725.16,118.78,725.16,121.43z"/>
	<path class="st0" d="M15.8,162.94c0-7.83,0-15.51,0-23.67c3.21,0.27,6.13,0.3,8.97,0.81c2.82,0.51,4.64,2.84,4.88,5.47
		c0.27,2.96-1.14,5.67-3.83,6.73c-1.9,0.75-3.97,1.07-6.34,1.68c0,2.69,0,5.73,0,8.97C18.08,162.94,16.98,162.94,15.8,162.94z
		 M19.41,150.54c2.69,0.05,5.2,0.02,6.45-2.26c0.58-1.07,0.52-3.18-0.18-4.11c-1.46-1.93-3.86-1.85-6.27-1.48
		C19.41,145.29,19.41,147.79,19.41,150.54z"/>
	<path class="st0" d="M562.56,163.02c-1.19,0-2.1,0-3.18,0c0-7.73,0-15.47,0-23.75c3.11,0.29,6.27,0.25,9.27,0.94
		c3.25,0.76,4.54,3.3,4.29,6.97c-0.2,2.91-2.61,5.38-5.8,6.01c-1.5,0.3-3.57,0.21-4.32,1.15c-0.76,0.95-0.23,2.95-0.25,4.48
		C562.55,160.13,562.56,161.44,562.56,163.02z M562.58,150.52c1.22,0,2.08,0.1,2.9-0.02c3.15-0.47,4.96-2.67,4.28-5.11
		c-0.6-2.15-3.93-3.66-6.33-2.77c-0.37,0.14-0.79,0.75-0.8,1.15C562.54,145.91,562.58,148.06,562.58,150.52z"/>
	<path class="st0" d="M46.7,139.79c2.72-0.88,4.17,0.14,5.28,2.28c1.26,2.43,2.79,4.72,4.35,7.32c1.69-2.76,3.34-5.09,4.6-7.62
		c1.11-2.21,2.63-2.73,5.04-1.99c-2.24,3.72-4.58,7.31-6.6,11.07c-0.83,1.53-1.22,3.4-1.4,5.15c-0.23,2.27-0.06,4.59-0.06,7.01
		c-1.22,0-2.19,0-3.44,0c0-3,0.07-5.91-0.04-8.82c-0.04-1.02-0.35-2.12-0.86-3C51.39,147.4,49.08,143.7,46.7,139.79z"/>
	<path class="st0" d="M444.71,163.03c-1.33,0-2.23,0-3.36,0c0-6.77,0-13.43,0-20.44c-2.02,0-3.82,0-5.74,0c0-1.16,0-1.98,0-2.95
		c4.94,0,9.84,0,14.82,0c0,0.93,0,1.75,0,2.88c-1.87,0-3.68,0-5.72,0C444.71,149.48,444.71,156.15,444.71,163.03z"/>
	<path class="st0" d="M290.95,163.02c-1.34,0-2.24,0-3.38,0c0-6.79,0-13.47,0-20.47c-1.29,0-2.35-0.09-3.39,0.02
		c-2.19,0.23-3.08-0.54-2.27-2.91c4.85,0,9.75,0,14.76,0c0,0.88,0,1.69,0,2.83c-1.84,0-3.64,0-5.72,0
		C290.95,149.47,290.95,156.15,290.95,163.02z"/>
	<path class="st0" d="M381.28,142.55c0,6.96,0,13.57,0,20.39c-1.12,0-2.06,0-3.32,0c0-6.65,0-13.32,0-20.23
		c-2.09-0.1-3.89-0.18-5.82-0.28c0-0.96,0-1.78,0-2.77c4.88,0,9.78,0,14.69,0c0.66,2.77,0.57,2.88-2.22,2.89
		C383.6,142.55,382.6,142.55,381.28,142.55z"/>
	<path class="st0" d="M125.66,139.59c1.15,0,2.06,0,3.25,0c0,6.77,0,13.45,0,20.42c2.62,0,4.97,0,7.46,0c0,1.1,0,1.92,0,2.94
		c-3.49,0-7,0-10.71,0C125.66,155.26,125.66,147.51,125.66,139.59z"/>
	<path class="st0" d="M116.04,160.05c2.67,0,5.03,0,7.51,0c0,1.09,0,1.92,0,2.92c-3.46,0-6.91,0-10.56,0c0-7.71,0-15.45,0-23.33
		c0.92,0,1.82,0,3.05,0C116.04,146.32,116.04,153.05,116.04,160.05z"/>
	<path class="st0" d="M578.56,163.03c-1.08,0-1.97,0-3.01,0c0-7.84,0-15.57,0-23.42c1.03,0,1.93,0,3.01,0
		C578.56,147.34,578.56,155.06,578.56,163.03z"/>
	<path class="st0" d="M716.74,121.43c-1.28,0-2.17,0-3.37,0c0-4.05,0-8.03,0-12.05c-1.27-0.11-2.24-0.2-3.38-0.3
		c0-0.81,0-1.53,0-2.41c3.32,0,6.6,0,10.02,0c0,0.83,0,1.55,0,2.4c-1.09,0.1-2.07,0.2-3.28,0.31
		C716.74,113.33,716.74,117.24,716.74,121.43z"/>
	<path class="st0" d="M455.53,163.02c-1.01,0-1.76,0-2.69,0c0-7.83,0-15.56,0-23.4c0.93,0,1.74,0,2.69,0
		C455.53,147.42,455.53,155.15,455.53,163.02z"/>
	<path class="st0" d="M141.29,159.2c1.08,0.45,1.85,0.77,2.71,1.13c-1.28,2.49-2.53,4.83-3.68,7.23c-0.7,1.47-1.49,1.24-2.59,0.24
		C138.88,165.03,140.04,162.22,141.29,159.2z"/>
</g>
</svg>
