<?xml version="1.0" encoding="utf-8"?>
<!-- Generator: Adobe Illustrator 28.1.0, SVG Export Plug-In . SVG Version: 6.00 Build 0)  -->
<svg version="1.1" id="Layer_1" xmlns="http://www.w3.org/2000/svg" xmlns:xlink="http://www.w3.org/1999/xlink" x="0px" y="0px"
	 viewBox="0 0 466.03 334.47" style="enable-background:new 0 0 466.03 334.47;" xml:space="preserve">
<style type="text/css">
	.st0{fill:#511624;}
</style>
<g>
	<path class="st0" d="M280.54,274.54c3.76,10.21,7.62,20.92,11.66,31.56c2.59,6.83,5.49,13.55,8.19,20.34
		c1.06,2.67,2.39,4.51,5.8,4.23c3.83-0.31,3.64-3.36,3.69-5.49c0.34-14.45,0.71-28.92,0.2-43.35c-0.1-2.73-4.07-5.32-6.23-7.97
		c6.18-0.64,12.18-1.1,17.31,5.98c8.1,11.17,17.47,21.42,26.32,32.05c1.15,1.38,2.37,2.7,4.84,3.8c0-3.32,0.16-6.65-0.03-9.96
		c-0.47-8.13-1.39-16.25-1.57-24.38c-0.1-4.31-1.58-6.48-5.87-7.16c5.47,0,10.94,0,17.61,0c-8.57,1.75-7.08,7.96-7.17,13.05
		c-0.23,13.16-0.01,26.33-0.1,39.5c-0.01,1.84-0.72,3.68-1.1,5.51c-1.65-1.14-3.68-1.98-4.9-3.47c-10.1-12.4-20.05-24.92-30.06-37.4
		c-1.51-1.89-3.08-3.73-5.46-6.61c0,8.86-0.16,16.24,0.05,23.61c0.17,5.81,0.56,11.64,1.34,17.39c0.31,2.29,1.92,4.4,2.87,6.44
		c-9.68,0-20.53,0-32.65,0c2.36-1,3.62-1.54,5.57-2.37c-1.21-3.47-1.66-9.38-3.81-10.08c-5.88-1.9-12.57-2.59-18.75-1.92
		c-6.29,0.68-4.81,7.7-7.43,11.95c1.85,0.8,3.11,1.34,4.03,1.74c-6.05,1.03-12.12,2.43-18.26,2.94c-2.34,0.2-5.74-0.9-7.14-2.64
		c-7.12-8.88-13.74-18.16-20.94-27.83c5.4-0.53,9.69-0.63,13.85-1.43c6.73-1.3,10.2-7.1,8.72-13.86
		c-2.15-9.84-11.92-15.96-21.71-13.25c-1.29,0.36-2.77,2.74-2.85,4.26c-0.36,6.65-0.26,13.32-0.28,19.99
		c-0.03,7.83-0.02,15.67,0,23.5c0.01,4.09-0.14,8.32,5.76,8.82c-6.81,0-13.63,0-20.44,0c-0.05-0.18-0.09-0.35-0.14-0.53
		c1.82-0.52,3.63-1.04,5.95-1.7c0-1.55,0-3.19,0-4.82c0-16.14,0-32.28,0-48.5c-1.58-0.29-2.71-0.55-3.84-0.7
		c-7.01-0.89-8.88,0.26-9.55,7.1c-0.88,8.93-1.33,17.91-1.81,26.88c-0.44,8.32-2.16,16.19-10.25,20.3
		c-8.53,4.33-17.46,3.97-25.88-0.6c-6.8-3.7-8.48-10.39-8.63-17.46c-0.2-9.33-0.28-18.67,0.03-28c0.17-5.05-0.14-9.09-6.58-9.59
		c7.2,0,14.41,0,21.61,0c-6.84,0.94-6.3,6.13-6.21,10.92c0.19,10.82,0.27,21.65,0.86,32.45c0.42,7.63,3.54,11.56,8.94,12.83
		c8.84,2.07,16.79-0.28,20.12-6.96c2.1-4.2,3.71-9.11,3.81-13.74c0.23-10.92-0.58-21.86-0.96-32.74c-2.83-0.75-4.67-1.23-6.52-1.72
		c0.01-0.46,0.03-0.92,0.04-1.39c7.13,0,14.25-0.04,21.38,0.01c10.8,0.07,21.66-0.46,32.39,0.51c8.75,0.78,13.36,5.73,13.83,11.99
		c0.53,7.16-3.25,12.46-11.38,15.7c-2.44,0.97-5,1.63-8.49,2.75c3.11,4.44,5.91,8.46,8.74,12.47c2.21,3.13,4.28,6.38,6.72,9.32
		c3.95,4.77,8.64,4.29,11.27-1.31C264.98,308.52,272.75,291.45,280.54,274.54z M285.96,315.23c-2.56-9.16-4.9-17.55-7.25-25.93
		c-0.45,0.03-0.91,0.06-1.36,0.1c-3.41,8.44-6.83,16.87-10.45,25.83C273.57,315.23,279.27,315.23,285.96,315.23z"/>
	<path class="st0" d="M239.01,185.6c12.6,0,25.07-0.13,37.53,0.14c1.76,0.04,3.89,1.65,5.15,3.13c9.93,11.68,19.68,23.51,29.5,35.29
		c1.04,1.24,2.13,2.44,3.71,4.24c0-9.48,0.03-18.18-0.02-26.88c-0.01-1.82-0.39-3.64-0.46-5.46c-0.18-4.41,0.33-9.21-6.09-10.04
		c5.44,0,10.88,0,16.69,0c-2.09,1.27-4.55,1.95-5.42,3.51c-0.94,1.7-0.47,4.22-0.49,6.38c-0.12,14.48-0.18,28.96-0.36,43.43
		c-0.02,1.63-0.66,3.25-1.01,4.87c-1.46-0.83-3.33-1.32-4.32-2.53c-11.26-13.83-22.39-27.76-33.55-41.66
		c-0.61-0.76-1.25-1.49-3.2-2.12c0,3.3-0.13,6.6,0.02,9.89c0.43,9.31,0.99,18.61,1.45,27.92c0.18,3.64-0.51,7.71,4.87,8.49
		c-4.82,0-9.65,0-14.47,0c5.34-1.05,4.77-5.18,4.86-8.96c0.29-12.48,0.6-24.96,0.89-37.44c0.02-1,0.35-2.28-0.13-2.95
		c-1.64-2.3-3.58-4.39-5.4-6.56c-1.5,1.53-3.61,2.8-4.39,4.64c-6.57,15.44-12.89,30.99-19.32,46.5c-0.65,1.58-1.54,3.06-3.02,5.98
		c-3.44-8.49-6.31-15.57-9.81-24.22c-3.79,8.56-6.94,15.69-10.67,24.1c-1.5-2.69-2.48-4.09-3.12-5.64
		c-6.29-15.02-12.4-30.12-18.87-45.06c-1.41-3.24-4.07-5.94-5.9-8.52c10.86,0,23.17,0,35.44,0c-1.79,3.2,1.04,11.83,6.79,19.4
		c2.06-5.5,4.11-10.48,5.67-15.6C241.84,188.92,240.13,187.38,239.01,185.6z M244.39,230.46c0.44,0.04,0.89,0.08,1.33,0.13
		c5.52-13.87,11.03-27.73,16.91-42.5c-3.96,0-6.48,0.3-8.89-0.06c-5.87-0.86-9.06,1.93-10.97,7.11c-1.44,3.9-3.25,7.67-4.7,11.56
		c-0.55,1.49-1.16,3.4-0.7,4.77C239.51,217.87,242.02,224.14,244.39,230.46z M223.43,230.85c0.5-0.01,1.01-0.03,1.51-0.04
		c1.08-2.36,2.01-4.81,3.28-7.06c2.52-4.44,2.33-8.58-0.06-13.11c-2.63-4.98-4.62-10.29-6.89-15.45c-3.52-7.99-5.2-8.75-14.64-6.05
		C212.25,203.09,217.84,216.97,223.43,230.85z"/>
	<path class="st0" d="M87.63,179.81c0-5.03,0-10.07,0-15.01c8.4,5.13,61.68,4.85,68.11-0.55c0,5.28,0,10.44,0,15.6
		c-1.42-5.08-5.65-6.16-9.7-7.04c-5.61-1.22-11.33-1.97-17.39-2.98c-0.5,5.4-1.28,9.82-1.26,14.24c0.11,18.31,0.41,36.62,0.88,54.93
		c0.03,1.15,1.9,2.66,3.24,3.27c1.81,0.82,3.94,0.91,5.82,2.45c-10.45,0-20.89,0-31.34,0c-0.12-0.26-0.23-0.52-0.35-0.79
		c1.35-0.45,2.72-1.33,4.06-1.29c4.58,0.14,5.57-2.42,5.56-6.32c-0.06-20.5-0.09-40.99,0.05-61.49c0.02-3.57-1.26-4.94-4.67-4.41
		c-4.43,0.69-8.92,1.19-13.26,2.25C93.36,173.66,88.95,174.56,87.63,179.81z"/>
	<path class="st0" d="M199.64,46.09c0-3.71,0-8.4,0-11.85c5.82,0.71,11.58,1.99,17.34,2.01c13.65,0.06,27.3-0.39,40.94-0.85
		c2.23-0.07,4.43-1.23,6.88-1.95c0,4.16,0,8.82,0,15.02c-3.05-8.17-9.49-8.08-14.97-9.02c-11.3-1.94-11.53-1.67-11.64,9.74
		c-0.17,16.48,0.08,32.96-0.1,49.44c-0.05,4.2,0.92,6.67,5.57,6.64c1.01-0.01,2.03,0.62,2.91,1.74c-9.65,0-19.3,0-30.01,0
		c1.64-0.78,2.5-1.54,3.35-1.53c4.95,0.05,6.44-2.58,6.41-7.16c-0.11-18.33-0.1-36.67,0.01-55.01c0.02-3.9-1.34-5.62-5.34-4.81
		c-4.71,0.96-9.55,1.5-14.12,2.93C204.27,42.23,202.12,44.43,199.64,46.09z"/>
	<path class="st0" d="M182.26,238.44c-7.32,6.66-21.05,8.23-30.26,2.97c-11-6.28-15.91-16.36-15.54-28.7
		c0.38-12.38,7.5-20.64,18.33-25.79c10.78-5.13,21.43-4.9,30.94,2.82c12.73,10.33,18.01,34.15-0.98,47.79
		c-0.76,0.55-1.78,0.74-2.67,1.1c2.09-3.88,5.46-7.58,6.05-11.68c2.17-15.02-3.37-27.62-15.12-36.92
		c-10.53-8.33-25.15-2.34-27.89,10.79c-2.08,9.93,0.93,18.79,5.92,27.07C159.39,241.75,167.69,244.43,182.26,238.44z"/>
	<path class="st0" d="M48.63,332.33c-3.31,0-7.78,0-12.26,0c5.46-1.69,4.47-6.66,4.6-10.28c0.46-13.13,0.7-26.3,0.05-39.4
		c-0.15-3.06-4.15-5.92-6.32-8.81c5.79-0.4,11.77-1.39,16.88,5.65c8.31,11.43,17.92,21.91,27,32.78c1.03,1.23,2.17,2.38,4.26,4.67
		c0-6.06,0.18-10.74-0.04-15.39c-0.32-6.64-0.93-13.26-1.42-19.89c-0.41-5.54-0.41-5.54-5.58-7.39c5.46,0,10.92,0,16.38,0
		c-6.67,0.89-5.99,6.04-6.01,10.66c-0.06,13.48,0.04,26.95-0.08,40.43c-0.02,2.32-0.8,4.64-1.23,6.96
		c-1.97-1.53-4.31-2.76-5.85-4.65C69,315.41,59.17,303.01,49.28,290.66c-1.34-1.67-2.7-3.31-5.02-6.13c0,9.05-0.12,16.75,0.04,24.44
		c0.1,4.99,0.29,10.02,1.07,14.92C45.81,326.81,47.5,329.54,48.63,332.33z"/>
	<path class="st0" d="M30.53,332.84c-10.12,0-20.23,0-30.35,0c-0.06-0.19-0.12-0.38-0.18-0.56c1.13-0.4,2.26-1.16,3.38-1.13
		c5.62,0.16,6.08-3.1,6.03-7.69c-0.21-19.11-0.09-38.23-0.09-57.35c0-1.65,0-3.29,0-5.22c-3.12-0.6-5.96-1.14-8.81-1.68
		c0.01-0.34,0.03-0.68,0.04-1.02c9.99,0,19.98,0,29.98,0c0.08,0.17,0.17,0.35,0.25,0.52c-2.68,0.69-5.36,1.39-8.75,2.27
		c-0.29,6.79-0.81,13.89-0.85,20.99c-0.08,14.15,0.17,28.3,0.12,42.46c-0.01,4.29,1.02,7.03,6.05,6.51
		c1.06-0.11,2.19,0.59,3.29,0.92C30.61,332.18,30.57,332.51,30.53,332.84z"/>
	<path class="st0" d="M96.88,331.16c0-4.86,0-10.62,0-17.54c1.59,3,2.26,5.66,3.95,7.2c7.34,6.71,15.99,9.13,25.85,6.9
		c4.02-0.91,6.71-3.14,7.26-7.19c0.57-4.14-1.06-7.97-4.87-9.55c-5-2.06-10.38-3.32-15.68-4.56c-6.59-1.54-13.18-2.9-16-10.21
		c-4.16-10.82,4.25-21.82,17.48-22.47c4.26-0.21,8.58,0.73,12.88,1.02c2.2,0.15,4.41,0.03,7.01,0.03c0.01,0.05,0.19,0.68,0.14,1.28
		c-0.34,4.67-0.72,9.33-1.16,14.94c-4.51-11.7-19.68-16.84-30.05-11.05c-3.59,2.01-5.1,5.1-4.58,9.18c0.5,3.88,2.95,5.94,6.57,6.43
		c5.59,0.76,11.25,1,16.82,1.85c8.04,1.22,12.55,5.71,13.66,13.01c1.49,9.79-1.45,16.55-8.99,20.2c-7.44,3.61-15.06,3.32-22.84,0.94
		C102.19,330.91,99.71,331.28,96.88,331.16z"/>
	<path class="st0" d="M458.37,292.8c0,2.61,0,6.4,0,10.18c-0.25-4.25-3.03-4.72-6.35-4.69c-4.33,0.04-8.66,0.02-12.99-0.17
		c-2.85-0.13-3.79,1.05-3.76,3.81c0.11,8.97,0.04,17.94,0.04,28.38c9.9-0.68,18.6-1.11,27.25-2.03c1.32-0.14,2.4-2.55,3.47-3.78
		c0,2.77,0,6.07,0,8.24c-14.82-2.21-29.96,0.23-45.15-1.42c5.14-0.8,5.63-4.1,5.57-8.27c-0.18-13.49-0.17-26.99,0-40.48
		c0.05-4.14-0.62-7.27-5.43-8.1c7.31,0,14.63,0.18,21.94-0.05c7.41-0.23,14.81-0.87,22.44-1.35c0,2.17,0,5.24,0,8.32
		c-0.28-5.08-3.65-5.51-7.6-5.45c-6.95,0.1-13.9,0.03-21.47,0.03c-0.36,5.91-0.66,11.33-1.02,16.75c-0.19,2.85,1.5,3.3,3.79,3.22
		c4.33-0.15,8.69,0.07,12.97-0.46C454.33,295.21,456.43,293.67,458.37,292.8z"/>
	<path class="st0" d="M344.7,207.37c6.17,0,12.29,0.25,18.37-0.17c1.52-0.11,2.9-2.36,4.1-3.41c0,3.41,0,7.55,0,11.68
		c-0.03-5.55-3.94-5.24-7.72-5.21c-4.81,0.04-9.62,0.01-14.64,0.01c0,10.44,0,20.64,0,31.99c9.25-0.64,17.84-1.05,26.36-2.02
		c1.45-0.16,2.62-2.75,3.87-4.15c0,2.93,0,6.04,0,8.2c-15.06,0-29.99,0-44.93,0c-0.16-0.44-0.31-0.88-0.47-1.31
		c4.99-0.51,5.54-3.81,5.53-7.57c-0.03-13.83-0.05-27.65,0-41.48c0.02-3.91-0.8-6.99-5.8-7.53c15.1,0.07,29.96,0.75,44.73-1.9
		c0,2.47,0,5.6,0,8.73c-0.52-4.87-3.78-5.47-7.8-5.34c-6.13,0.2-12.28,0-18.4,0.31c-1.12,0.06-3.01,1.73-3.07,2.74
		C344.53,196.36,344.7,201.81,344.7,207.37z"/>
	<path class="st0" d="M412.53,277.73c0.7-1.61,1.19-2.72,1.68-3.84c0.36,0.06,0.73,0.12,1.09,0.18c-0.4,5.93-0.81,11.86-1.31,19.18
		c-0.9-1.87-1.39-2.55-1.55-3.3c-1.53-6.98-8.29-13.75-14.71-14.67c-8.84-1.27-15.83,1.88-19.55,9.61
		c-5.14,10.68-5.82,21.81-1.15,32.81c5.53,13.02,21.71,16.21,33.16,6.81c1.46-1.2,2.83-2.5,4.99-4.41
		c-4.82,9.37-16.92,14.6-27.78,12.77c-14.02-2.36-22.82-11.97-23.09-25.21c-0.38-18.51,7.71-29.72,23.55-33.19
		C396.4,272.6,404.32,274.46,412.53,277.73z"/>
	<path class="st0" d="M261.61,144.59c-1.35,2.15-2.02,3.22-2.94,4.67c-17.33-18.13-34.68-18.43-51.88-0.21
		c-3.15-2.33-2.84-4.45,0.43-5.96c7.95-3.67,15.86-7.49,24.06-10.5c2.07-0.76,5.29,1.06,7.8,2.11
		C246.51,137.83,253.84,141.16,261.61,144.59z"/>
	<path class="st0" d="M293.5,73.09c-8.59-2.36-10.85-6-9.72-15.1C290.43,59.21,294.91,65.96,293.5,73.09z"/>
	<path class="st0" d="M280.71,83.62c5.02,8.62,4.81,13.11-0.6,17.34C273.91,95.52,274.03,90.08,280.71,83.62z"/>
	<path class="st0" d="M288.76,87.69c-7.86-4.23-9.08-8.76-4.83-16.82C290.36,75.12,292.26,81.47,288.76,87.69z"/>
	<path class="st0" d="M196.66,112.3c-6.19-2.32-8.3-9.22-5-16.43C199.47,100.34,201.16,105.9,196.66,112.3z"/>
	<path class="st0" d="M176.66,87.51c-3.99-5.77-2.62-11.11,4.03-16.64C185.58,76.75,184.14,83.14,176.66,87.51z"/>
	<path class="st0" d="M268.46,112.49c-4.28-6.53-2.26-12.73,5.02-16.36C276.47,104.46,275.09,109.15,268.46,112.49z"/>
	<path class="st0" d="M180.37,10.45c5.69,6.13,4.94,12.86-1.87,16.67C173.77,21.85,174.38,16.36,180.37,10.45z"/>
	<path class="st0" d="M284.86,10.53c6.09,6.03,6.72,11.31,1.99,16.74C280,23.47,279.23,16.98,284.86,10.53z"/>
	<path class="st0" d="M184.8,101.18c-5.09-5.06-5.11-11.1-0.22-17.33C190.82,89.45,191,95.49,184.8,101.18z"/>
	<path class="st0" d="M167.64,24.67c7.51,5.83,8.43,11.18,3.14,17.01C164.71,37.75,163.86,33.41,167.64,24.67z"/>
	<path class="st0" d="M201.74,106.41c8.24,2.39,11.58,7.48,9.63,14.67C204.91,120.86,200.88,114.72,201.74,106.41z"/>
	<path class="st0" d="M191.02,32.49c-3.22,8.75-8.74,12.3-16.19,10.68C176.24,37.08,181.75,33.36,191.02,32.49z"/>
	<path class="st0" d="M183.99,44.57c0.19,8.38-3.95,12.87-12.1,13.57C170.57,52.12,174.89,47.18,183.99,44.57z"/>
	<path class="st0" d="M280.74,44.47c8.45,2.13,13.32,7.19,13.1,13.31C285.67,57.94,281.76,54.08,280.74,44.47z"/>
	<path class="st0" d="M204.86,133.08c7.26-5.52,14.9-6.04,19.98-1.54C220.66,136.13,213.44,136.76,204.86,133.08z"/>
	<path class="st0" d="M214.72,114.96c8.74,1.2,13.2,5.57,13.07,12.83C220.85,128.07,215.55,122.86,214.72,114.96z"/>
	<path class="st0" d="M297.21,24.64c3.98,7.78,2.89,13.67-2.87,16.86C289.14,36.47,290.02,30.79,297.21,24.64z"/>
	<path class="st0" d="M289.95,43.56c-8.38,0.4-13.12-2.93-15.48-10.55C281.87,32.29,289.7,37.52,289.95,43.56z"/>
	<path class="st0" d="M297.99,57.44c-3.39-6.89-0.54-12.69,7.53-15.79C307.23,49.86,305.29,54.09,297.99,57.44z"/>
	<path class="st0" d="M180.96,57.61c1.67,8.99-0.98,13.32-9.1,15.35C170.36,66.09,173.54,60.56,180.96,57.61z"/>
	<path class="st0" d="M260.12,133.16c-9.19,3.62-16,2.97-19.86-1.69C245.41,126.98,253.28,127.57,260.12,133.16z"/>
	<path class="st0" d="M237.78,128.18c-0.75-7.36,3.14-11.35,12.72-13.43C249.66,122.46,245.23,127.25,237.78,128.18z"/>
	<path class="st0" d="M173.37,108.89c7.91-2.12,14.42-0.98,19.81,5.07C187.09,117.35,179.74,115.52,173.37,108.89z"/>
	<path class="st0" d="M254.8,13.68c6.99-3.03,15.41-1.4,19.08,3.69C267.01,21.38,260,20.02,254.8,13.68z"/>
	<path class="st0" d="M167.65,73.04c-7.92-1.76-11.24-5.92-11.35-14.2C165.52,61.4,168.82,65.54,167.65,73.04z"/>
	<path class="st0" d="M208.03,124.72c-7.5,4.08-13.91,1.7-20.61-1.83C195.17,118.54,202.87,119.19,208.03,124.72z"/>
	<path class="st0" d="M257.31,124.76c4.47-5.63,11.61-6.41,19.67-2.43C272.07,126.95,264.29,127.99,257.31,124.76z"/>
	<path class="st0" d="M271.93,114.7c5.41-7.03,12.09-7.47,19.48-5.91C287.66,114.61,279.98,117.09,271.93,114.7z"/>
	<path class="st0" d="M253.74,121.35c-1.48-7.76,1.18-11.94,9.07-14.64C264.59,114.3,260.98,120.32,253.74,121.35z"/>
	<path class="st0" d="M210.72,13.47c-5.88,6.53-11.6,7.74-19.19,4.26C194.02,12.54,201.43,10.8,210.72,13.47z"/>
	<path class="st0" d="M283.2,29.52c-8.48,1.99-14.35-0.44-18.29-7.33C271.15,20.17,280,23.58,283.2,29.52z"/>
	<path class="st0" d="M182.37,29.82c2.03-5.76,10.4-9.34,17.76-7.94C197.26,28.51,191.32,31.24,182.37,29.82z"/>
	<path class="st0" d="M307.85,76.79c-2.88,8.01-8.02,11.82-15.1,11.2C293.91,80.66,299.67,76.39,307.85,76.79z"/>
	<path class="st0" d="M167.17,57.29c-7.18-2.94-9.34-7.68-7.32-15.56C167.72,44.88,170.1,49.72,167.17,57.29z"/>
	<path class="st0" d="M181.01,102.3c-7.19,1.54-13.71-1.68-17.57-8.36C171.3,92.18,177.86,95.21,181.01,102.3z"/>
	<path class="st0" d="M301.92,93.76c-4.83,7.18-10.93,10.11-17.17,8.54C285.96,96,292.43,92.68,301.92,93.76z"/>
	<path class="st0" d="M157.51,76.84c8.15-0.4,14.2,4.19,14.48,11C165.18,88.64,159.77,84.53,157.51,76.84z"/>
	<path class="st0" d="M308.97,58.68c-0.22,7.92-3.49,12.09-10.93,14.35C295.59,66.49,299.15,61.71,308.97,58.68z"/>
	<path class="st0" d="M194.84,0c2.01,8.6,0.03,12.87-6.77,15.09C184.51,9.62,186.91,4.1,194.84,0z"/>
	<path class="st0" d="M216.16,2.18c-3.91,7.09-9.98,9.37-16.75,6.58C201.68,3.25,207.31,0.96,216.16,2.18z"/>
	<path class="st0" d="M270.61,0.1c7.31,4.33,8.8,7.39,7.3,14.59C270.74,14.35,267.51,8.15,270.61,0.1z"/>
	<path class="st0" d="M265.88,8.75c-7.21,2.6-12.71,0.58-16.44-6.06C255.62,0.32,263.02,3.05,265.88,8.75z"/>
</g>
</svg>
